SplineFontDB: 3.2
FontName: LucidaTypewriter18B-Bold
FullName: Lucida Typewriter 18B Bold
FamilyName: Lucida Typewriter 18B
Weight: Bold
Copyright: Copyright (c) Darren Embry 2024.
UComments: "2024-7-5: Created with FontForge (http://fontforge.org)"
Version: 001.000
ItalicAngle: 0
UnderlinePosition: -100
UnderlineWidth: 50
Ascent: 800
Descent: 200
InvalidEm: 0
sfntRevision: 0x00010000
LayerCount: 2
Layer: 0 0 "Back" 1
Layer: 1 0 "Fore" 0
XUID: [1021 686 1944743342 31318]
StyleMap: 0x0000
FSType: 64
OS2Version: 0
OS2_WeightWidthSlopeOnly: 0
OS2_UseTypoMetrics: 1
CreationTime: 1720230905
ModificationTime: 1720230905
PfmFamily: 48
TTFWeight: 700
TTFWidth: 5
LineGap: 90
VLineGap: 90
Panose: 2 0 8 9 0 0 0 0 0 0
OS2TypoAscent: 0
OS2TypoAOffset: 1
OS2TypoDescent: 0
OS2TypoDOffset: 1
OS2TypoLinegap: 90
OS2WinAscent: 0
OS2WinAOffset: 1
OS2WinDescent: 0
OS2WinDOffset: 1
HheadAscent: 0
HheadAOffset: 1
HheadDescent: 0
HheadDOffset: 1
OS2SubXSize: 650
OS2SubYSize: 700
OS2SubXOff: 0
OS2SubYOff: 140
OS2SupXSize: 650
OS2SupYSize: 700
OS2SupXOff: 0
OS2SupYOff: 480
OS2StrikeYSize: 49
OS2StrikeYPos: 258
DEI: 91125
LangName: 1033 "" "" "" "Lucida Typewriter 18B 2024" "" "0.0"
Encoding: UnicodeBmp
UnicodeInterp: none
NameList: AGL For New Fonts
DisplaySize: 25
AntiAlias: 1
FitToEm: 0
BeginChars: 65536 873

StartChar: char0
Encoding: 0 0 0
Width: 600
Flags: HW
LayerCount: 2
Back
Fore
SplineSet
40 640 m 1
 40 680 l 1
 80 680 l 1
 80 640 l 1
 40 640 l 1
120 640 m 1
 120 680 l 1
 160 680 l 1
 160 640 l 1
 120 640 l 1
200 640 m 1
 200 680 l 1
 240 680 l 1
 240 640 l 1
 200 640 l 1
280 640 m 1
 280 680 l 1
 320 680 l 1
 320 640 l 1
 280 640 l 1
360 640 m 1
 360 680 l 1
 400 680 l 1
 400 640 l 1
 360 640 l 1
440 640 m 1
 440 680 l 1
 480 680 l 1
 480 640 l 1
 440 640 l 1
520 640 m 1
 520 680 l 1
 560 680 l 1
 560 640 l 1
 520 640 l 1
40 560 m 1
 40 600 l 1
 80 600 l 1
 80 560 l 1
 40 560 l 1
520 560 m 1
 520 600 l 1
 560 600 l 1
 560 560 l 1
 520 560 l 1
40 480 m 1
 40 520 l 1
 80 520 l 1
 80 480 l 1
 40 480 l 1
520 480 m 1
 520 520 l 1
 560 520 l 1
 560 480 l 1
 520 480 l 1
40 400 m 1
 40 440 l 1
 80 440 l 1
 80 400 l 1
 40 400 l 1
520 400 m 1
 520 440 l 1
 560 440 l 1
 560 400 l 1
 520 400 l 1
40 320 m 1
 40 360 l 1
 80 360 l 1
 80 320 l 1
 40 320 l 1
520 320 m 1
 520 360 l 1
 560 360 l 1
 560 320 l 1
 520 320 l 1
40 240 m 1
 40 280 l 1
 80 280 l 1
 80 240 l 1
 40 240 l 1
520 240 m 1
 520 280 l 1
 560 280 l 1
 560 240 l 1
 520 240 l 1
40 160 m 1
 40 200 l 1
 80 200 l 1
 80 160 l 1
 40 160 l 1
520 160 m 1
 520 200 l 1
 560 200 l 1
 560 160 l 1
 520 160 l 1
40 80 m 1
 40 120 l 1
 80 120 l 1
 80 80 l 1
 40 80 l 1
520 80 m 1
 520 120 l 1
 560 120 l 1
 560 80 l 1
 520 80 l 1
40 0 m 1
 40 40 l 1
 80 40 l 1
 80 0 l 1
 40 0 l 1
120 0 m 1
 120 40 l 1
 160 40 l 1
 160 0 l 1
 120 0 l 1
200 0 m 1
 200 40 l 1
 240 40 l 1
 240 0 l 1
 200 0 l 1
280 0 m 1
 280 40 l 1
 320 40 l 1
 320 0 l 1
 280 0 l 1
360 0 m 1
 360 40 l 1
 400 40 l 1
 400 0 l 1
 360 0 l 1
440 0 m 1
 440 40 l 1
 480 40 l 1
 480 0 l 1
 440 0 l 1
520 0 m 1
 520 40 l 1
 560 40 l 1
 560 0 l 1
 520 0 l 1
EndSplineSet
EndChar

StartChar: exclam
Encoding: 33 33 2
Width: 600
Flags: HW
LayerCount: 2
Back
Fore
SplineSet
200 680 m 1
 200 720 l 1
 360 720 l 1
 360 680 l 1
 200 680 l 1
200 640 m 1
 200 680 l 1
 360 680 l 1
 360 640 l 1
 200 640 l 1
200 600 m 1
 200 640 l 1
 360 640 l 1
 360 600 l 1
 200 600 l 1
200 560 m 1
 200 600 l 1
 360 600 l 1
 360 560 l 1
 200 560 l 1
200 520 m 1
 200 560 l 1
 360 560 l 1
 360 520 l 1
 200 520 l 1
200 480 m 1
 200 520 l 1
 360 520 l 1
 360 480 l 1
 200 480 l 1
200 440 m 1
 200 480 l 1
 360 480 l 1
 360 440 l 1
 200 440 l 1
200 400 m 1
 200 440 l 1
 360 440 l 1
 360 400 l 1
 200 400 l 1
240 360 m 1
 240 400 l 1
 360 400 l 1
 360 360 l 1
 240 360 l 1
240 320 m 1
 240 360 l 1
 360 360 l 1
 360 320 l 1
 240 320 l 1
240 280 m 1
 240 320 l 1
 360 320 l 1
 360 280 l 1
 240 280 l 1
240 240 m 1
 240 280 l 1
 360 280 l 1
 360 240 l 1
 240 240 l 1
240 200 m 1
 240 240 l 1
 360 240 l 1
 360 200 l 1
 240 200 l 1
200 80 m 1
 200 120 l 1
 360 120 l 1
 360 80 l 1
 200 80 l 1
200 40 m 1
 200 80 l 1
 360 80 l 1
 360 40 l 1
 200 40 l 1
200 0 m 1
 200 40 l 1
 360 40 l 1
 360 0 l 1
 200 0 l 1
EndSplineSet
EndChar

StartChar: quotedbl
Encoding: 34 34 3
Width: 600
Flags: HW
LayerCount: 2
Back
Fore
SplineSet
80 720 m 1
 80 760 l 1
 280 760 l 1
 280 720 l 1
 80 720 l 1
320 720 m 1
 320 760 l 1
 520 760 l 1
 520 720 l 1
 320 720 l 1
80 680 m 1
 80 720 l 1
 280 720 l 1
 280 680 l 1
 80 680 l 1
320 680 m 1
 320 720 l 1
 520 720 l 1
 520 680 l 1
 320 680 l 1
80 640 m 1
 80 680 l 1
 280 680 l 1
 280 640 l 1
 80 640 l 1
320 640 m 1
 320 680 l 1
 520 680 l 1
 520 640 l 1
 320 640 l 1
80 600 m 1
 80 640 l 1
 280 640 l 1
 280 600 l 1
 80 600 l 1
320 600 m 1
 320 640 l 1
 520 640 l 1
 520 600 l 1
 320 600 l 1
120 560 m 1
 120 600 l 1
 240 600 l 1
 240 560 l 1
 120 560 l 1
360 560 m 1
 360 600 l 1
 480 600 l 1
 480 560 l 1
 360 560 l 1
120 520 m 1
 120 560 l 1
 240 560 l 1
 240 520 l 1
 120 520 l 1
360 520 m 1
 360 560 l 1
 480 560 l 1
 480 520 l 1
 360 520 l 1
120 480 m 1
 120 520 l 1
 240 520 l 1
 240 480 l 1
 120 480 l 1
360 480 m 1
 360 520 l 1
 480 520 l 1
 480 480 l 1
 360 480 l 1
EndSplineSet
EndChar

StartChar: numbersign
Encoding: 35 35 4
Width: 600
Flags: HW
LayerCount: 2
Back
Fore
SplineSet
240 680 m 1
 240 720 l 1
 360 720 l 1
 360 680 l 1
 240 680 l 1
400 680 m 1
 400 720 l 1
 520 720 l 1
 520 680 l 1
 400 680 l 1
240 640 m 1
 240 680 l 1
 360 680 l 1
 360 640 l 1
 240 640 l 1
400 640 m 1
 400 680 l 1
 520 680 l 1
 520 640 l 1
 400 640 l 1
200 600 m 1
 200 640 l 1
 360 640 l 1
 360 600 l 1
 200 600 l 1
400 600 m 1
 400 640 l 1
 520 640 l 1
 520 600 l 1
 400 600 l 1
200 560 m 1
 200 600 l 1
 320 600 l 1
 320 560 l 1
 200 560 l 1
360 560 m 1
 360 600 l 1
 480 600 l 1
 480 560 l 1
 360 560 l 1
200 520 m 1
 200 560 l 1
 320 560 l 1
 320 520 l 1
 200 520 l 1
360 520 m 1
 360 560 l 1
 480 560 l 1
 480 520 l 1
 360 520 l 1
80 480 m 1
 80 520 l 1
 560 520 l 1
 560 480 l 1
 80 480 l 1
80 440 m 1
 80 480 l 1
 560 480 l 1
 560 440 l 1
 80 440 l 1
80 400 m 1
 80 440 l 1
 560 440 l 1
 560 400 l 1
 80 400 l 1
160 360 m 1
 160 400 l 1
 280 400 l 1
 280 360 l 1
 160 360 l 1
320 360 m 1
 320 400 l 1
 440 400 l 1
 440 360 l 1
 320 360 l 1
160 320 m 1
 160 360 l 1
 280 360 l 1
 280 320 l 1
 160 320 l 1
320 320 m 1
 320 360 l 1
 440 360 l 1
 440 320 l 1
 320 320 l 1
160 280 m 1
 160 320 l 1
 280 320 l 1
 280 280 l 1
 160 280 l 1
320 280 m 1
 320 320 l 1
 440 320 l 1
 440 280 l 1
 320 280 l 1
40 240 m 1
 40 280 l 1
 520 280 l 1
 520 240 l 1
 40 240 l 1
40 200 m 1
 40 240 l 1
 520 240 l 1
 520 200 l 1
 40 200 l 1
40 160 m 1
 40 200 l 1
 520 200 l 1
 520 160 l 1
 40 160 l 1
120 120 m 1
 120 160 l 1
 240 160 l 1
 240 120 l 1
 120 120 l 1
280 120 m 1
 280 160 l 1
 400 160 l 1
 400 120 l 1
 280 120 l 1
80 80 m 1
 80 120 l 1
 200 120 l 1
 200 80 l 1
 80 80 l 1
280 80 m 1
 280 120 l 1
 400 120 l 1
 400 80 l 1
 280 80 l 1
80 40 m 1
 80 80 l 1
 200 80 l 1
 200 40 l 1
 80 40 l 1
240 40 m 1
 240 80 l 1
 360 80 l 1
 360 40 l 1
 240 40 l 1
80 0 m 1
 80 40 l 1
 200 40 l 1
 200 0 l 1
 80 0 l 1
240 0 m 1
 240 40 l 1
 360 40 l 1
 360 0 l 1
 240 0 l 1
EndSplineSet
EndChar

StartChar: dollar
Encoding: 36 36 5
Width: 600
Flags: HW
LayerCount: 2
Back
Fore
SplineSet
280 760 m 1
 280 800 l 1
 400 800 l 1
 400 760 l 1
 280 760 l 1
280 720 m 1
 280 760 l 1
 400 760 l 1
 400 720 l 1
 280 720 l 1
240 680 m 1
 240 720 l 1
 520 720 l 1
 520 680 l 1
 240 680 l 1
160 640 m 1
 160 680 l 1
 520 680 l 1
 520 640 l 1
 160 640 l 1
120 600 m 1
 120 640 l 1
 520 640 l 1
 520 600 l 1
 120 600 l 1
80 560 m 1
 80 600 l 1
 280 600 l 1
 280 560 l 1
 80 560 l 1
80 520 m 1
 80 560 l 1
 240 560 l 1
 240 520 l 1
 80 520 l 1
80 480 m 1
 80 520 l 1
 280 520 l 1
 280 480 l 1
 80 480 l 1
80 440 m 1
 80 480 l 1
 320 480 l 1
 320 440 l 1
 80 440 l 1
120 400 m 1
 120 440 l 1
 400 440 l 1
 400 400 l 1
 120 400 l 1
160 360 m 1
 160 400 l 1
 440 400 l 1
 440 360 l 1
 160 360 l 1
200 320 m 1
 200 360 l 1
 480 360 l 1
 480 320 l 1
 200 320 l 1
280 280 m 1
 280 320 l 1
 520 320 l 1
 520 280 l 1
 280 280 l 1
360 240 m 1
 360 280 l 1
 560 280 l 1
 560 240 l 1
 360 240 l 1
400 200 m 1
 400 240 l 1
 560 240 l 1
 560 200 l 1
 400 200 l 1
400 160 m 1
 400 200 l 1
 560 200 l 1
 560 160 l 1
 400 160 l 1
80 120 m 1
 80 160 l 1
 120 160 l 1
 120 120 l 1
 80 120 l 1
360 120 m 1
 360 160 l 1
 560 160 l 1
 560 120 l 1
 360 120 l 1
80 80 m 1
 80 120 l 1
 520 120 l 1
 520 80 l 1
 80 80 l 1
80 40 m 1
 80 80 l 1
 520 80 l 1
 520 40 l 1
 80 40 l 1
120 0 m 1
 120 40 l 1
 480 40 l 1
 480 0 l 1
 120 0 l 1
280 -40 m 1
 280 0 l 1
 400 0 l 1
 400 -40 l 1
 280 -40 l 1
280 -80 m 1
 280 -40 l 1
 400 -40 l 1
 400 -80 l 1
 280 -80 l 1
280 -120 m 1
 280 -80 l 1
 400 -80 l 1
 400 -120 l 1
 280 -120 l 1
EndSplineSet
EndChar

StartChar: percent
Encoding: 37 37 6
Width: 600
Flags: HW
LayerCount: 2
Back
Fore
SplineSet
80 680 m 1
 80 720 l 1
 200 720 l 1
 200 680 l 1
 80 680 l 1
360 680 m 1
 360 720 l 1
 520 720 l 1
 520 680 l 1
 360 680 l 1
40 640 m 1
 40 680 l 1
 240 680 l 1
 240 640 l 1
 40 640 l 1
360 640 m 1
 360 680 l 1
 480 680 l 1
 480 640 l 1
 360 640 l 1
0 600 m 1
 0 640 l 1
 280 640 l 1
 280 600 l 1
 0 600 l 1
320 600 m 1
 320 640 l 1
 480 640 l 1
 480 600 l 1
 320 600 l 1
0 560 m 1
 0 600 l 1
 120 600 l 1
 120 560 l 1
 0 560 l 1
160 560 m 1
 160 600 l 1
 280 600 l 1
 280 560 l 1
 160 560 l 1
320 560 m 1
 320 600 l 1
 440 600 l 1
 440 560 l 1
 320 560 l 1
0 520 m 1
 0 560 l 1
 120 560 l 1
 120 520 l 1
 0 520 l 1
160 520 m 1
 160 560 l 1
 440 560 l 1
 440 520 l 1
 160 520 l 1
0 480 m 1
 0 520 l 1
 120 520 l 1
 120 480 l 1
 0 480 l 1
160 480 m 1
 160 520 l 1
 400 520 l 1
 400 480 l 1
 160 480 l 1
0 440 m 1
 0 480 l 1
 400 480 l 1
 400 440 l 1
 0 440 l 1
40 400 m 1
 40 440 l 1
 360 440 l 1
 360 400 l 1
 40 400 l 1
80 360 m 1
 80 400 l 1
 200 400 l 1
 200 360 l 1
 80 360 l 1
240 360 m 1
 240 400 l 1
 360 400 l 1
 360 360 l 1
 240 360 l 1
200 320 m 1
 200 360 l 1
 320 360 l 1
 320 320 l 1
 200 320 l 1
360 320 m 1
 360 360 l 1
 480 360 l 1
 480 320 l 1
 360 320 l 1
200 280 m 1
 200 320 l 1
 520 320 l 1
 520 280 l 1
 200 280 l 1
160 240 m 1
 160 280 l 1
 560 280 l 1
 560 240 l 1
 160 240 l 1
160 200 m 1
 160 240 l 1
 400 240 l 1
 400 200 l 1
 160 200 l 1
440 200 m 1
 440 240 l 1
 560 240 l 1
 560 200 l 1
 440 200 l 1
120 160 m 1
 120 200 l 1
 400 200 l 1
 400 160 l 1
 120 160 l 1
440 160 m 1
 440 200 l 1
 560 200 l 1
 560 160 l 1
 440 160 l 1
120 120 m 1
 120 160 l 1
 240 160 l 1
 240 120 l 1
 120 120 l 1
280 120 m 1
 280 160 l 1
 400 160 l 1
 400 120 l 1
 280 120 l 1
440 120 m 1
 440 160 l 1
 560 160 l 1
 560 120 l 1
 440 120 l 1
80 80 m 1
 80 120 l 1
 240 120 l 1
 240 80 l 1
 80 80 l 1
280 80 m 1
 280 120 l 1
 560 120 l 1
 560 80 l 1
 280 80 l 1
80 40 m 1
 80 80 l 1
 200 80 l 1
 200 40 l 1
 80 40 l 1
320 40 m 1
 320 80 l 1
 520 80 l 1
 520 40 l 1
 320 40 l 1
40 0 m 1
 40 40 l 1
 200 40 l 1
 200 0 l 1
 40 0 l 1
360 0 m 1
 360 40 l 1
 480 40 l 1
 480 0 l 1
 360 0 l 1
EndSplineSet
EndChar

StartChar: ampersand
Encoding: 38 38 7
Width: 600
Flags: HW
LayerCount: 2
Back
Fore
SplineSet
160 680 m 1
 160 720 l 1
 360 720 l 1
 360 680 l 1
 160 680 l 1
120 640 m 1
 120 680 l 1
 400 680 l 1
 400 640 l 1
 120 640 l 1
80 600 m 1
 80 640 l 1
 440 640 l 1
 440 600 l 1
 80 600 l 1
80 560 m 1
 80 600 l 1
 240 600 l 1
 240 560 l 1
 80 560 l 1
280 560 m 1
 280 600 l 1
 440 600 l 1
 440 560 l 1
 280 560 l 1
80 520 m 1
 80 560 l 1
 240 560 l 1
 240 520 l 1
 80 520 l 1
280 520 m 1
 280 560 l 1
 440 560 l 1
 440 520 l 1
 280 520 l 1
80 480 m 1
 80 520 l 1
 240 520 l 1
 240 480 l 1
 80 480 l 1
280 480 m 1
 280 520 l 1
 440 520 l 1
 440 480 l 1
 280 480 l 1
120 440 m 1
 120 480 l 1
 400 480 l 1
 400 440 l 1
 120 440 l 1
160 400 m 1
 160 440 l 1
 360 440 l 1
 360 400 l 1
 160 400 l 1
80 360 m 1
 80 400 l 1
 320 400 l 1
 320 360 l 1
 80 360 l 1
440 360 m 1
 440 400 l 1
 600 400 l 1
 600 360 l 1
 440 360 l 1
40 320 m 1
 40 360 l 1
 360 360 l 1
 360 320 l 1
 40 320 l 1
440 320 m 1
 440 360 l 1
 600 360 l 1
 600 320 l 1
 440 320 l 1
40 280 m 1
 40 320 l 1
 160 320 l 1
 160 280 l 1
 40 280 l 1
200 280 m 1
 200 320 l 1
 360 320 l 1
 360 280 l 1
 200 280 l 1
440 280 m 1
 440 320 l 1
 600 320 l 1
 600 280 l 1
 440 280 l 1
0 240 m 1
 0 280 l 1
 160 280 l 1
 160 240 l 1
 0 240 l 1
200 240 m 1
 200 280 l 1
 400 280 l 1
 400 240 l 1
 200 240 l 1
440 240 m 1
 440 280 l 1
 560 280 l 1
 560 240 l 1
 440 240 l 1
0 200 m 1
 0 240 l 1
 160 240 l 1
 160 200 l 1
 0 200 l 1
240 200 m 1
 240 240 l 1
 560 240 l 1
 560 200 l 1
 240 200 l 1
0 160 m 1
 0 200 l 1
 160 200 l 1
 160 160 l 1
 0 160 l 1
240 160 m 1
 240 200 l 1
 520 200 l 1
 520 160 l 1
 240 160 l 1
0 120 m 1
 0 160 l 1
 200 160 l 1
 200 120 l 1
 0 120 l 1
280 120 m 1
 280 160 l 1
 480 160 l 1
 480 120 l 1
 280 120 l 1
40 80 m 1
 40 120 l 1
 480 120 l 1
 480 80 l 1
 40 80 l 1
80 40 m 1
 80 80 l 1
 520 80 l 1
 520 40 l 1
 80 40 l 1
120 0 m 1
 120 40 l 1
 360 40 l 1
 360 0 l 1
 120 0 l 1
400 0 m 1
 400 40 l 1
 600 40 l 1
 600 0 l 1
 400 0 l 1
EndSplineSet
EndChar

StartChar: quotesingle
Encoding: 39 39 8
Width: 600
Flags: HW
LayerCount: 2
Back
Fore
SplineSet
200 720 m 1
 200 760 l 1
 360 760 l 1
 360 720 l 1
 200 720 l 1
200 680 m 1
 200 720 l 1
 360 720 l 1
 360 680 l 1
 200 680 l 1
200 640 m 1
 200 680 l 1
 360 680 l 1
 360 640 l 1
 200 640 l 1
200 600 m 1
 200 640 l 1
 360 640 l 1
 360 600 l 1
 200 600 l 1
240 560 m 1
 240 600 l 1
 360 600 l 1
 360 560 l 1
 240 560 l 1
240 520 m 1
 240 560 l 1
 360 560 l 1
 360 520 l 1
 240 520 l 1
240 480 m 1
 240 520 l 1
 360 520 l 1
 360 480 l 1
 240 480 l 1
240 440 m 1
 240 480 l 1
 360 480 l 1
 360 440 l 1
 240 440 l 1
EndSplineSet
EndChar

StartChar: parenleft
Encoding: 40 40 9
Width: 600
Flags: HW
LayerCount: 2
Back
Fore
SplineSet
480 720 m 1
 480 760 l 1
 560 760 l 1
 560 720 l 1
 480 720 l 1
360 680 m 1
 360 720 l 1
 560 720 l 1
 560 680 l 1
 360 680 l 1
320 640 m 1
 320 680 l 1
 560 680 l 1
 560 640 l 1
 320 640 l 1
280 600 m 1
 280 640 l 1
 480 640 l 1
 480 600 l 1
 280 600 l 1
240 560 m 1
 240 600 l 1
 440 600 l 1
 440 560 l 1
 240 560 l 1
200 520 m 1
 200 560 l 1
 400 560 l 1
 400 520 l 1
 200 520 l 1
200 480 m 1
 200 520 l 1
 360 520 l 1
 360 480 l 1
 200 480 l 1
200 440 m 1
 200 480 l 1
 360 480 l 1
 360 440 l 1
 200 440 l 1
160 400 m 1
 160 440 l 1
 320 440 l 1
 320 400 l 1
 160 400 l 1
160 360 m 1
 160 400 l 1
 320 400 l 1
 320 360 l 1
 160 360 l 1
160 320 m 1
 160 360 l 1
 320 360 l 1
 320 320 l 1
 160 320 l 1
160 280 m 1
 160 320 l 1
 320 320 l 1
 320 280 l 1
 160 280 l 1
160 240 m 1
 160 280 l 1
 320 280 l 1
 320 240 l 1
 160 240 l 1
160 200 m 1
 160 240 l 1
 320 240 l 1
 320 200 l 1
 160 200 l 1
160 160 m 1
 160 200 l 1
 320 200 l 1
 320 160 l 1
 160 160 l 1
200 120 m 1
 200 160 l 1
 360 160 l 1
 360 120 l 1
 200 120 l 1
200 80 m 1
 200 120 l 1
 360 120 l 1
 360 80 l 1
 200 80 l 1
200 40 m 1
 200 80 l 1
 360 80 l 1
 360 40 l 1
 200 40 l 1
240 0 m 1
 240 40 l 1
 400 40 l 1
 400 0 l 1
 240 0 l 1
280 -40 m 1
 280 0 l 1
 440 0 l 1
 440 -40 l 1
 280 -40 l 1
320 -80 m 1
 320 -40 l 1
 520 -40 l 1
 520 -80 l 1
 320 -80 l 1
360 -120 m 1
 360 -80 l 1
 560 -80 l 1
 560 -120 l 1
 360 -120 l 1
480 -160 m 1
 480 -120 l 1
 560 -120 l 1
 560 -160 l 1
 480 -160 l 1
EndSplineSet
EndChar

StartChar: parenright
Encoding: 41 41 10
Width: 600
Flags: HW
LayerCount: 2
Back
Fore
SplineSet
40 720 m 1
 40 760 l 1
 120 760 l 1
 120 720 l 1
 40 720 l 1
40 680 m 1
 40 720 l 1
 240 720 l 1
 240 680 l 1
 40 680 l 1
80 640 m 1
 80 680 l 1
 280 680 l 1
 280 640 l 1
 80 640 l 1
160 600 m 1
 160 640 l 1
 320 640 l 1
 320 600 l 1
 160 600 l 1
200 560 m 1
 200 600 l 1
 360 600 l 1
 360 560 l 1
 200 560 l 1
240 520 m 1
 240 560 l 1
 360 560 l 1
 360 520 l 1
 240 520 l 1
240 480 m 1
 240 520 l 1
 400 520 l 1
 400 480 l 1
 240 480 l 1
240 440 m 1
 240 480 l 1
 400 480 l 1
 400 440 l 1
 240 440 l 1
280 400 m 1
 280 440 l 1
 440 440 l 1
 440 400 l 1
 280 400 l 1
280 360 m 1
 280 400 l 1
 440 400 l 1
 440 360 l 1
 280 360 l 1
280 320 m 1
 280 360 l 1
 440 360 l 1
 440 320 l 1
 280 320 l 1
280 280 m 1
 280 320 l 1
 440 320 l 1
 440 280 l 1
 280 280 l 1
280 240 m 1
 280 280 l 1
 440 280 l 1
 440 240 l 1
 280 240 l 1
280 200 m 1
 280 240 l 1
 440 240 l 1
 440 200 l 1
 280 200 l 1
280 160 m 1
 280 200 l 1
 440 200 l 1
 440 160 l 1
 280 160 l 1
240 120 m 1
 240 160 l 1
 400 160 l 1
 400 120 l 1
 240 120 l 1
240 80 m 1
 240 120 l 1
 400 120 l 1
 400 80 l 1
 240 80 l 1
200 40 m 1
 200 80 l 1
 400 80 l 1
 400 40 l 1
 200 40 l 1
160 0 m 1
 160 40 l 1
 360 40 l 1
 360 0 l 1
 160 0 l 1
120 -40 m 1
 120 0 l 1
 320 0 l 1
 320 -40 l 1
 120 -40 l 1
40 -80 m 1
 40 -40 l 1
 280 -40 l 1
 280 -80 l 1
 40 -80 l 1
40 -120 m 1
 40 -80 l 1
 240 -80 l 1
 240 -120 l 1
 40 -120 l 1
40 -160 m 1
 40 -120 l 1
 160 -120 l 1
 160 -160 l 1
 40 -160 l 1
EndSplineSet
EndChar

StartChar: asterisk
Encoding: 42 42 11
Width: 600
Flags: HW
LayerCount: 2
Back
Fore
SplineSet
240 680 m 1
 240 720 l 1
 360 720 l 1
 360 680 l 1
 240 680 l 1
240 640 m 1
 240 680 l 1
 360 680 l 1
 360 640 l 1
 240 640 l 1
120 600 m 1
 120 640 l 1
 160 640 l 1
 160 600 l 1
 120 600 l 1
280 600 m 1
 280 640 l 1
 320 640 l 1
 320 600 l 1
 280 600 l 1
440 600 m 1
 440 640 l 1
 480 640 l 1
 480 600 l 1
 440 600 l 1
120 560 m 1
 120 600 l 1
 200 600 l 1
 200 560 l 1
 120 560 l 1
280 560 m 1
 280 600 l 1
 320 600 l 1
 320 560 l 1
 280 560 l 1
400 560 m 1
 400 600 l 1
 480 600 l 1
 480 560 l 1
 400 560 l 1
80 520 m 1
 80 560 l 1
 240 560 l 1
 240 520 l 1
 80 520 l 1
360 520 m 1
 360 560 l 1
 520 560 l 1
 520 520 l 1
 360 520 l 1
80 480 m 1
 80 520 l 1
 240 520 l 1
 240 480 l 1
 80 480 l 1
360 480 m 1
 360 520 l 1
 520 520 l 1
 520 480 l 1
 360 480 l 1
240 440 m 1
 240 480 l 1
 280 480 l 1
 280 440 l 1
 240 440 l 1
360 440 m 1
 360 480 l 1
 400 480 l 1
 400 440 l 1
 360 440 l 1
200 400 m 1
 200 440 l 1
 280 440 l 1
 280 400 l 1
 200 400 l 1
320 400 m 1
 320 440 l 1
 400 440 l 1
 400 400 l 1
 320 400 l 1
120 360 m 1
 120 400 l 1
 280 400 l 1
 280 360 l 1
 120 360 l 1
320 360 m 1
 320 400 l 1
 440 400 l 1
 440 360 l 1
 320 360 l 1
160 320 m 1
 160 360 l 1
 240 360 l 1
 240 320 l 1
 160 320 l 1
360 320 m 1
 360 360 l 1
 480 360 l 1
 480 320 l 1
 360 320 l 1
200 280 m 1
 200 320 l 1
 240 320 l 1
 240 280 l 1
 200 280 l 1
360 280 m 1
 360 320 l 1
 400 320 l 1
 400 280 l 1
 360 280 l 1
EndSplineSet
EndChar

StartChar: plus
Encoding: 43 43 12
Width: 600
Flags: HW
LayerCount: 2
Back
Fore
SplineSet
240 480 m 1
 240 520 l 1
 360 520 l 1
 360 480 l 1
 240 480 l 1
240 440 m 1
 240 480 l 1
 360 480 l 1
 360 440 l 1
 240 440 l 1
240 400 m 1
 240 440 l 1
 360 440 l 1
 360 400 l 1
 240 400 l 1
240 360 m 1
 240 400 l 1
 360 400 l 1
 360 360 l 1
 240 360 l 1
240 320 m 1
 240 360 l 1
 360 360 l 1
 360 320 l 1
 240 320 l 1
40 280 m 1
 40 320 l 1
 560 320 l 1
 560 280 l 1
 40 280 l 1
40 240 m 1
 40 280 l 1
 560 280 l 1
 560 240 l 1
 40 240 l 1
40 200 m 1
 40 240 l 1
 560 240 l 1
 560 200 l 1
 40 200 l 1
240 160 m 1
 240 200 l 1
 360 200 l 1
 360 160 l 1
 240 160 l 1
240 120 m 1
 240 160 l 1
 360 160 l 1
 360 120 l 1
 240 120 l 1
240 80 m 1
 240 120 l 1
 360 120 l 1
 360 80 l 1
 240 80 l 1
240 40 m 1
 240 80 l 1
 360 80 l 1
 360 40 l 1
 240 40 l 1
240 0 m 1
 240 40 l 1
 360 40 l 1
 360 0 l 1
 240 0 l 1
EndSplineSet
EndChar

StartChar: comma
Encoding: 44 44 13
Width: 600
Flags: HW
LayerCount: 2
Back
Fore
SplineSet
200 120 m 1
 200 160 l 1
 360 160 l 1
 360 120 l 1
 200 120 l 1
200 80 m 1
 200 120 l 1
 360 120 l 1
 360 80 l 1
 200 80 l 1
200 40 m 1
 200 80 l 1
 360 80 l 1
 360 40 l 1
 200 40 l 1
200 0 m 1
 200 40 l 1
 360 40 l 1
 360 0 l 1
 200 0 l 1
240 -40 m 1
 240 0 l 1
 360 0 l 1
 360 -40 l 1
 240 -40 l 1
240 -80 m 1
 240 -40 l 1
 360 -40 l 1
 360 -80 l 1
 240 -80 l 1
200 -120 m 1
 200 -80 l 1
 360 -80 l 1
 360 -120 l 1
 200 -120 l 1
200 -160 m 1
 200 -120 l 1
 320 -120 l 1
 320 -160 l 1
 200 -160 l 1
EndSplineSet
EndChar

StartChar: hyphen
Encoding: 45 45 14
Width: 600
Flags: HW
LayerCount: 2
Back
Fore
SplineSet
40 280 m 1
 40 320 l 1
 560 320 l 1
 560 280 l 1
 40 280 l 1
40 240 m 1
 40 280 l 1
 560 280 l 1
 560 240 l 1
 40 240 l 1
40 200 m 1
 40 240 l 1
 560 240 l 1
 560 200 l 1
 40 200 l 1
EndSplineSet
EndChar

StartChar: period
Encoding: 46 46 15
Width: 600
Flags: HW
LayerCount: 2
Back
Fore
SplineSet
200 120 m 1
 200 160 l 1
 360 160 l 1
 360 120 l 1
 200 120 l 1
200 80 m 1
 200 120 l 1
 360 120 l 1
 360 80 l 1
 200 80 l 1
200 40 m 1
 200 80 l 1
 360 80 l 1
 360 40 l 1
 200 40 l 1
200 0 m 1
 200 40 l 1
 360 40 l 1
 360 0 l 1
 200 0 l 1
EndSplineSet
EndChar

StartChar: slash
Encoding: 47 47 16
Width: 600
Flags: HW
LayerCount: 2
Back
Fore
SplineSet
440 720 m 1
 440 760 l 1
 600 760 l 1
 600 720 l 1
 440 720 l 1
440 680 m 1
 440 720 l 1
 560 720 l 1
 560 680 l 1
 440 680 l 1
400 640 m 1
 400 680 l 1
 560 680 l 1
 560 640 l 1
 400 640 l 1
400 600 m 1
 400 640 l 1
 520 640 l 1
 520 600 l 1
 400 600 l 1
360 560 m 1
 360 600 l 1
 520 600 l 1
 520 560 l 1
 360 560 l 1
360 520 m 1
 360 560 l 1
 480 560 l 1
 480 520 l 1
 360 520 l 1
320 480 m 1
 320 520 l 1
 480 520 l 1
 480 480 l 1
 320 480 l 1
320 440 m 1
 320 480 l 1
 440 480 l 1
 440 440 l 1
 320 440 l 1
280 400 m 1
 280 440 l 1
 440 440 l 1
 440 400 l 1
 280 400 l 1
280 360 m 1
 280 400 l 1
 400 400 l 1
 400 360 l 1
 280 360 l 1
240 320 m 1
 240 360 l 1
 400 360 l 1
 400 320 l 1
 240 320 l 1
240 280 m 1
 240 320 l 1
 360 320 l 1
 360 280 l 1
 240 280 l 1
200 240 m 1
 200 280 l 1
 360 280 l 1
 360 240 l 1
 200 240 l 1
200 200 m 1
 200 240 l 1
 320 240 l 1
 320 200 l 1
 200 200 l 1
160 160 m 1
 160 200 l 1
 320 200 l 1
 320 160 l 1
 160 160 l 1
160 120 m 1
 160 160 l 1
 280 160 l 1
 280 120 l 1
 160 120 l 1
120 80 m 1
 120 120 l 1
 280 120 l 1
 280 80 l 1
 120 80 l 1
120 40 m 1
 120 80 l 1
 240 80 l 1
 240 40 l 1
 120 40 l 1
80 0 m 1
 80 40 l 1
 200 40 l 1
 200 0 l 1
 80 0 l 1
80 -40 m 1
 80 0 l 1
 200 0 l 1
 200 -40 l 1
 80 -40 l 1
40 -80 m 1
 40 -40 l 1
 160 -40 l 1
 160 -80 l 1
 40 -80 l 1
40 -120 m 1
 40 -80 l 1
 160 -80 l 1
 160 -120 l 1
 40 -120 l 1
0 -160 m 1
 0 -120 l 1
 120 -120 l 1
 120 -160 l 1
 0 -160 l 1
EndSplineSet
EndChar

StartChar: zero
Encoding: 48 48 17
Width: 600
Flags: HW
LayerCount: 2
Back
Fore
SplineSet
200 680 m 1
 200 720 l 1
 400 720 l 1
 400 680 l 1
 200 680 l 1
120 640 m 1
 120 680 l 1
 480 680 l 1
 480 640 l 1
 120 640 l 1
120 600 m 1
 120 640 l 1
 480 640 l 1
 480 600 l 1
 120 600 l 1
80 560 m 1
 80 600 l 1
 240 600 l 1
 240 560 l 1
 80 560 l 1
360 560 m 1
 360 600 l 1
 520 600 l 1
 520 560 l 1
 360 560 l 1
80 520 m 1
 80 560 l 1
 240 560 l 1
 240 520 l 1
 80 520 l 1
360 520 m 1
 360 560 l 1
 520 560 l 1
 520 520 l 1
 360 520 l 1
40 480 m 1
 40 520 l 1
 200 520 l 1
 200 480 l 1
 40 480 l 1
400 480 m 1
 400 520 l 1
 560 520 l 1
 560 480 l 1
 400 480 l 1
40 440 m 1
 40 480 l 1
 200 480 l 1
 200 440 l 1
 40 440 l 1
400 440 m 1
 400 480 l 1
 560 480 l 1
 560 440 l 1
 400 440 l 1
40 400 m 1
 40 440 l 1
 200 440 l 1
 200 400 l 1
 40 400 l 1
400 400 m 1
 400 440 l 1
 560 440 l 1
 560 400 l 1
 400 400 l 1
40 360 m 1
 40 400 l 1
 200 400 l 1
 200 360 l 1
 40 360 l 1
400 360 m 1
 400 400 l 1
 560 400 l 1
 560 360 l 1
 400 360 l 1
40 320 m 1
 40 360 l 1
 200 360 l 1
 200 320 l 1
 40 320 l 1
400 320 m 1
 400 360 l 1
 560 360 l 1
 560 320 l 1
 400 320 l 1
40 280 m 1
 40 320 l 1
 200 320 l 1
 200 280 l 1
 40 280 l 1
400 280 m 1
 400 320 l 1
 560 320 l 1
 560 280 l 1
 400 280 l 1
40 240 m 1
 40 280 l 1
 200 280 l 1
 200 240 l 1
 40 240 l 1
400 240 m 1
 400 280 l 1
 560 280 l 1
 560 240 l 1
 400 240 l 1
40 200 m 1
 40 240 l 1
 200 240 l 1
 200 200 l 1
 40 200 l 1
400 200 m 1
 400 240 l 1
 560 240 l 1
 560 200 l 1
 400 200 l 1
80 160 m 1
 80 200 l 1
 240 200 l 1
 240 160 l 1
 80 160 l 1
360 160 m 1
 360 200 l 1
 520 200 l 1
 520 160 l 1
 360 160 l 1
80 120 m 1
 80 160 l 1
 240 160 l 1
 240 120 l 1
 80 120 l 1
360 120 m 1
 360 160 l 1
 520 160 l 1
 520 120 l 1
 360 120 l 1
120 80 m 1
 120 120 l 1
 480 120 l 1
 480 80 l 1
 120 80 l 1
120 40 m 1
 120 80 l 1
 480 80 l 1
 480 40 l 1
 120 40 l 1
200 0 m 1
 200 40 l 1
 400 40 l 1
 400 0 l 1
 200 0 l 1
EndSplineSet
EndChar

StartChar: one
Encoding: 49 49 18
Width: 600
Flags: HW
LayerCount: 2
Back
Fore
SplineSet
80 680 m 1
 80 720 l 1
 400 720 l 1
 400 680 l 1
 80 680 l 1
80 640 m 1
 80 680 l 1
 400 680 l 1
 400 640 l 1
 80 640 l 1
80 600 m 1
 80 640 l 1
 400 640 l 1
 400 600 l 1
 80 600 l 1
240 560 m 1
 240 600 l 1
 400 600 l 1
 400 560 l 1
 240 560 l 1
240 520 m 1
 240 560 l 1
 400 560 l 1
 400 520 l 1
 240 520 l 1
240 480 m 1
 240 520 l 1
 400 520 l 1
 400 480 l 1
 240 480 l 1
240 440 m 1
 240 480 l 1
 400 480 l 1
 400 440 l 1
 240 440 l 1
240 400 m 1
 240 440 l 1
 400 440 l 1
 400 400 l 1
 240 400 l 1
240 360 m 1
 240 400 l 1
 400 400 l 1
 400 360 l 1
 240 360 l 1
240 320 m 1
 240 360 l 1
 400 360 l 1
 400 320 l 1
 240 320 l 1
240 280 m 1
 240 320 l 1
 400 320 l 1
 400 280 l 1
 240 280 l 1
240 240 m 1
 240 280 l 1
 400 280 l 1
 400 240 l 1
 240 240 l 1
240 200 m 1
 240 240 l 1
 400 240 l 1
 400 200 l 1
 240 200 l 1
240 160 m 1
 240 200 l 1
 400 200 l 1
 400 160 l 1
 240 160 l 1
240 120 m 1
 240 160 l 1
 400 160 l 1
 400 120 l 1
 240 120 l 1
80 80 m 1
 80 120 l 1
 560 120 l 1
 560 80 l 1
 80 80 l 1
80 40 m 1
 80 80 l 1
 560 80 l 1
 560 40 l 1
 80 40 l 1
80 0 m 1
 80 40 l 1
 560 40 l 1
 560 0 l 1
 80 0 l 1
EndSplineSet
EndChar

StartChar: two
Encoding: 50 50 19
Width: 600
Flags: HW
LayerCount: 2
Back
Fore
SplineSet
160 680 m 1
 160 720 l 1
 400 720 l 1
 400 680 l 1
 160 680 l 1
120 640 m 1
 120 680 l 1
 480 680 l 1
 480 640 l 1
 120 640 l 1
120 600 m 1
 120 640 l 1
 480 640 l 1
 480 600 l 1
 120 600 l 1
120 560 m 1
 120 600 l 1
 160 600 l 1
 160 560 l 1
 120 560 l 1
320 560 m 1
 320 600 l 1
 520 600 l 1
 520 560 l 1
 320 560 l 1
360 520 m 1
 360 560 l 1
 520 560 l 1
 520 520 l 1
 360 520 l 1
360 480 m 1
 360 520 l 1
 520 520 l 1
 520 480 l 1
 360 480 l 1
360 440 m 1
 360 480 l 1
 520 480 l 1
 520 440 l 1
 360 440 l 1
320 400 m 1
 320 440 l 1
 480 440 l 1
 480 400 l 1
 320 400 l 1
280 360 m 1
 280 400 l 1
 480 400 l 1
 480 360 l 1
 280 360 l 1
280 320 m 1
 280 360 l 1
 440 360 l 1
 440 320 l 1
 280 320 l 1
240 280 m 1
 240 320 l 1
 400 320 l 1
 400 280 l 1
 240 280 l 1
200 240 m 1
 200 280 l 1
 360 280 l 1
 360 240 l 1
 200 240 l 1
160 200 m 1
 160 240 l 1
 320 240 l 1
 320 200 l 1
 160 200 l 1
120 160 m 1
 120 200 l 1
 280 200 l 1
 280 160 l 1
 120 160 l 1
80 120 m 1
 80 160 l 1
 240 160 l 1
 240 120 l 1
 80 120 l 1
80 80 m 1
 80 120 l 1
 520 120 l 1
 520 80 l 1
 80 80 l 1
80 40 m 1
 80 80 l 1
 520 80 l 1
 520 40 l 1
 80 40 l 1
80 0 m 1
 80 40 l 1
 520 40 l 1
 520 0 l 1
 80 0 l 1
EndSplineSet
EndChar

StartChar: three
Encoding: 51 51 20
Width: 600
Flags: HW
LayerCount: 2
Back
Fore
SplineSet
120 680 m 1
 120 720 l 1
 400 720 l 1
 400 680 l 1
 120 680 l 1
80 640 m 1
 80 680 l 1
 480 680 l 1
 480 640 l 1
 80 640 l 1
80 600 m 1
 80 640 l 1
 520 640 l 1
 520 600 l 1
 80 600 l 1
80 560 m 1
 80 600 l 1
 120 600 l 1
 120 560 l 1
 80 560 l 1
320 560 m 1
 320 600 l 1
 520 600 l 1
 520 560 l 1
 320 560 l 1
360 520 m 1
 360 560 l 1
 520 560 l 1
 520 520 l 1
 360 520 l 1
360 480 m 1
 360 520 l 1
 520 520 l 1
 520 480 l 1
 360 480 l 1
280 440 m 1
 280 480 l 1
 480 480 l 1
 480 440 l 1
 280 440 l 1
160 400 m 1
 160 440 l 1
 440 440 l 1
 440 400 l 1
 160 400 l 1
160 360 m 1
 160 400 l 1
 360 400 l 1
 360 360 l 1
 160 360 l 1
160 320 m 1
 160 360 l 1
 440 360 l 1
 440 320 l 1
 160 320 l 1
280 280 m 1
 280 320 l 1
 480 320 l 1
 480 280 l 1
 280 280 l 1
360 240 m 1
 360 280 l 1
 520 280 l 1
 520 240 l 1
 360 240 l 1
360 200 m 1
 360 240 l 1
 520 240 l 1
 520 200 l 1
 360 200 l 1
360 160 m 1
 360 200 l 1
 520 200 l 1
 520 160 l 1
 360 160 l 1
80 120 m 1
 80 160 l 1
 120 160 l 1
 120 120 l 1
 80 120 l 1
320 120 m 1
 320 160 l 1
 520 160 l 1
 520 120 l 1
 320 120 l 1
80 80 m 1
 80 120 l 1
 480 120 l 1
 480 80 l 1
 80 80 l 1
80 40 m 1
 80 80 l 1
 440 80 l 1
 440 40 l 1
 80 40 l 1
120 0 m 1
 120 40 l 1
 360 40 l 1
 360 0 l 1
 120 0 l 1
EndSplineSet
EndChar

StartChar: four
Encoding: 52 52 21
Width: 600
Flags: HW
LayerCount: 2
Back
Fore
SplineSet
280 680 m 1
 280 720 l 1
 480 720 l 1
 480 680 l 1
 280 680 l 1
280 640 m 1
 280 680 l 1
 480 680 l 1
 480 640 l 1
 280 640 l 1
240 600 m 1
 240 640 l 1
 480 640 l 1
 480 600 l 1
 240 600 l 1
200 560 m 1
 200 600 l 1
 480 600 l 1
 480 560 l 1
 200 560 l 1
200 520 m 1
 200 560 l 1
 480 560 l 1
 480 520 l 1
 200 520 l 1
160 480 m 1
 160 520 l 1
 480 520 l 1
 480 480 l 1
 160 480 l 1
120 440 m 1
 120 480 l 1
 280 480 l 1
 280 440 l 1
 120 440 l 1
320 440 m 1
 320 480 l 1
 480 480 l 1
 480 440 l 1
 320 440 l 1
120 400 m 1
 120 440 l 1
 240 440 l 1
 240 400 l 1
 120 400 l 1
320 400 m 1
 320 440 l 1
 480 440 l 1
 480 400 l 1
 320 400 l 1
80 360 m 1
 80 400 l 1
 240 400 l 1
 240 360 l 1
 80 360 l 1
320 360 m 1
 320 400 l 1
 480 400 l 1
 480 360 l 1
 320 360 l 1
40 320 m 1
 40 360 l 1
 200 360 l 1
 200 320 l 1
 40 320 l 1
320 320 m 1
 320 360 l 1
 480 360 l 1
 480 320 l 1
 320 320 l 1
40 280 m 1
 40 320 l 1
 560 320 l 1
 560 280 l 1
 40 280 l 1
40 240 m 1
 40 280 l 1
 560 280 l 1
 560 240 l 1
 40 240 l 1
40 200 m 1
 40 240 l 1
 560 240 l 1
 560 200 l 1
 40 200 l 1
40 160 m 1
 40 200 l 1
 560 200 l 1
 560 160 l 1
 40 160 l 1
320 120 m 1
 320 160 l 1
 480 160 l 1
 480 120 l 1
 320 120 l 1
320 80 m 1
 320 120 l 1
 480 120 l 1
 480 80 l 1
 320 80 l 1
320 40 m 1
 320 80 l 1
 480 80 l 1
 480 40 l 1
 320 40 l 1
320 0 m 1
 320 40 l 1
 480 40 l 1
 480 0 l 1
 320 0 l 1
EndSplineSet
EndChar

StartChar: five
Encoding: 53 53 22
Width: 600
Flags: HW
LayerCount: 2
Back
Fore
SplineSet
120 680 m 1
 120 720 l 1
 520 720 l 1
 520 680 l 1
 120 680 l 1
120 640 m 1
 120 680 l 1
 520 680 l 1
 520 640 l 1
 120 640 l 1
120 600 m 1
 120 640 l 1
 520 640 l 1
 520 600 l 1
 120 600 l 1
120 560 m 1
 120 600 l 1
 240 600 l 1
 240 560 l 1
 120 560 l 1
120 520 m 1
 120 560 l 1
 240 560 l 1
 240 520 l 1
 120 520 l 1
120 480 m 1
 120 520 l 1
 240 520 l 1
 240 480 l 1
 120 480 l 1
120 440 m 1
 120 480 l 1
 320 480 l 1
 320 440 l 1
 120 440 l 1
120 400 m 1
 120 440 l 1
 440 440 l 1
 440 400 l 1
 120 400 l 1
120 360 m 1
 120 400 l 1
 480 400 l 1
 480 360 l 1
 120 360 l 1
280 320 m 1
 280 360 l 1
 480 360 l 1
 480 320 l 1
 280 320 l 1
320 280 m 1
 320 320 l 1
 520 320 l 1
 520 280 l 1
 320 280 l 1
360 240 m 1
 360 280 l 1
 520 280 l 1
 520 240 l 1
 360 240 l 1
360 200 m 1
 360 240 l 1
 520 240 l 1
 520 200 l 1
 360 200 l 1
360 160 m 1
 360 200 l 1
 520 200 l 1
 520 160 l 1
 360 160 l 1
120 120 m 1
 120 160 l 1
 160 160 l 1
 160 120 l 1
 120 120 l 1
320 120 m 1
 320 160 l 1
 480 160 l 1
 480 120 l 1
 320 120 l 1
120 80 m 1
 120 120 l 1
 480 120 l 1
 480 80 l 1
 120 80 l 1
120 40 m 1
 120 80 l 1
 440 80 l 1
 440 40 l 1
 120 40 l 1
160 0 m 1
 160 40 l 1
 360 40 l 1
 360 0 l 1
 160 0 l 1
EndSplineSet
EndChar

StartChar: six
Encoding: 54 54 23
Width: 600
Flags: HW
LayerCount: 2
Back
Fore
SplineSet
280 680 m 1
 280 720 l 1
 520 720 l 1
 520 680 l 1
 280 680 l 1
200 640 m 1
 200 680 l 1
 520 680 l 1
 520 640 l 1
 200 640 l 1
120 600 m 1
 120 640 l 1
 520 640 l 1
 520 600 l 1
 120 600 l 1
120 560 m 1
 120 600 l 1
 320 600 l 1
 320 560 l 1
 120 560 l 1
480 560 m 1
 480 600 l 1
 520 600 l 1
 520 560 l 1
 480 560 l 1
80 520 m 1
 80 560 l 1
 240 560 l 1
 240 520 l 1
 80 520 l 1
80 480 m 1
 80 520 l 1
 240 520 l 1
 240 480 l 1
 80 480 l 1
40 440 m 1
 40 480 l 1
 200 480 l 1
 200 440 l 1
 40 440 l 1
40 400 m 1
 40 440 l 1
 200 440 l 1
 200 400 l 1
 40 400 l 1
280 400 m 1
 280 440 l 1
 440 440 l 1
 440 400 l 1
 280 400 l 1
40 360 m 1
 40 400 l 1
 520 400 l 1
 520 360 l 1
 40 360 l 1
40 320 m 1
 40 360 l 1
 520 360 l 1
 520 320 l 1
 40 320 l 1
40 280 m 1
 40 320 l 1
 240 320 l 1
 240 280 l 1
 40 280 l 1
360 280 m 1
 360 320 l 1
 560 320 l 1
 560 280 l 1
 360 280 l 1
40 240 m 1
 40 280 l 1
 200 280 l 1
 200 240 l 1
 40 240 l 1
400 240 m 1
 400 280 l 1
 560 280 l 1
 560 240 l 1
 400 240 l 1
40 200 m 1
 40 240 l 1
 200 240 l 1
 200 200 l 1
 40 200 l 1
400 200 m 1
 400 240 l 1
 560 240 l 1
 560 200 l 1
 400 200 l 1
80 160 m 1
 80 200 l 1
 200 200 l 1
 200 160 l 1
 80 160 l 1
400 160 m 1
 400 200 l 1
 560 200 l 1
 560 160 l 1
 400 160 l 1
80 120 m 1
 80 160 l 1
 240 160 l 1
 240 120 l 1
 80 120 l 1
360 120 m 1
 360 160 l 1
 560 160 l 1
 560 120 l 1
 360 120 l 1
120 80 m 1
 120 120 l 1
 520 120 l 1
 520 80 l 1
 120 80 l 1
160 40 m 1
 160 80 l 1
 480 80 l 1
 480 40 l 1
 160 40 l 1
200 0 m 1
 200 40 l 1
 440 40 l 1
 440 0 l 1
 200 0 l 1
EndSplineSet
EndChar

StartChar: seven
Encoding: 55 55 24
Width: 600
Flags: HW
LayerCount: 2
Back
Fore
SplineSet
120 680 m 1
 120 720 l 1
 560 720 l 1
 560 680 l 1
 120 680 l 1
120 640 m 1
 120 680 l 1
 560 680 l 1
 560 640 l 1
 120 640 l 1
120 600 m 1
 120 640 l 1
 560 640 l 1
 560 600 l 1
 120 600 l 1
400 560 m 1
 400 600 l 1
 560 600 l 1
 560 560 l 1
 400 560 l 1
400 520 m 1
 400 560 l 1
 560 560 l 1
 560 520 l 1
 400 520 l 1
360 480 m 1
 360 520 l 1
 520 520 l 1
 520 480 l 1
 360 480 l 1
320 440 m 1
 320 480 l 1
 480 480 l 1
 480 440 l 1
 320 440 l 1
320 400 m 1
 320 440 l 1
 480 440 l 1
 480 400 l 1
 320 400 l 1
280 360 m 1
 280 400 l 1
 440 400 l 1
 440 360 l 1
 280 360 l 1
280 320 m 1
 280 360 l 1
 400 360 l 1
 400 320 l 1
 280 320 l 1
240 280 m 1
 240 320 l 1
 400 320 l 1
 400 280 l 1
 240 280 l 1
200 240 m 1
 200 280 l 1
 360 280 l 1
 360 240 l 1
 200 240 l 1
200 200 m 1
 200 240 l 1
 360 240 l 1
 360 200 l 1
 200 200 l 1
200 160 m 1
 200 200 l 1
 360 200 l 1
 360 160 l 1
 200 160 l 1
160 120 m 1
 160 160 l 1
 320 160 l 1
 320 120 l 1
 160 120 l 1
160 80 m 1
 160 120 l 1
 320 120 l 1
 320 80 l 1
 160 80 l 1
160 40 m 1
 160 80 l 1
 320 80 l 1
 320 40 l 1
 160 40 l 1
160 0 m 1
 160 40 l 1
 320 40 l 1
 320 0 l 1
 160 0 l 1
EndSplineSet
EndChar

StartChar: eight
Encoding: 56 56 25
Width: 600
Flags: HW
LayerCount: 2
Back
Fore
SplineSet
240 680 m 1
 240 720 l 1
 440 720 l 1
 440 680 l 1
 240 680 l 1
160 640 m 1
 160 680 l 1
 480 680 l 1
 480 640 l 1
 160 640 l 1
160 600 m 1
 160 640 l 1
 520 640 l 1
 520 600 l 1
 160 600 l 1
120 560 m 1
 120 600 l 1
 280 600 l 1
 280 560 l 1
 120 560 l 1
360 560 m 1
 360 600 l 1
 520 600 l 1
 520 560 l 1
 360 560 l 1
120 520 m 1
 120 560 l 1
 280 560 l 1
 280 520 l 1
 120 520 l 1
360 520 m 1
 360 560 l 1
 520 560 l 1
 520 520 l 1
 360 520 l 1
120 480 m 1
 120 520 l 1
 320 520 l 1
 320 480 l 1
 120 480 l 1
360 480 m 1
 360 520 l 1
 520 520 l 1
 520 480 l 1
 360 480 l 1
120 440 m 1
 120 480 l 1
 480 480 l 1
 480 440 l 1
 120 440 l 1
160 400 m 1
 160 440 l 1
 440 440 l 1
 440 400 l 1
 160 400 l 1
200 360 m 1
 200 400 l 1
 440 400 l 1
 440 360 l 1
 200 360 l 1
160 320 m 1
 160 360 l 1
 480 360 l 1
 480 320 l 1
 160 320 l 1
120 280 m 1
 120 320 l 1
 240 320 l 1
 240 280 l 1
 120 280 l 1
320 280 m 1
 320 320 l 1
 520 320 l 1
 520 280 l 1
 320 280 l 1
80 240 m 1
 80 280 l 1
 240 280 l 1
 240 240 l 1
 80 240 l 1
360 240 m 1
 360 280 l 1
 560 280 l 1
 560 240 l 1
 360 240 l 1
80 200 m 1
 80 240 l 1
 240 240 l 1
 240 200 l 1
 80 200 l 1
400 200 m 1
 400 240 l 1
 560 240 l 1
 560 200 l 1
 400 200 l 1
80 160 m 1
 80 200 l 1
 240 200 l 1
 240 160 l 1
 80 160 l 1
400 160 m 1
 400 200 l 1
 560 200 l 1
 560 160 l 1
 400 160 l 1
80 120 m 1
 80 160 l 1
 280 160 l 1
 280 120 l 1
 80 120 l 1
360 120 m 1
 360 160 l 1
 560 160 l 1
 560 120 l 1
 360 120 l 1
120 80 m 1
 120 120 l 1
 520 120 l 1
 520 80 l 1
 120 80 l 1
120 40 m 1
 120 80 l 1
 480 80 l 1
 480 40 l 1
 120 40 l 1
200 0 m 1
 200 40 l 1
 440 40 l 1
 440 0 l 1
 200 0 l 1
EndSplineSet
EndChar

StartChar: nine
Encoding: 57 57 26
Width: 600
Flags: HW
LayerCount: 2
Back
Fore
SplineSet
160 680 m 1
 160 720 l 1
 400 720 l 1
 400 680 l 1
 160 680 l 1
120 640 m 1
 120 680 l 1
 440 680 l 1
 440 640 l 1
 120 640 l 1
80 600 m 1
 80 640 l 1
 480 640 l 1
 480 600 l 1
 80 600 l 1
40 560 m 1
 40 600 l 1
 240 600 l 1
 240 560 l 1
 40 560 l 1
360 560 m 1
 360 600 l 1
 520 600 l 1
 520 560 l 1
 360 560 l 1
40 520 m 1
 40 560 l 1
 200 560 l 1
 200 520 l 1
 40 520 l 1
400 520 m 1
 400 560 l 1
 520 560 l 1
 520 520 l 1
 400 520 l 1
40 480 m 1
 40 520 l 1
 200 520 l 1
 200 480 l 1
 40 480 l 1
400 480 m 1
 400 520 l 1
 560 520 l 1
 560 480 l 1
 400 480 l 1
40 440 m 1
 40 480 l 1
 200 480 l 1
 200 440 l 1
 40 440 l 1
400 440 m 1
 400 480 l 1
 560 480 l 1
 560 440 l 1
 400 440 l 1
40 400 m 1
 40 440 l 1
 240 440 l 1
 240 400 l 1
 40 400 l 1
360 400 m 1
 360 440 l 1
 560 440 l 1
 560 400 l 1
 360 400 l 1
80 360 m 1
 80 400 l 1
 560 400 l 1
 560 360 l 1
 80 360 l 1
80 320 m 1
 80 360 l 1
 560 360 l 1
 560 320 l 1
 80 320 l 1
160 280 m 1
 160 320 l 1
 320 320 l 1
 320 280 l 1
 160 280 l 1
400 280 m 1
 400 320 l 1
 560 320 l 1
 560 280 l 1
 400 280 l 1
400 240 m 1
 400 280 l 1
 560 280 l 1
 560 240 l 1
 400 240 l 1
360 200 m 1
 360 240 l 1
 520 240 l 1
 520 200 l 1
 360 200 l 1
360 160 m 1
 360 200 l 1
 520 200 l 1
 520 160 l 1
 360 160 l 1
80 120 m 1
 80 160 l 1
 120 160 l 1
 120 120 l 1
 80 120 l 1
280 120 m 1
 280 160 l 1
 480 160 l 1
 480 120 l 1
 280 120 l 1
80 80 m 1
 80 120 l 1
 480 120 l 1
 480 80 l 1
 80 80 l 1
80 40 m 1
 80 80 l 1
 400 80 l 1
 400 40 l 1
 80 40 l 1
80 0 m 1
 80 40 l 1
 320 40 l 1
 320 0 l 1
 80 0 l 1
EndSplineSet
EndChar

StartChar: colon
Encoding: 58 58 27
Width: 600
Flags: HW
LayerCount: 2
Back
Fore
SplineSet
200 480 m 1
 200 520 l 1
 360 520 l 1
 360 480 l 1
 200 480 l 1
200 440 m 1
 200 480 l 1
 360 480 l 1
 360 440 l 1
 200 440 l 1
200 400 m 1
 200 440 l 1
 360 440 l 1
 360 400 l 1
 200 400 l 1
200 360 m 1
 200 400 l 1
 360 400 l 1
 360 360 l 1
 200 360 l 1
200 120 m 1
 200 160 l 1
 360 160 l 1
 360 120 l 1
 200 120 l 1
200 80 m 1
 200 120 l 1
 360 120 l 1
 360 80 l 1
 200 80 l 1
200 40 m 1
 200 80 l 1
 360 80 l 1
 360 40 l 1
 200 40 l 1
200 0 m 1
 200 40 l 1
 360 40 l 1
 360 0 l 1
 200 0 l 1
EndSplineSet
EndChar

StartChar: semicolon
Encoding: 59 59 28
Width: 600
Flags: HW
LayerCount: 2
Back
Fore
SplineSet
200 480 m 1
 200 520 l 1
 360 520 l 1
 360 480 l 1
 200 480 l 1
200 440 m 1
 200 480 l 1
 360 480 l 1
 360 440 l 1
 200 440 l 1
200 400 m 1
 200 440 l 1
 360 440 l 1
 360 400 l 1
 200 400 l 1
200 360 m 1
 200 400 l 1
 360 400 l 1
 360 360 l 1
 200 360 l 1
200 120 m 1
 200 160 l 1
 360 160 l 1
 360 120 l 1
 200 120 l 1
200 80 m 1
 200 120 l 1
 360 120 l 1
 360 80 l 1
 200 80 l 1
200 40 m 1
 200 80 l 1
 360 80 l 1
 360 40 l 1
 200 40 l 1
200 0 m 1
 200 40 l 1
 360 40 l 1
 360 0 l 1
 200 0 l 1
240 -40 m 1
 240 0 l 1
 360 0 l 1
 360 -40 l 1
 240 -40 l 1
240 -80 m 1
 240 -40 l 1
 360 -40 l 1
 360 -80 l 1
 240 -80 l 1
200 -120 m 1
 200 -80 l 1
 320 -80 l 1
 320 -120 l 1
 200 -120 l 1
200 -160 m 1
 200 -120 l 1
 280 -120 l 1
 280 -160 l 1
 200 -160 l 1
EndSplineSet
EndChar

StartChar: less
Encoding: 60 60 29
Width: 600
Flags: HW
LayerCount: 2
Back
Fore
SplineSet
520 480 m 1
 520 520 l 1
 560 520 l 1
 560 480 l 1
 520 480 l 1
440 440 m 1
 440 480 l 1
 560 480 l 1
 560 440 l 1
 440 440 l 1
360 400 m 1
 360 440 l 1
 560 440 l 1
 560 400 l 1
 360 400 l 1
280 360 m 1
 280 400 l 1
 520 400 l 1
 520 360 l 1
 280 360 l 1
200 320 m 1
 200 360 l 1
 440 360 l 1
 440 320 l 1
 200 320 l 1
120 280 m 1
 120 320 l 1
 360 320 l 1
 360 280 l 1
 120 280 l 1
40 240 m 1
 40 280 l 1
 280 280 l 1
 280 240 l 1
 40 240 l 1
120 200 m 1
 120 240 l 1
 360 240 l 1
 360 200 l 1
 120 200 l 1
200 160 m 1
 200 200 l 1
 440 200 l 1
 440 160 l 1
 200 160 l 1
280 120 m 1
 280 160 l 1
 520 160 l 1
 520 120 l 1
 280 120 l 1
360 80 m 1
 360 120 l 1
 560 120 l 1
 560 80 l 1
 360 80 l 1
440 40 m 1
 440 80 l 1
 560 80 l 1
 560 40 l 1
 440 40 l 1
520 0 m 1
 520 40 l 1
 560 40 l 1
 560 0 l 1
 520 0 l 1
EndSplineSet
EndChar

StartChar: equal
Encoding: 61 61 30
Width: 600
Flags: HW
LayerCount: 2
Back
Fore
SplineSet
40 400 m 1
 40 440 l 1
 560 440 l 1
 560 400 l 1
 40 400 l 1
40 360 m 1
 40 400 l 1
 560 400 l 1
 560 360 l 1
 40 360 l 1
40 320 m 1
 40 360 l 1
 560 360 l 1
 560 320 l 1
 40 320 l 1
40 160 m 1
 40 200 l 1
 560 200 l 1
 560 160 l 1
 40 160 l 1
40 120 m 1
 40 160 l 1
 560 160 l 1
 560 120 l 1
 40 120 l 1
40 80 m 1
 40 120 l 1
 560 120 l 1
 560 80 l 1
 40 80 l 1
EndSplineSet
EndChar

StartChar: greater
Encoding: 62 62 31
Width: 600
Flags: HW
LayerCount: 2
Back
Fore
SplineSet
40 480 m 1
 40 520 l 1
 80 520 l 1
 80 480 l 1
 40 480 l 1
40 440 m 1
 40 480 l 1
 160 480 l 1
 160 440 l 1
 40 440 l 1
40 400 m 1
 40 440 l 1
 240 440 l 1
 240 400 l 1
 40 400 l 1
80 360 m 1
 80 400 l 1
 320 400 l 1
 320 360 l 1
 80 360 l 1
160 320 m 1
 160 360 l 1
 400 360 l 1
 400 320 l 1
 160 320 l 1
240 280 m 1
 240 320 l 1
 480 320 l 1
 480 280 l 1
 240 280 l 1
320 240 m 1
 320 280 l 1
 560 280 l 1
 560 240 l 1
 320 240 l 1
240 200 m 1
 240 240 l 1
 480 240 l 1
 480 200 l 1
 240 200 l 1
160 160 m 1
 160 200 l 1
 400 200 l 1
 400 160 l 1
 160 160 l 1
80 120 m 1
 80 160 l 1
 320 160 l 1
 320 120 l 1
 80 120 l 1
40 80 m 1
 40 120 l 1
 240 120 l 1
 240 80 l 1
 40 80 l 1
40 40 m 1
 40 80 l 1
 160 80 l 1
 160 40 l 1
 40 40 l 1
40 0 m 1
 40 40 l 1
 80 40 l 1
 80 0 l 1
 40 0 l 1
EndSplineSet
EndChar

StartChar: question
Encoding: 63 63 32
Width: 600
Flags: HW
LayerCount: 2
Back
Fore
SplineSet
160 680 m 1
 160 720 l 1
 440 720 l 1
 440 680 l 1
 160 680 l 1
80 640 m 1
 80 680 l 1
 520 680 l 1
 520 640 l 1
 80 640 l 1
80 600 m 1
 80 640 l 1
 560 640 l 1
 560 600 l 1
 80 600 l 1
80 560 m 1
 80 600 l 1
 160 600 l 1
 160 560 l 1
 80 560 l 1
360 560 m 1
 360 600 l 1
 560 600 l 1
 560 560 l 1
 360 560 l 1
80 520 m 1
 80 560 l 1
 160 560 l 1
 160 520 l 1
 80 520 l 1
400 520 m 1
 400 560 l 1
 560 560 l 1
 560 520 l 1
 400 520 l 1
80 480 m 1
 80 520 l 1
 160 520 l 1
 160 480 l 1
 80 480 l 1
400 480 m 1
 400 520 l 1
 560 520 l 1
 560 480 l 1
 400 480 l 1
360 440 m 1
 360 480 l 1
 520 480 l 1
 520 440 l 1
 360 440 l 1
320 400 m 1
 320 440 l 1
 520 440 l 1
 520 400 l 1
 320 400 l 1
240 360 m 1
 240 400 l 1
 480 400 l 1
 480 360 l 1
 240 360 l 1
200 320 m 1
 200 360 l 1
 400 360 l 1
 400 320 l 1
 200 320 l 1
160 280 m 1
 160 320 l 1
 360 320 l 1
 360 280 l 1
 160 280 l 1
160 240 m 1
 160 280 l 1
 320 280 l 1
 320 240 l 1
 160 240 l 1
160 200 m 1
 160 240 l 1
 320 240 l 1
 320 200 l 1
 160 200 l 1
160 80 m 1
 160 120 l 1
 320 120 l 1
 320 80 l 1
 160 80 l 1
160 40 m 1
 160 80 l 1
 320 80 l 1
 320 40 l 1
 160 40 l 1
160 0 m 1
 160 40 l 1
 320 40 l 1
 320 0 l 1
 160 0 l 1
EndSplineSet
EndChar

StartChar: at
Encoding: 64 64 33
Width: 600
Flags: HW
LayerCount: 2
Back
Fore
SplineSet
240 680 m 1
 240 720 l 1
 480 720 l 1
 480 680 l 1
 240 680 l 1
160 640 m 1
 160 680 l 1
 520 680 l 1
 520 640 l 1
 160 640 l 1
120 600 m 1
 120 640 l 1
 560 640 l 1
 560 600 l 1
 120 600 l 1
120 560 m 1
 120 600 l 1
 280 600 l 1
 280 560 l 1
 120 560 l 1
400 560 m 1
 400 600 l 1
 560 600 l 1
 560 560 l 1
 400 560 l 1
80 520 m 1
 80 560 l 1
 240 560 l 1
 240 520 l 1
 80 520 l 1
280 520 m 1
 280 560 l 1
 400 560 l 1
 400 520 l 1
 280 520 l 1
440 520 m 1
 440 560 l 1
 560 560 l 1
 560 520 l 1
 440 520 l 1
80 480 m 1
 80 520 l 1
 200 520 l 1
 200 480 l 1
 80 480 l 1
240 480 m 1
 240 520 l 1
 560 520 l 1
 560 480 l 1
 240 480 l 1
40 440 m 1
 40 480 l 1
 160 480 l 1
 160 440 l 1
 40 440 l 1
240 440 m 1
 240 480 l 1
 560 480 l 1
 560 440 l 1
 240 440 l 1
40 400 m 1
 40 440 l 1
 160 440 l 1
 160 400 l 1
 40 400 l 1
200 400 m 1
 200 440 l 1
 360 440 l 1
 360 400 l 1
 200 400 l 1
440 400 m 1
 440 440 l 1
 560 440 l 1
 560 400 l 1
 440 400 l 1
40 360 m 1
 40 400 l 1
 160 400 l 1
 160 360 l 1
 40 360 l 1
200 360 m 1
 200 400 l 1
 320 400 l 1
 320 360 l 1
 200 360 l 1
440 360 m 1
 440 400 l 1
 560 400 l 1
 560 360 l 1
 440 360 l 1
40 320 m 1
 40 360 l 1
 160 360 l 1
 160 320 l 1
 40 320 l 1
200 320 m 1
 200 360 l 1
 320 360 l 1
 320 320 l 1
 200 320 l 1
400 320 m 1
 400 360 l 1
 560 360 l 1
 560 320 l 1
 400 320 l 1
40 280 m 1
 40 320 l 1
 160 320 l 1
 160 280 l 1
 40 280 l 1
200 280 m 1
 200 320 l 1
 600 320 l 1
 600 280 l 1
 200 280 l 1
40 240 m 1
 40 280 l 1
 160 280 l 1
 160 240 l 1
 40 240 l 1
200 240 m 1
 200 280 l 1
 600 280 l 1
 600 240 l 1
 200 240 l 1
40 200 m 1
 40 240 l 1
 200 240 l 1
 200 200 l 1
 40 200 l 1
240 200 m 1
 240 240 l 1
 400 240 l 1
 400 200 l 1
 240 200 l 1
440 200 m 1
 440 240 l 1
 600 240 l 1
 600 200 l 1
 440 200 l 1
80 160 m 1
 80 200 l 1
 200 200 l 1
 200 160 l 1
 80 160 l 1
80 120 m 1
 80 160 l 1
 240 160 l 1
 240 120 l 1
 80 120 l 1
400 120 m 1
 400 160 l 1
 440 160 l 1
 440 120 l 1
 400 120 l 1
120 80 m 1
 120 120 l 1
 440 120 l 1
 440 80 l 1
 120 80 l 1
120 40 m 1
 120 80 l 1
 440 80 l 1
 440 40 l 1
 120 40 l 1
200 0 m 1
 200 40 l 1
 400 40 l 1
 400 0 l 1
 200 0 l 1
EndSplineSet
EndChar

StartChar: A
Encoding: 65 65 34
Width: 600
Flags: HW
LayerCount: 2
Back
Fore
SplineSet
240 680 m 1
 240 720 l 1
 400 720 l 1
 400 680 l 1
 240 680 l 1
200 640 m 1
 200 680 l 1
 400 680 l 1
 400 640 l 1
 200 640 l 1
200 600 m 1
 200 640 l 1
 440 640 l 1
 440 600 l 1
 200 600 l 1
200 560 m 1
 200 600 l 1
 440 600 l 1
 440 560 l 1
 200 560 l 1
160 520 m 1
 160 560 l 1
 440 560 l 1
 440 520 l 1
 160 520 l 1
160 480 m 1
 160 520 l 1
 480 520 l 1
 480 480 l 1
 160 480 l 1
160 440 m 1
 160 480 l 1
 280 480 l 1
 280 440 l 1
 160 440 l 1
320 440 m 1
 320 480 l 1
 480 480 l 1
 480 440 l 1
 320 440 l 1
120 400 m 1
 120 440 l 1
 240 440 l 1
 240 400 l 1
 120 400 l 1
320 400 m 1
 320 440 l 1
 480 440 l 1
 480 400 l 1
 320 400 l 1
120 360 m 1
 120 400 l 1
 240 400 l 1
 240 360 l 1
 120 360 l 1
320 360 m 1
 320 400 l 1
 480 400 l 1
 480 360 l 1
 320 360 l 1
120 320 m 1
 120 360 l 1
 240 360 l 1
 240 320 l 1
 120 320 l 1
360 320 m 1
 360 360 l 1
 520 360 l 1
 520 320 l 1
 360 320 l 1
80 280 m 1
 80 320 l 1
 200 320 l 1
 200 280 l 1
 80 280 l 1
360 280 m 1
 360 320 l 1
 520 320 l 1
 520 280 l 1
 360 280 l 1
80 240 m 1
 80 280 l 1
 520 280 l 1
 520 240 l 1
 80 240 l 1
80 200 m 1
 80 240 l 1
 560 240 l 1
 560 200 l 1
 80 200 l 1
40 160 m 1
 40 200 l 1
 560 200 l 1
 560 160 l 1
 40 160 l 1
40 120 m 1
 40 160 l 1
 160 160 l 1
 160 120 l 1
 40 120 l 1
400 120 m 1
 400 160 l 1
 560 160 l 1
 560 120 l 1
 400 120 l 1
40 80 m 1
 40 120 l 1
 160 120 l 1
 160 80 l 1
 40 80 l 1
400 80 m 1
 400 120 l 1
 560 120 l 1
 560 80 l 1
 400 80 l 1
0 40 m 1
 0 80 l 1
 120 80 l 1
 120 40 l 1
 0 40 l 1
440 40 m 1
 440 80 l 1
 600 80 l 1
 600 40 l 1
 440 40 l 1
0 0 m 1
 0 40 l 1
 120 40 l 1
 120 0 l 1
 0 0 l 1
440 0 m 1
 440 40 l 1
 600 40 l 1
 600 0 l 1
 440 0 l 1
EndSplineSet
EndChar

StartChar: B
Encoding: 66 66 35
Width: 600
Flags: HW
LayerCount: 2
Back
Fore
SplineSet
40 680 m 1
 40 720 l 1
 440 720 l 1
 440 680 l 1
 40 680 l 1
40 640 m 1
 40 680 l 1
 480 680 l 1
 480 640 l 1
 40 640 l 1
40 600 m 1
 40 640 l 1
 520 640 l 1
 520 600 l 1
 40 600 l 1
40 560 m 1
 40 600 l 1
 200 600 l 1
 200 560 l 1
 40 560 l 1
360 560 m 1
 360 600 l 1
 520 600 l 1
 520 560 l 1
 360 560 l 1
40 520 m 1
 40 560 l 1
 200 560 l 1
 200 520 l 1
 40 520 l 1
360 520 m 1
 360 560 l 1
 520 560 l 1
 520 520 l 1
 360 520 l 1
40 480 m 1
 40 520 l 1
 200 520 l 1
 200 480 l 1
 40 480 l 1
360 480 m 1
 360 520 l 1
 520 520 l 1
 520 480 l 1
 360 480 l 1
40 440 m 1
 40 480 l 1
 200 480 l 1
 200 440 l 1
 40 440 l 1
320 440 m 1
 320 480 l 1
 480 480 l 1
 480 440 l 1
 320 440 l 1
40 400 m 1
 40 440 l 1
 440 440 l 1
 440 400 l 1
 40 400 l 1
40 360 m 1
 40 400 l 1
 400 400 l 1
 400 360 l 1
 40 360 l 1
40 320 m 1
 40 360 l 1
 480 360 l 1
 480 320 l 1
 40 320 l 1
40 280 m 1
 40 320 l 1
 200 320 l 1
 200 280 l 1
 40 280 l 1
320 280 m 1
 320 320 l 1
 520 320 l 1
 520 280 l 1
 320 280 l 1
40 240 m 1
 40 280 l 1
 200 280 l 1
 200 240 l 1
 40 240 l 1
400 240 m 1
 400 280 l 1
 560 280 l 1
 560 240 l 1
 400 240 l 1
40 200 m 1
 40 240 l 1
 200 240 l 1
 200 200 l 1
 40 200 l 1
400 200 m 1
 400 240 l 1
 560 240 l 1
 560 200 l 1
 400 200 l 1
40 160 m 1
 40 200 l 1
 200 200 l 1
 200 160 l 1
 40 160 l 1
400 160 m 1
 400 200 l 1
 560 200 l 1
 560 160 l 1
 400 160 l 1
40 120 m 1
 40 160 l 1
 200 160 l 1
 200 120 l 1
 40 120 l 1
360 120 m 1
 360 160 l 1
 560 160 l 1
 560 120 l 1
 360 120 l 1
40 80 m 1
 40 120 l 1
 520 120 l 1
 520 80 l 1
 40 80 l 1
40 40 m 1
 40 80 l 1
 520 80 l 1
 520 40 l 1
 40 40 l 1
40 0 m 1
 40 40 l 1
 440 40 l 1
 440 0 l 1
 40 0 l 1
EndSplineSet
EndChar

StartChar: C
Encoding: 67 67 36
Width: 600
Flags: HW
LayerCount: 2
Back
Fore
SplineSet
240 680 m 1
 240 720 l 1
 560 720 l 1
 560 680 l 1
 240 680 l 1
120 640 m 1
 120 680 l 1
 560 680 l 1
 560 640 l 1
 120 640 l 1
80 600 m 1
 80 640 l 1
 560 640 l 1
 560 600 l 1
 80 600 l 1
40 560 m 1
 40 600 l 1
 280 600 l 1
 280 560 l 1
 40 560 l 1
480 560 m 1
 480 600 l 1
 560 600 l 1
 560 560 l 1
 480 560 l 1
40 520 m 1
 40 560 l 1
 240 560 l 1
 240 520 l 1
 40 520 l 1
40 480 m 1
 40 520 l 1
 200 520 l 1
 200 480 l 1
 40 480 l 1
0 440 m 1
 0 480 l 1
 160 480 l 1
 160 440 l 1
 0 440 l 1
0 400 m 1
 0 440 l 1
 160 440 l 1
 160 400 l 1
 0 400 l 1
0 360 m 1
 0 400 l 1
 160 400 l 1
 160 360 l 1
 0 360 l 1
0 320 m 1
 0 360 l 1
 160 360 l 1
 160 320 l 1
 0 320 l 1
0 280 m 1
 0 320 l 1
 160 320 l 1
 160 280 l 1
 0 280 l 1
0 240 m 1
 0 280 l 1
 160 280 l 1
 160 240 l 1
 0 240 l 1
40 200 m 1
 40 240 l 1
 200 240 l 1
 200 200 l 1
 40 200 l 1
40 160 m 1
 40 200 l 1
 240 200 l 1
 240 160 l 1
 40 160 l 1
40 120 m 1
 40 160 l 1
 280 160 l 1
 280 120 l 1
 40 120 l 1
520 120 m 1
 520 160 l 1
 560 160 l 1
 560 120 l 1
 520 120 l 1
80 80 m 1
 80 120 l 1
 560 120 l 1
 560 80 l 1
 80 80 l 1
120 40 m 1
 120 80 l 1
 560 80 l 1
 560 40 l 1
 120 40 l 1
240 0 m 1
 240 40 l 1
 480 40 l 1
 480 0 l 1
 240 0 l 1
EndSplineSet
EndChar

StartChar: D
Encoding: 68 68 37
Width: 600
Flags: HW
LayerCount: 2
Back
Fore
SplineSet
40 680 m 1
 40 720 l 1
 400 720 l 1
 400 680 l 1
 40 680 l 1
40 640 m 1
 40 680 l 1
 480 680 l 1
 480 640 l 1
 40 640 l 1
40 600 m 1
 40 640 l 1
 520 640 l 1
 520 600 l 1
 40 600 l 1
40 560 m 1
 40 600 l 1
 200 600 l 1
 200 560 l 1
 40 560 l 1
320 560 m 1
 320 600 l 1
 520 600 l 1
 520 560 l 1
 320 560 l 1
40 520 m 1
 40 560 l 1
 200 560 l 1
 200 520 l 1
 40 520 l 1
360 520 m 1
 360 560 l 1
 560 560 l 1
 560 520 l 1
 360 520 l 1
40 480 m 1
 40 520 l 1
 200 520 l 1
 200 480 l 1
 40 480 l 1
400 480 m 1
 400 520 l 1
 560 520 l 1
 560 480 l 1
 400 480 l 1
40 440 m 1
 40 480 l 1
 200 480 l 1
 200 440 l 1
 40 440 l 1
400 440 m 1
 400 480 l 1
 560 480 l 1
 560 440 l 1
 400 440 l 1
40 400 m 1
 40 440 l 1
 200 440 l 1
 200 400 l 1
 40 400 l 1
400 400 m 1
 400 440 l 1
 560 440 l 1
 560 400 l 1
 400 400 l 1
40 360 m 1
 40 400 l 1
 200 400 l 1
 200 360 l 1
 40 360 l 1
400 360 m 1
 400 400 l 1
 560 400 l 1
 560 360 l 1
 400 360 l 1
40 320 m 1
 40 360 l 1
 200 360 l 1
 200 320 l 1
 40 320 l 1
400 320 m 1
 400 360 l 1
 560 360 l 1
 560 320 l 1
 400 320 l 1
40 280 m 1
 40 320 l 1
 200 320 l 1
 200 280 l 1
 40 280 l 1
400 280 m 1
 400 320 l 1
 560 320 l 1
 560 280 l 1
 400 280 l 1
40 240 m 1
 40 280 l 1
 200 280 l 1
 200 240 l 1
 40 240 l 1
400 240 m 1
 400 280 l 1
 560 280 l 1
 560 240 l 1
 400 240 l 1
40 200 m 1
 40 240 l 1
 200 240 l 1
 200 200 l 1
 40 200 l 1
400 200 m 1
 400 240 l 1
 560 240 l 1
 560 200 l 1
 400 200 l 1
40 160 m 1
 40 200 l 1
 200 200 l 1
 200 160 l 1
 40 160 l 1
360 160 m 1
 360 200 l 1
 520 200 l 1
 520 160 l 1
 360 160 l 1
40 120 m 1
 40 160 l 1
 200 160 l 1
 200 120 l 1
 40 120 l 1
320 120 m 1
 320 160 l 1
 520 160 l 1
 520 120 l 1
 320 120 l 1
40 80 m 1
 40 120 l 1
 480 120 l 1
 480 80 l 1
 40 80 l 1
40 40 m 1
 40 80 l 1
 440 80 l 1
 440 40 l 1
 40 40 l 1
40 0 m 1
 40 40 l 1
 360 40 l 1
 360 0 l 1
 40 0 l 1
EndSplineSet
EndChar

StartChar: E
Encoding: 69 69 38
Width: 600
Flags: HW
LayerCount: 2
Back
Fore
SplineSet
80 680 m 1
 80 720 l 1
 520 720 l 1
 520 680 l 1
 80 680 l 1
80 640 m 1
 80 680 l 1
 520 680 l 1
 520 640 l 1
 80 640 l 1
80 600 m 1
 80 640 l 1
 520 640 l 1
 520 600 l 1
 80 600 l 1
80 560 m 1
 80 600 l 1
 240 600 l 1
 240 560 l 1
 80 560 l 1
80 520 m 1
 80 560 l 1
 240 560 l 1
 240 520 l 1
 80 520 l 1
80 480 m 1
 80 520 l 1
 240 520 l 1
 240 480 l 1
 80 480 l 1
80 440 m 1
 80 480 l 1
 240 480 l 1
 240 440 l 1
 80 440 l 1
80 400 m 1
 80 440 l 1
 480 440 l 1
 480 400 l 1
 80 400 l 1
80 360 m 1
 80 400 l 1
 480 400 l 1
 480 360 l 1
 80 360 l 1
80 320 m 1
 80 360 l 1
 480 360 l 1
 480 320 l 1
 80 320 l 1
80 280 m 1
 80 320 l 1
 240 320 l 1
 240 280 l 1
 80 280 l 1
80 240 m 1
 80 280 l 1
 240 280 l 1
 240 240 l 1
 80 240 l 1
80 200 m 1
 80 240 l 1
 240 240 l 1
 240 200 l 1
 80 200 l 1
80 160 m 1
 80 200 l 1
 240 200 l 1
 240 160 l 1
 80 160 l 1
80 120 m 1
 80 160 l 1
 240 160 l 1
 240 120 l 1
 80 120 l 1
80 80 m 1
 80 120 l 1
 560 120 l 1
 560 80 l 1
 80 80 l 1
80 40 m 1
 80 80 l 1
 560 80 l 1
 560 40 l 1
 80 40 l 1
80 0 m 1
 80 40 l 1
 560 40 l 1
 560 0 l 1
 80 0 l 1
EndSplineSet
EndChar

StartChar: F
Encoding: 70 70 39
Width: 600
Flags: HW
LayerCount: 2
Back
Fore
SplineSet
80 680 m 1
 80 720 l 1
 600 720 l 1
 600 680 l 1
 80 680 l 1
80 640 m 1
 80 680 l 1
 600 680 l 1
 600 640 l 1
 80 640 l 1
80 600 m 1
 80 640 l 1
 600 640 l 1
 600 600 l 1
 80 600 l 1
80 560 m 1
 80 600 l 1
 240 600 l 1
 240 560 l 1
 80 560 l 1
80 520 m 1
 80 560 l 1
 240 560 l 1
 240 520 l 1
 80 520 l 1
80 480 m 1
 80 520 l 1
 240 520 l 1
 240 480 l 1
 80 480 l 1
80 440 m 1
 80 480 l 1
 240 480 l 1
 240 440 l 1
 80 440 l 1
80 400 m 1
 80 440 l 1
 240 440 l 1
 240 400 l 1
 80 400 l 1
80 360 m 1
 80 400 l 1
 560 400 l 1
 560 360 l 1
 80 360 l 1
80 320 m 1
 80 360 l 1
 520 360 l 1
 520 320 l 1
 80 320 l 1
80 280 m 1
 80 320 l 1
 520 320 l 1
 520 280 l 1
 80 280 l 1
80 240 m 1
 80 280 l 1
 240 280 l 1
 240 240 l 1
 80 240 l 1
80 200 m 1
 80 240 l 1
 240 240 l 1
 240 200 l 1
 80 200 l 1
80 160 m 1
 80 200 l 1
 240 200 l 1
 240 160 l 1
 80 160 l 1
80 120 m 1
 80 160 l 1
 240 160 l 1
 240 120 l 1
 80 120 l 1
80 80 m 1
 80 120 l 1
 240 120 l 1
 240 80 l 1
 80 80 l 1
80 40 m 1
 80 80 l 1
 240 80 l 1
 240 40 l 1
 80 40 l 1
80 0 m 1
 80 40 l 1
 240 40 l 1
 240 0 l 1
 80 0 l 1
EndSplineSet
EndChar

StartChar: G
Encoding: 71 71 40
Width: 600
Flags: HW
LayerCount: 2
Back
Fore
SplineSet
240 680 m 1
 240 720 l 1
 520 720 l 1
 520 680 l 1
 240 680 l 1
120 640 m 1
 120 680 l 1
 560 680 l 1
 560 640 l 1
 120 640 l 1
80 600 m 1
 80 640 l 1
 560 640 l 1
 560 600 l 1
 80 600 l 1
40 560 m 1
 40 600 l 1
 280 600 l 1
 280 560 l 1
 40 560 l 1
520 560 m 1
 520 600 l 1
 560 600 l 1
 560 560 l 1
 520 560 l 1
40 520 m 1
 40 560 l 1
 240 560 l 1
 240 520 l 1
 40 520 l 1
40 480 m 1
 40 520 l 1
 200 520 l 1
 200 480 l 1
 40 480 l 1
0 440 m 1
 0 480 l 1
 160 480 l 1
 160 440 l 1
 0 440 l 1
0 400 m 1
 0 440 l 1
 160 440 l 1
 160 400 l 1
 0 400 l 1
0 360 m 1
 0 400 l 1
 160 400 l 1
 160 360 l 1
 0 360 l 1
0 320 m 1
 0 360 l 1
 160 360 l 1
 160 320 l 1
 0 320 l 1
400 320 m 1
 400 360 l 1
 560 360 l 1
 560 320 l 1
 400 320 l 1
0 280 m 1
 0 320 l 1
 160 320 l 1
 160 280 l 1
 0 280 l 1
400 280 m 1
 400 320 l 1
 560 320 l 1
 560 280 l 1
 400 280 l 1
0 240 m 1
 0 280 l 1
 160 280 l 1
 160 240 l 1
 0 240 l 1
400 240 m 1
 400 280 l 1
 560 280 l 1
 560 240 l 1
 400 240 l 1
0 200 m 1
 0 240 l 1
 200 240 l 1
 200 200 l 1
 0 200 l 1
400 200 m 1
 400 240 l 1
 560 240 l 1
 560 200 l 1
 400 200 l 1
40 160 m 1
 40 200 l 1
 200 200 l 1
 200 160 l 1
 40 160 l 1
400 160 m 1
 400 200 l 1
 560 200 l 1
 560 160 l 1
 400 160 l 1
40 120 m 1
 40 160 l 1
 280 160 l 1
 280 120 l 1
 40 120 l 1
400 120 m 1
 400 160 l 1
 560 160 l 1
 560 120 l 1
 400 120 l 1
80 80 m 1
 80 120 l 1
 560 120 l 1
 560 80 l 1
 80 80 l 1
120 40 m 1
 120 80 l 1
 560 80 l 1
 560 40 l 1
 120 40 l 1
200 0 m 1
 200 40 l 1
 480 40 l 1
 480 0 l 1
 200 0 l 1
EndSplineSet
EndChar

StartChar: H
Encoding: 72 72 41
Width: 600
Flags: HW
LayerCount: 2
Back
Fore
SplineSet
40 680 m 1
 40 720 l 1
 200 720 l 1
 200 680 l 1
 40 680 l 1
400 680 m 1
 400 720 l 1
 560 720 l 1
 560 680 l 1
 400 680 l 1
40 640 m 1
 40 680 l 1
 200 680 l 1
 200 640 l 1
 40 640 l 1
400 640 m 1
 400 680 l 1
 560 680 l 1
 560 640 l 1
 400 640 l 1
40 600 m 1
 40 640 l 1
 200 640 l 1
 200 600 l 1
 40 600 l 1
400 600 m 1
 400 640 l 1
 560 640 l 1
 560 600 l 1
 400 600 l 1
40 560 m 1
 40 600 l 1
 200 600 l 1
 200 560 l 1
 40 560 l 1
400 560 m 1
 400 600 l 1
 560 600 l 1
 560 560 l 1
 400 560 l 1
40 520 m 1
 40 560 l 1
 200 560 l 1
 200 520 l 1
 40 520 l 1
400 520 m 1
 400 560 l 1
 560 560 l 1
 560 520 l 1
 400 520 l 1
40 480 m 1
 40 520 l 1
 200 520 l 1
 200 480 l 1
 40 480 l 1
400 480 m 1
 400 520 l 1
 560 520 l 1
 560 480 l 1
 400 480 l 1
40 440 m 1
 40 480 l 1
 200 480 l 1
 200 440 l 1
 40 440 l 1
400 440 m 1
 400 480 l 1
 560 480 l 1
 560 440 l 1
 400 440 l 1
40 400 m 1
 40 440 l 1
 560 440 l 1
 560 400 l 1
 40 400 l 1
40 360 m 1
 40 400 l 1
 560 400 l 1
 560 360 l 1
 40 360 l 1
40 320 m 1
 40 360 l 1
 560 360 l 1
 560 320 l 1
 40 320 l 1
40 280 m 1
 40 320 l 1
 200 320 l 1
 200 280 l 1
 40 280 l 1
400 280 m 1
 400 320 l 1
 560 320 l 1
 560 280 l 1
 400 280 l 1
40 240 m 1
 40 280 l 1
 200 280 l 1
 200 240 l 1
 40 240 l 1
400 240 m 1
 400 280 l 1
 560 280 l 1
 560 240 l 1
 400 240 l 1
40 200 m 1
 40 240 l 1
 200 240 l 1
 200 200 l 1
 40 200 l 1
400 200 m 1
 400 240 l 1
 560 240 l 1
 560 200 l 1
 400 200 l 1
40 160 m 1
 40 200 l 1
 200 200 l 1
 200 160 l 1
 40 160 l 1
400 160 m 1
 400 200 l 1
 560 200 l 1
 560 160 l 1
 400 160 l 1
40 120 m 1
 40 160 l 1
 200 160 l 1
 200 120 l 1
 40 120 l 1
400 120 m 1
 400 160 l 1
 560 160 l 1
 560 120 l 1
 400 120 l 1
40 80 m 1
 40 120 l 1
 200 120 l 1
 200 80 l 1
 40 80 l 1
400 80 m 1
 400 120 l 1
 560 120 l 1
 560 80 l 1
 400 80 l 1
40 40 m 1
 40 80 l 1
 200 80 l 1
 200 40 l 1
 40 40 l 1
400 40 m 1
 400 80 l 1
 560 80 l 1
 560 40 l 1
 400 40 l 1
40 0 m 1
 40 40 l 1
 200 40 l 1
 200 0 l 1
 40 0 l 1
400 0 m 1
 400 40 l 1
 560 40 l 1
 560 0 l 1
 400 0 l 1
EndSplineSet
EndChar

StartChar: I
Encoding: 73 73 42
Width: 600
Flags: HW
LayerCount: 2
Back
Fore
SplineSet
40 680 m 1
 40 720 l 1
 520 720 l 1
 520 680 l 1
 40 680 l 1
40 640 m 1
 40 680 l 1
 520 680 l 1
 520 640 l 1
 40 640 l 1
40 600 m 1
 40 640 l 1
 520 640 l 1
 520 600 l 1
 40 600 l 1
200 560 m 1
 200 600 l 1
 360 600 l 1
 360 560 l 1
 200 560 l 1
200 520 m 1
 200 560 l 1
 360 560 l 1
 360 520 l 1
 200 520 l 1
200 480 m 1
 200 520 l 1
 360 520 l 1
 360 480 l 1
 200 480 l 1
200 440 m 1
 200 480 l 1
 360 480 l 1
 360 440 l 1
 200 440 l 1
200 400 m 1
 200 440 l 1
 360 440 l 1
 360 400 l 1
 200 400 l 1
200 360 m 1
 200 400 l 1
 360 400 l 1
 360 360 l 1
 200 360 l 1
200 320 m 1
 200 360 l 1
 360 360 l 1
 360 320 l 1
 200 320 l 1
200 280 m 1
 200 320 l 1
 360 320 l 1
 360 280 l 1
 200 280 l 1
200 240 m 1
 200 280 l 1
 360 280 l 1
 360 240 l 1
 200 240 l 1
200 200 m 1
 200 240 l 1
 360 240 l 1
 360 200 l 1
 200 200 l 1
200 160 m 1
 200 200 l 1
 360 200 l 1
 360 160 l 1
 200 160 l 1
200 120 m 1
 200 160 l 1
 360 160 l 1
 360 120 l 1
 200 120 l 1
40 80 m 1
 40 120 l 1
 520 120 l 1
 520 80 l 1
 40 80 l 1
40 40 m 1
 40 80 l 1
 520 80 l 1
 520 40 l 1
 40 40 l 1
40 0 m 1
 40 40 l 1
 520 40 l 1
 520 0 l 1
 40 0 l 1
EndSplineSet
EndChar

StartChar: J
Encoding: 74 74 43
Width: 600
Flags: HW
LayerCount: 2
Back
Fore
SplineSet
120 680 m 1
 120 720 l 1
 520 720 l 1
 520 680 l 1
 120 680 l 1
120 640 m 1
 120 680 l 1
 520 680 l 1
 520 640 l 1
 120 640 l 1
120 600 m 1
 120 640 l 1
 520 640 l 1
 520 600 l 1
 120 600 l 1
360 560 m 1
 360 600 l 1
 520 600 l 1
 520 560 l 1
 360 560 l 1
360 520 m 1
 360 560 l 1
 520 560 l 1
 520 520 l 1
 360 520 l 1
360 480 m 1
 360 520 l 1
 520 520 l 1
 520 480 l 1
 360 480 l 1
360 440 m 1
 360 480 l 1
 520 480 l 1
 520 440 l 1
 360 440 l 1
360 400 m 1
 360 440 l 1
 520 440 l 1
 520 400 l 1
 360 400 l 1
360 360 m 1
 360 400 l 1
 520 400 l 1
 520 360 l 1
 360 360 l 1
360 320 m 1
 360 360 l 1
 520 360 l 1
 520 320 l 1
 360 320 l 1
360 280 m 1
 360 320 l 1
 520 320 l 1
 520 280 l 1
 360 280 l 1
360 240 m 1
 360 280 l 1
 520 280 l 1
 520 240 l 1
 360 240 l 1
360 200 m 1
 360 240 l 1
 520 240 l 1
 520 200 l 1
 360 200 l 1
360 160 m 1
 360 200 l 1
 520 200 l 1
 520 160 l 1
 360 160 l 1
80 120 m 1
 80 160 l 1
 120 160 l 1
 120 120 l 1
 80 120 l 1
320 120 m 1
 320 160 l 1
 520 160 l 1
 520 120 l 1
 320 120 l 1
80 80 m 1
 80 120 l 1
 480 120 l 1
 480 80 l 1
 80 80 l 1
80 40 m 1
 80 80 l 1
 440 80 l 1
 440 40 l 1
 80 40 l 1
80 0 m 1
 80 40 l 1
 400 40 l 1
 400 0 l 1
 80 0 l 1
EndSplineSet
EndChar

StartChar: K
Encoding: 75 75 44
Width: 600
Flags: HW
LayerCount: 2
Back
Fore
SplineSet
40 680 m 1
 40 720 l 1
 200 720 l 1
 200 680 l 1
 40 680 l 1
440 680 m 1
 440 720 l 1
 600 720 l 1
 600 680 l 1
 440 680 l 1
40 640 m 1
 40 680 l 1
 200 680 l 1
 200 640 l 1
 40 640 l 1
400 640 m 1
 400 680 l 1
 560 680 l 1
 560 640 l 1
 400 640 l 1
40 600 m 1
 40 640 l 1
 200 640 l 1
 200 600 l 1
 40 600 l 1
360 600 m 1
 360 640 l 1
 520 640 l 1
 520 600 l 1
 360 600 l 1
40 560 m 1
 40 600 l 1
 200 600 l 1
 200 560 l 1
 40 560 l 1
360 560 m 1
 360 600 l 1
 480 600 l 1
 480 560 l 1
 360 560 l 1
40 520 m 1
 40 560 l 1
 200 560 l 1
 200 520 l 1
 40 520 l 1
320 520 m 1
 320 560 l 1
 480 560 l 1
 480 520 l 1
 320 520 l 1
40 480 m 1
 40 520 l 1
 200 520 l 1
 200 480 l 1
 40 480 l 1
280 480 m 1
 280 520 l 1
 440 520 l 1
 440 480 l 1
 280 480 l 1
40 440 m 1
 40 480 l 1
 200 480 l 1
 200 440 l 1
 40 440 l 1
240 440 m 1
 240 480 l 1
 400 480 l 1
 400 440 l 1
 240 440 l 1
40 400 m 1
 40 440 l 1
 360 440 l 1
 360 400 l 1
 40 400 l 1
40 360 m 1
 40 400 l 1
 360 400 l 1
 360 360 l 1
 40 360 l 1
40 320 m 1
 40 360 l 1
 400 360 l 1
 400 320 l 1
 40 320 l 1
40 280 m 1
 40 320 l 1
 400 320 l 1
 400 280 l 1
 40 280 l 1
40 240 m 1
 40 280 l 1
 200 280 l 1
 200 240 l 1
 40 240 l 1
240 240 m 1
 240 280 l 1
 440 280 l 1
 440 240 l 1
 240 240 l 1
40 200 m 1
 40 240 l 1
 200 240 l 1
 200 200 l 1
 40 200 l 1
280 200 m 1
 280 240 l 1
 480 240 l 1
 480 200 l 1
 280 200 l 1
40 160 m 1
 40 200 l 1
 200 200 l 1
 200 160 l 1
 40 160 l 1
320 160 m 1
 320 200 l 1
 480 200 l 1
 480 160 l 1
 320 160 l 1
40 120 m 1
 40 160 l 1
 200 160 l 1
 200 120 l 1
 40 120 l 1
320 120 m 1
 320 160 l 1
 520 160 l 1
 520 120 l 1
 320 120 l 1
40 80 m 1
 40 120 l 1
 200 120 l 1
 200 80 l 1
 40 80 l 1
360 80 m 1
 360 120 l 1
 560 120 l 1
 560 80 l 1
 360 80 l 1
40 40 m 1
 40 80 l 1
 200 80 l 1
 200 40 l 1
 40 40 l 1
360 40 m 1
 360 80 l 1
 560 80 l 1
 560 40 l 1
 360 40 l 1
40 0 m 1
 40 40 l 1
 200 40 l 1
 200 0 l 1
 40 0 l 1
400 0 m 1
 400 40 l 1
 600 40 l 1
 600 0 l 1
 400 0 l 1
EndSplineSet
EndChar

StartChar: L
Encoding: 76 76 45
Width: 600
Flags: HW
LayerCount: 2
Back
Fore
SplineSet
120 680 m 1
 120 720 l 1
 280 720 l 1
 280 680 l 1
 120 680 l 1
120 640 m 1
 120 680 l 1
 280 680 l 1
 280 640 l 1
 120 640 l 1
120 600 m 1
 120 640 l 1
 280 640 l 1
 280 600 l 1
 120 600 l 1
120 560 m 1
 120 600 l 1
 280 600 l 1
 280 560 l 1
 120 560 l 1
120 520 m 1
 120 560 l 1
 280 560 l 1
 280 520 l 1
 120 520 l 1
120 480 m 1
 120 520 l 1
 280 520 l 1
 280 480 l 1
 120 480 l 1
120 440 m 1
 120 480 l 1
 280 480 l 1
 280 440 l 1
 120 440 l 1
120 400 m 1
 120 440 l 1
 280 440 l 1
 280 400 l 1
 120 400 l 1
120 360 m 1
 120 400 l 1
 280 400 l 1
 280 360 l 1
 120 360 l 1
120 320 m 1
 120 360 l 1
 280 360 l 1
 280 320 l 1
 120 320 l 1
120 280 m 1
 120 320 l 1
 280 320 l 1
 280 280 l 1
 120 280 l 1
120 240 m 1
 120 280 l 1
 280 280 l 1
 280 240 l 1
 120 240 l 1
120 200 m 1
 120 240 l 1
 280 240 l 1
 280 200 l 1
 120 200 l 1
120 160 m 1
 120 200 l 1
 280 200 l 1
 280 160 l 1
 120 160 l 1
120 120 m 1
 120 160 l 1
 280 160 l 1
 280 120 l 1
 120 120 l 1
120 80 m 1
 120 120 l 1
 600 120 l 1
 600 80 l 1
 120 80 l 1
120 40 m 1
 120 80 l 1
 600 80 l 1
 600 40 l 1
 120 40 l 1
120 0 m 1
 120 40 l 1
 600 40 l 1
 600 0 l 1
 120 0 l 1
EndSplineSet
EndChar

StartChar: M
Encoding: 77 77 46
Width: 600
Flags: HW
LayerCount: 2
Back
Fore
SplineSet
40 680 m 1
 40 720 l 1
 240 720 l 1
 240 680 l 1
 40 680 l 1
400 680 m 1
 400 720 l 1
 600 720 l 1
 600 680 l 1
 400 680 l 1
40 640 m 1
 40 680 l 1
 240 680 l 1
 240 640 l 1
 40 640 l 1
400 640 m 1
 400 680 l 1
 600 680 l 1
 600 640 l 1
 400 640 l 1
40 600 m 1
 40 640 l 1
 240 640 l 1
 240 600 l 1
 40 600 l 1
360 600 m 1
 360 640 l 1
 600 640 l 1
 600 600 l 1
 360 600 l 1
40 560 m 1
 40 600 l 1
 240 600 l 1
 240 560 l 1
 40 560 l 1
360 560 m 1
 360 600 l 1
 600 600 l 1
 600 560 l 1
 360 560 l 1
40 520 m 1
 40 560 l 1
 280 560 l 1
 280 520 l 1
 40 520 l 1
360 520 m 1
 360 560 l 1
 600 560 l 1
 600 520 l 1
 360 520 l 1
40 480 m 1
 40 520 l 1
 280 520 l 1
 280 480 l 1
 40 480 l 1
360 480 m 1
 360 520 l 1
 600 520 l 1
 600 480 l 1
 360 480 l 1
40 440 m 1
 40 480 l 1
 280 480 l 1
 280 440 l 1
 40 440 l 1
320 440 m 1
 320 480 l 1
 600 480 l 1
 600 440 l 1
 320 440 l 1
40 400 m 1
 40 440 l 1
 280 440 l 1
 280 400 l 1
 40 400 l 1
320 400 m 1
 320 440 l 1
 600 440 l 1
 600 400 l 1
 320 400 l 1
40 360 m 1
 40 400 l 1
 160 400 l 1
 160 360 l 1
 40 360 l 1
200 360 m 1
 200 400 l 1
 600 400 l 1
 600 360 l 1
 200 360 l 1
40 320 m 1
 40 360 l 1
 160 360 l 1
 160 320 l 1
 40 320 l 1
200 320 m 1
 200 360 l 1
 600 360 l 1
 600 320 l 1
 200 320 l 1
40 280 m 1
 40 320 l 1
 160 320 l 1
 160 280 l 1
 40 280 l 1
200 280 m 1
 200 320 l 1
 400 320 l 1
 400 280 l 1
 200 280 l 1
440 280 m 1
 440 320 l 1
 600 320 l 1
 600 280 l 1
 440 280 l 1
40 240 m 1
 40 280 l 1
 160 280 l 1
 160 240 l 1
 40 240 l 1
200 240 m 1
 200 280 l 1
 400 280 l 1
 400 240 l 1
 200 240 l 1
440 240 m 1
 440 280 l 1
 600 280 l 1
 600 240 l 1
 440 240 l 1
40 200 m 1
 40 240 l 1
 160 240 l 1
 160 200 l 1
 40 200 l 1
200 200 m 1
 200 240 l 1
 400 240 l 1
 400 200 l 1
 200 200 l 1
440 200 m 1
 440 240 l 1
 600 240 l 1
 600 200 l 1
 440 200 l 1
40 160 m 1
 40 200 l 1
 160 200 l 1
 160 160 l 1
 40 160 l 1
200 160 m 1
 200 200 l 1
 400 200 l 1
 400 160 l 1
 200 160 l 1
440 160 m 1
 440 200 l 1
 600 200 l 1
 600 160 l 1
 440 160 l 1
40 120 m 1
 40 160 l 1
 160 160 l 1
 160 120 l 1
 40 120 l 1
240 120 m 1
 240 160 l 1
 400 160 l 1
 400 120 l 1
 240 120 l 1
440 120 m 1
 440 160 l 1
 600 160 l 1
 600 120 l 1
 440 120 l 1
40 80 m 1
 40 120 l 1
 160 120 l 1
 160 80 l 1
 40 80 l 1
240 80 m 1
 240 120 l 1
 400 120 l 1
 400 80 l 1
 240 80 l 1
440 80 m 1
 440 120 l 1
 600 120 l 1
 600 80 l 1
 440 80 l 1
40 40 m 1
 40 80 l 1
 160 80 l 1
 160 40 l 1
 40 40 l 1
240 40 m 1
 240 80 l 1
 360 80 l 1
 360 40 l 1
 240 40 l 1
440 40 m 1
 440 80 l 1
 600 80 l 1
 600 40 l 1
 440 40 l 1
40 0 m 1
 40 40 l 1
 160 40 l 1
 160 0 l 1
 40 0 l 1
440 0 m 1
 440 40 l 1
 600 40 l 1
 600 0 l 1
 440 0 l 1
EndSplineSet
EndChar

StartChar: N
Encoding: 78 78 47
Width: 600
Flags: HW
LayerCount: 2
Back
Fore
SplineSet
40 680 m 1
 40 720 l 1
 200 720 l 1
 200 680 l 1
 40 680 l 1
400 680 m 1
 400 720 l 1
 520 720 l 1
 520 680 l 1
 400 680 l 1
40 640 m 1
 40 680 l 1
 240 680 l 1
 240 640 l 1
 40 640 l 1
400 640 m 1
 400 680 l 1
 520 680 l 1
 520 640 l 1
 400 640 l 1
40 600 m 1
 40 640 l 1
 240 640 l 1
 240 600 l 1
 40 600 l 1
400 600 m 1
 400 640 l 1
 520 640 l 1
 520 600 l 1
 400 600 l 1
40 560 m 1
 40 600 l 1
 280 600 l 1
 280 560 l 1
 40 560 l 1
400 560 m 1
 400 600 l 1
 520 600 l 1
 520 560 l 1
 400 560 l 1
40 520 m 1
 40 560 l 1
 280 560 l 1
 280 520 l 1
 40 520 l 1
400 520 m 1
 400 560 l 1
 520 560 l 1
 520 520 l 1
 400 520 l 1
40 480 m 1
 40 520 l 1
 320 520 l 1
 320 480 l 1
 40 480 l 1
400 480 m 1
 400 520 l 1
 520 520 l 1
 520 480 l 1
 400 480 l 1
40 440 m 1
 40 480 l 1
 320 480 l 1
 320 440 l 1
 40 440 l 1
400 440 m 1
 400 480 l 1
 520 480 l 1
 520 440 l 1
 400 440 l 1
40 400 m 1
 40 440 l 1
 360 440 l 1
 360 400 l 1
 40 400 l 1
400 400 m 1
 400 440 l 1
 520 440 l 1
 520 400 l 1
 400 400 l 1
40 360 m 1
 40 400 l 1
 160 400 l 1
 160 360 l 1
 40 360 l 1
200 360 m 1
 200 400 l 1
 360 400 l 1
 360 360 l 1
 200 360 l 1
400 360 m 1
 400 400 l 1
 520 400 l 1
 520 360 l 1
 400 360 l 1
40 320 m 1
 40 360 l 1
 160 360 l 1
 160 320 l 1
 40 320 l 1
200 320 m 1
 200 360 l 1
 520 360 l 1
 520 320 l 1
 200 320 l 1
40 280 m 1
 40 320 l 1
 160 320 l 1
 160 280 l 1
 40 280 l 1
240 280 m 1
 240 320 l 1
 520 320 l 1
 520 280 l 1
 240 280 l 1
40 240 m 1
 40 280 l 1
 160 280 l 1
 160 240 l 1
 40 240 l 1
240 240 m 1
 240 280 l 1
 520 280 l 1
 520 240 l 1
 240 240 l 1
40 200 m 1
 40 240 l 1
 160 240 l 1
 160 200 l 1
 40 200 l 1
280 200 m 1
 280 240 l 1
 520 240 l 1
 520 200 l 1
 280 200 l 1
40 160 m 1
 40 200 l 1
 160 200 l 1
 160 160 l 1
 40 160 l 1
280 160 m 1
 280 200 l 1
 520 200 l 1
 520 160 l 1
 280 160 l 1
40 120 m 1
 40 160 l 1
 160 160 l 1
 160 120 l 1
 40 120 l 1
320 120 m 1
 320 160 l 1
 520 160 l 1
 520 120 l 1
 320 120 l 1
40 80 m 1
 40 120 l 1
 160 120 l 1
 160 80 l 1
 40 80 l 1
320 80 m 1
 320 120 l 1
 520 120 l 1
 520 80 l 1
 320 80 l 1
40 40 m 1
 40 80 l 1
 160 80 l 1
 160 40 l 1
 40 40 l 1
320 40 m 1
 320 80 l 1
 520 80 l 1
 520 40 l 1
 320 40 l 1
40 0 m 1
 40 40 l 1
 160 40 l 1
 160 0 l 1
 40 0 l 1
360 0 m 1
 360 40 l 1
 520 40 l 1
 520 0 l 1
 360 0 l 1
EndSplineSet
EndChar

StartChar: O
Encoding: 79 79 48
Width: 600
Flags: HW
LayerCount: 2
Back
Fore
SplineSet
200 680 m 1
 200 720 l 1
 440 720 l 1
 440 680 l 1
 200 680 l 1
160 640 m 1
 160 680 l 1
 480 680 l 1
 480 640 l 1
 160 640 l 1
120 600 m 1
 120 640 l 1
 520 640 l 1
 520 600 l 1
 120 600 l 1
80 560 m 1
 80 600 l 1
 240 600 l 1
 240 560 l 1
 80 560 l 1
400 560 m 1
 400 600 l 1
 560 600 l 1
 560 560 l 1
 400 560 l 1
80 520 m 1
 80 560 l 1
 240 560 l 1
 240 520 l 1
 80 520 l 1
400 520 m 1
 400 560 l 1
 560 560 l 1
 560 520 l 1
 400 520 l 1
40 480 m 1
 40 520 l 1
 200 520 l 1
 200 480 l 1
 40 480 l 1
440 480 m 1
 440 520 l 1
 600 520 l 1
 600 480 l 1
 440 480 l 1
40 440 m 1
 40 480 l 1
 200 480 l 1
 200 440 l 1
 40 440 l 1
440 440 m 1
 440 480 l 1
 600 480 l 1
 600 440 l 1
 440 440 l 1
40 400 m 1
 40 440 l 1
 200 440 l 1
 200 400 l 1
 40 400 l 1
440 400 m 1
 440 440 l 1
 600 440 l 1
 600 400 l 1
 440 400 l 1
40 360 m 1
 40 400 l 1
 200 400 l 1
 200 360 l 1
 40 360 l 1
440 360 m 1
 440 400 l 1
 600 400 l 1
 600 360 l 1
 440 360 l 1
40 320 m 1
 40 360 l 1
 200 360 l 1
 200 320 l 1
 40 320 l 1
440 320 m 1
 440 360 l 1
 600 360 l 1
 600 320 l 1
 440 320 l 1
40 280 m 1
 40 320 l 1
 200 320 l 1
 200 280 l 1
 40 280 l 1
440 280 m 1
 440 320 l 1
 600 320 l 1
 600 280 l 1
 440 280 l 1
40 240 m 1
 40 280 l 1
 200 280 l 1
 200 240 l 1
 40 240 l 1
440 240 m 1
 440 280 l 1
 600 280 l 1
 600 240 l 1
 440 240 l 1
40 200 m 1
 40 240 l 1
 200 240 l 1
 200 200 l 1
 40 200 l 1
440 200 m 1
 440 240 l 1
 600 240 l 1
 600 200 l 1
 440 200 l 1
80 160 m 1
 80 200 l 1
 240 200 l 1
 240 160 l 1
 80 160 l 1
400 160 m 1
 400 200 l 1
 560 200 l 1
 560 160 l 1
 400 160 l 1
80 120 m 1
 80 160 l 1
 240 160 l 1
 240 120 l 1
 80 120 l 1
400 120 m 1
 400 160 l 1
 560 160 l 1
 560 120 l 1
 400 120 l 1
120 80 m 1
 120 120 l 1
 520 120 l 1
 520 80 l 1
 120 80 l 1
160 40 m 1
 160 80 l 1
 480 80 l 1
 480 40 l 1
 160 40 l 1
200 0 m 1
 200 40 l 1
 440 40 l 1
 440 0 l 1
 200 0 l 1
EndSplineSet
EndChar

StartChar: P
Encoding: 80 80 49
Width: 600
Flags: HW
LayerCount: 2
Back
Fore
SplineSet
80 680 m 1
 80 720 l 1
 480 720 l 1
 480 680 l 1
 80 680 l 1
80 640 m 1
 80 680 l 1
 560 680 l 1
 560 640 l 1
 80 640 l 1
80 600 m 1
 80 640 l 1
 560 640 l 1
 560 600 l 1
 80 600 l 1
80 560 m 1
 80 600 l 1
 240 600 l 1
 240 560 l 1
 80 560 l 1
400 560 m 1
 400 600 l 1
 600 600 l 1
 600 560 l 1
 400 560 l 1
80 520 m 1
 80 560 l 1
 240 560 l 1
 240 520 l 1
 80 520 l 1
440 520 m 1
 440 560 l 1
 600 560 l 1
 600 520 l 1
 440 520 l 1
80 480 m 1
 80 520 l 1
 240 520 l 1
 240 480 l 1
 80 480 l 1
440 480 m 1
 440 520 l 1
 600 520 l 1
 600 480 l 1
 440 480 l 1
80 440 m 1
 80 480 l 1
 240 480 l 1
 240 440 l 1
 80 440 l 1
440 440 m 1
 440 480 l 1
 600 480 l 1
 600 440 l 1
 440 440 l 1
80 400 m 1
 80 440 l 1
 240 440 l 1
 240 400 l 1
 80 400 l 1
440 400 m 1
 440 440 l 1
 600 440 l 1
 600 400 l 1
 440 400 l 1
80 360 m 1
 80 400 l 1
 240 400 l 1
 240 360 l 1
 80 360 l 1
400 360 m 1
 400 400 l 1
 560 400 l 1
 560 360 l 1
 400 360 l 1
80 320 m 1
 80 360 l 1
 560 360 l 1
 560 320 l 1
 80 320 l 1
80 280 m 1
 80 320 l 1
 520 320 l 1
 520 280 l 1
 80 280 l 1
80 240 m 1
 80 280 l 1
 440 280 l 1
 440 240 l 1
 80 240 l 1
80 200 m 1
 80 240 l 1
 240 240 l 1
 240 200 l 1
 80 200 l 1
80 160 m 1
 80 200 l 1
 240 200 l 1
 240 160 l 1
 80 160 l 1
80 120 m 1
 80 160 l 1
 240 160 l 1
 240 120 l 1
 80 120 l 1
80 80 m 1
 80 120 l 1
 240 120 l 1
 240 80 l 1
 80 80 l 1
80 40 m 1
 80 80 l 1
 240 80 l 1
 240 40 l 1
 80 40 l 1
80 0 m 1
 80 40 l 1
 240 40 l 1
 240 0 l 1
 80 0 l 1
EndSplineSet
EndChar

StartChar: Q
Encoding: 81 81 50
Width: 600
Flags: HW
LayerCount: 2
Back
Fore
SplineSet
200 680 m 1
 200 720 l 1
 440 720 l 1
 440 680 l 1
 200 680 l 1
160 640 m 1
 160 680 l 1
 480 680 l 1
 480 640 l 1
 160 640 l 1
120 600 m 1
 120 640 l 1
 520 640 l 1
 520 600 l 1
 120 600 l 1
80 560 m 1
 80 600 l 1
 240 600 l 1
 240 560 l 1
 80 560 l 1
400 560 m 1
 400 600 l 1
 560 600 l 1
 560 560 l 1
 400 560 l 1
80 520 m 1
 80 560 l 1
 240 560 l 1
 240 520 l 1
 80 520 l 1
400 520 m 1
 400 560 l 1
 560 560 l 1
 560 520 l 1
 400 520 l 1
40 480 m 1
 40 520 l 1
 200 520 l 1
 200 480 l 1
 40 480 l 1
440 480 m 1
 440 520 l 1
 600 520 l 1
 600 480 l 1
 440 480 l 1
40 440 m 1
 40 480 l 1
 200 480 l 1
 200 440 l 1
 40 440 l 1
440 440 m 1
 440 480 l 1
 600 480 l 1
 600 440 l 1
 440 440 l 1
40 400 m 1
 40 440 l 1
 200 440 l 1
 200 400 l 1
 40 400 l 1
440 400 m 1
 440 440 l 1
 600 440 l 1
 600 400 l 1
 440 400 l 1
40 360 m 1
 40 400 l 1
 200 400 l 1
 200 360 l 1
 40 360 l 1
440 360 m 1
 440 400 l 1
 600 400 l 1
 600 360 l 1
 440 360 l 1
40 320 m 1
 40 360 l 1
 200 360 l 1
 200 320 l 1
 40 320 l 1
440 320 m 1
 440 360 l 1
 600 360 l 1
 600 320 l 1
 440 320 l 1
40 280 m 1
 40 320 l 1
 200 320 l 1
 200 280 l 1
 40 280 l 1
440 280 m 1
 440 320 l 1
 600 320 l 1
 600 280 l 1
 440 280 l 1
40 240 m 1
 40 280 l 1
 200 280 l 1
 200 240 l 1
 40 240 l 1
440 240 m 1
 440 280 l 1
 600 280 l 1
 600 240 l 1
 440 240 l 1
40 200 m 1
 40 240 l 1
 200 240 l 1
 200 200 l 1
 40 200 l 1
440 200 m 1
 440 240 l 1
 600 240 l 1
 600 200 l 1
 440 200 l 1
80 160 m 1
 80 200 l 1
 240 200 l 1
 240 160 l 1
 80 160 l 1
400 160 m 1
 400 200 l 1
 560 200 l 1
 560 160 l 1
 400 160 l 1
80 120 m 1
 80 160 l 1
 240 160 l 1
 240 120 l 1
 80 120 l 1
400 120 m 1
 400 160 l 1
 560 160 l 1
 560 120 l 1
 400 120 l 1
120 80 m 1
 120 120 l 1
 520 120 l 1
 520 80 l 1
 120 80 l 1
160 40 m 1
 160 80 l 1
 480 80 l 1
 480 40 l 1
 160 40 l 1
200 0 m 1
 200 40 l 1
 440 40 l 1
 440 0 l 1
 200 0 l 1
360 -40 m 1
 360 0 l 1
 640 0 l 1
 640 -40 l 1
 360 -40 l 1
400 -80 m 1
 400 -40 l 1
 600 -40 l 1
 600 -80 l 1
 400 -80 l 1
440 -120 m 1
 440 -80 l 1
 600 -80 l 1
 600 -120 l 1
 440 -120 l 1
520 -160 m 1
 520 -120 l 1
 560 -120 l 1
 560 -160 l 1
 520 -160 l 1
EndSplineSet
EndChar

StartChar: R
Encoding: 82 82 51
Width: 600
Flags: HW
LayerCount: 2
Back
Fore
SplineSet
80 680 m 1
 80 720 l 1
 480 720 l 1
 480 680 l 1
 80 680 l 1
80 640 m 1
 80 680 l 1
 520 680 l 1
 520 640 l 1
 80 640 l 1
80 600 m 1
 80 640 l 1
 560 640 l 1
 560 600 l 1
 80 600 l 1
80 560 m 1
 80 600 l 1
 240 600 l 1
 240 560 l 1
 80 560 l 1
360 560 m 1
 360 600 l 1
 560 600 l 1
 560 560 l 1
 360 560 l 1
80 520 m 1
 80 560 l 1
 240 560 l 1
 240 520 l 1
 80 520 l 1
400 520 m 1
 400 560 l 1
 560 560 l 1
 560 520 l 1
 400 520 l 1
80 480 m 1
 80 520 l 1
 240 520 l 1
 240 480 l 1
 80 480 l 1
400 480 m 1
 400 520 l 1
 560 520 l 1
 560 480 l 1
 400 480 l 1
80 440 m 1
 80 480 l 1
 240 480 l 1
 240 440 l 1
 80 440 l 1
400 440 m 1
 400 480 l 1
 560 480 l 1
 560 440 l 1
 400 440 l 1
80 400 m 1
 80 440 l 1
 240 440 l 1
 240 400 l 1
 80 400 l 1
360 400 m 1
 360 440 l 1
 520 440 l 1
 520 400 l 1
 360 400 l 1
80 360 m 1
 80 400 l 1
 240 400 l 1
 240 360 l 1
 80 360 l 1
320 360 m 1
 320 400 l 1
 480 400 l 1
 480 360 l 1
 320 360 l 1
80 320 m 1
 80 360 l 1
 440 360 l 1
 440 320 l 1
 80 320 l 1
80 280 m 1
 80 320 l 1
 440 320 l 1
 440 280 l 1
 80 280 l 1
80 240 m 1
 80 280 l 1
 480 280 l 1
 480 240 l 1
 80 240 l 1
80 200 m 1
 80 240 l 1
 240 240 l 1
 240 200 l 1
 80 200 l 1
280 200 m 1
 280 240 l 1
 480 240 l 1
 480 200 l 1
 280 200 l 1
80 160 m 1
 80 200 l 1
 240 200 l 1
 240 160 l 1
 80 160 l 1
320 160 m 1
 320 200 l 1
 520 200 l 1
 520 160 l 1
 320 160 l 1
80 120 m 1
 80 160 l 1
 240 160 l 1
 240 120 l 1
 80 120 l 1
360 120 m 1
 360 160 l 1
 520 160 l 1
 520 120 l 1
 360 120 l 1
80 80 m 1
 80 120 l 1
 240 120 l 1
 240 80 l 1
 80 80 l 1
360 80 m 1
 360 120 l 1
 560 120 l 1
 560 80 l 1
 360 80 l 1
80 40 m 1
 80 80 l 1
 240 80 l 1
 240 40 l 1
 80 40 l 1
400 40 m 1
 400 80 l 1
 560 80 l 1
 560 40 l 1
 400 40 l 1
80 0 m 1
 80 40 l 1
 240 40 l 1
 240 0 l 1
 80 0 l 1
440 0 m 1
 440 40 l 1
 600 40 l 1
 600 0 l 1
 440 0 l 1
EndSplineSet
EndChar

StartChar: S
Encoding: 83 83 52
Width: 600
Flags: HW
LayerCount: 2
Back
Fore
SplineSet
160 680 m 1
 160 720 l 1
 480 720 l 1
 480 680 l 1
 160 680 l 1
80 640 m 1
 80 680 l 1
 520 680 l 1
 520 640 l 1
 80 640 l 1
80 600 m 1
 80 640 l 1
 520 640 l 1
 520 600 l 1
 80 600 l 1
40 560 m 1
 40 600 l 1
 240 600 l 1
 240 560 l 1
 40 560 l 1
440 560 m 1
 440 600 l 1
 520 600 l 1
 520 560 l 1
 440 560 l 1
40 520 m 1
 40 560 l 1
 200 560 l 1
 200 520 l 1
 40 520 l 1
40 480 m 1
 40 520 l 1
 240 520 l 1
 240 480 l 1
 40 480 l 1
40 440 m 1
 40 480 l 1
 320 480 l 1
 320 440 l 1
 40 440 l 1
80 400 m 1
 80 440 l 1
 400 440 l 1
 400 400 l 1
 80 400 l 1
120 360 m 1
 120 400 l 1
 440 400 l 1
 440 360 l 1
 120 360 l 1
200 320 m 1
 200 360 l 1
 520 360 l 1
 520 320 l 1
 200 320 l 1
280 280 m 1
 280 320 l 1
 520 320 l 1
 520 280 l 1
 280 280 l 1
360 240 m 1
 360 280 l 1
 560 280 l 1
 560 240 l 1
 360 240 l 1
400 200 m 1
 400 240 l 1
 560 240 l 1
 560 200 l 1
 400 200 l 1
400 160 m 1
 400 200 l 1
 560 200 l 1
 560 160 l 1
 400 160 l 1
40 120 m 1
 40 160 l 1
 120 160 l 1
 120 120 l 1
 40 120 l 1
360 120 m 1
 360 160 l 1
 560 160 l 1
 560 120 l 1
 360 120 l 1
40 80 m 1
 40 120 l 1
 520 120 l 1
 520 80 l 1
 40 80 l 1
40 40 m 1
 40 80 l 1
 480 80 l 1
 480 40 l 1
 40 40 l 1
80 0 m 1
 80 40 l 1
 400 40 l 1
 400 0 l 1
 80 0 l 1
EndSplineSet
EndChar

StartChar: T
Encoding: 84 84 53
Width: 600
Flags: HW
LayerCount: 2
Back
Fore
SplineSet
40 680 m 1
 40 720 l 1
 600 720 l 1
 600 680 l 1
 40 680 l 1
40 640 m 1
 40 680 l 1
 600 680 l 1
 600 640 l 1
 40 640 l 1
40 600 m 1
 40 640 l 1
 600 640 l 1
 600 600 l 1
 40 600 l 1
240 560 m 1
 240 600 l 1
 400 600 l 1
 400 560 l 1
 240 560 l 1
240 520 m 1
 240 560 l 1
 400 560 l 1
 400 520 l 1
 240 520 l 1
240 480 m 1
 240 520 l 1
 400 520 l 1
 400 480 l 1
 240 480 l 1
240 440 m 1
 240 480 l 1
 400 480 l 1
 400 440 l 1
 240 440 l 1
240 400 m 1
 240 440 l 1
 400 440 l 1
 400 400 l 1
 240 400 l 1
240 360 m 1
 240 400 l 1
 400 400 l 1
 400 360 l 1
 240 360 l 1
240 320 m 1
 240 360 l 1
 400 360 l 1
 400 320 l 1
 240 320 l 1
240 280 m 1
 240 320 l 1
 400 320 l 1
 400 280 l 1
 240 280 l 1
240 240 m 1
 240 280 l 1
 400 280 l 1
 400 240 l 1
 240 240 l 1
240 200 m 1
 240 240 l 1
 400 240 l 1
 400 200 l 1
 240 200 l 1
240 160 m 1
 240 200 l 1
 400 200 l 1
 400 160 l 1
 240 160 l 1
240 120 m 1
 240 160 l 1
 400 160 l 1
 400 120 l 1
 240 120 l 1
240 80 m 1
 240 120 l 1
 400 120 l 1
 400 80 l 1
 240 80 l 1
240 40 m 1
 240 80 l 1
 400 80 l 1
 400 40 l 1
 240 40 l 1
240 0 m 1
 240 40 l 1
 400 40 l 1
 400 0 l 1
 240 0 l 1
EndSplineSet
EndChar

StartChar: U
Encoding: 85 85 54
Width: 600
Flags: HW
LayerCount: 2
Back
Fore
SplineSet
40 680 m 1
 40 720 l 1
 200 720 l 1
 200 680 l 1
 40 680 l 1
360 680 m 1
 360 720 l 1
 520 720 l 1
 520 680 l 1
 360 680 l 1
40 640 m 1
 40 680 l 1
 200 680 l 1
 200 640 l 1
 40 640 l 1
360 640 m 1
 360 680 l 1
 520 680 l 1
 520 640 l 1
 360 640 l 1
40 600 m 1
 40 640 l 1
 200 640 l 1
 200 600 l 1
 40 600 l 1
360 600 m 1
 360 640 l 1
 520 640 l 1
 520 600 l 1
 360 600 l 1
40 560 m 1
 40 600 l 1
 200 600 l 1
 200 560 l 1
 40 560 l 1
360 560 m 1
 360 600 l 1
 520 600 l 1
 520 560 l 1
 360 560 l 1
40 520 m 1
 40 560 l 1
 200 560 l 1
 200 520 l 1
 40 520 l 1
360 520 m 1
 360 560 l 1
 520 560 l 1
 520 520 l 1
 360 520 l 1
40 480 m 1
 40 520 l 1
 200 520 l 1
 200 480 l 1
 40 480 l 1
360 480 m 1
 360 520 l 1
 520 520 l 1
 520 480 l 1
 360 480 l 1
40 440 m 1
 40 480 l 1
 200 480 l 1
 200 440 l 1
 40 440 l 1
360 440 m 1
 360 480 l 1
 520 480 l 1
 520 440 l 1
 360 440 l 1
40 400 m 1
 40 440 l 1
 200 440 l 1
 200 400 l 1
 40 400 l 1
360 400 m 1
 360 440 l 1
 520 440 l 1
 520 400 l 1
 360 400 l 1
40 360 m 1
 40 400 l 1
 200 400 l 1
 200 360 l 1
 40 360 l 1
360 360 m 1
 360 400 l 1
 520 400 l 1
 520 360 l 1
 360 360 l 1
40 320 m 1
 40 360 l 1
 200 360 l 1
 200 320 l 1
 40 320 l 1
360 320 m 1
 360 360 l 1
 520 360 l 1
 520 320 l 1
 360 320 l 1
40 280 m 1
 40 320 l 1
 200 320 l 1
 200 280 l 1
 40 280 l 1
360 280 m 1
 360 320 l 1
 520 320 l 1
 520 280 l 1
 360 280 l 1
40 240 m 1
 40 280 l 1
 200 280 l 1
 200 240 l 1
 40 240 l 1
360 240 m 1
 360 280 l 1
 520 280 l 1
 520 240 l 1
 360 240 l 1
40 200 m 1
 40 240 l 1
 200 240 l 1
 200 200 l 1
 40 200 l 1
360 200 m 1
 360 240 l 1
 520 240 l 1
 520 200 l 1
 360 200 l 1
40 160 m 1
 40 200 l 1
 200 200 l 1
 200 160 l 1
 40 160 l 1
360 160 m 1
 360 200 l 1
 520 200 l 1
 520 160 l 1
 360 160 l 1
40 120 m 1
 40 160 l 1
 240 160 l 1
 240 120 l 1
 40 120 l 1
320 120 m 1
 320 160 l 1
 520 160 l 1
 520 120 l 1
 320 120 l 1
80 80 m 1
 80 120 l 1
 480 120 l 1
 480 80 l 1
 80 80 l 1
80 40 m 1
 80 80 l 1
 480 80 l 1
 480 40 l 1
 80 40 l 1
160 0 m 1
 160 40 l 1
 400 40 l 1
 400 0 l 1
 160 0 l 1
EndSplineSet
EndChar

StartChar: V
Encoding: 86 86 55
Width: 600
Flags: HW
LayerCount: 2
Back
Fore
SplineSet
0 680 m 1
 0 720 l 1
 160 720 l 1
 160 680 l 1
 0 680 l 1
480 680 m 1
 480 720 l 1
 600 720 l 1
 600 680 l 1
 480 680 l 1
0 640 m 1
 0 680 l 1
 200 680 l 1
 200 640 l 1
 0 640 l 1
480 640 m 1
 480 680 l 1
 600 680 l 1
 600 640 l 1
 480 640 l 1
40 600 m 1
 40 640 l 1
 200 640 l 1
 200 600 l 1
 40 600 l 1
440 600 m 1
 440 640 l 1
 560 640 l 1
 560 600 l 1
 440 600 l 1
40 560 m 1
 40 600 l 1
 200 600 l 1
 200 560 l 1
 40 560 l 1
440 560 m 1
 440 600 l 1
 560 600 l 1
 560 560 l 1
 440 560 l 1
40 520 m 1
 40 560 l 1
 200 560 l 1
 200 520 l 1
 40 520 l 1
440 520 m 1
 440 560 l 1
 560 560 l 1
 560 520 l 1
 440 520 l 1
80 480 m 1
 80 520 l 1
 240 520 l 1
 240 480 l 1
 80 480 l 1
400 480 m 1
 400 520 l 1
 520 520 l 1
 520 480 l 1
 400 480 l 1
80 440 m 1
 80 480 l 1
 240 480 l 1
 240 440 l 1
 80 440 l 1
400 440 m 1
 400 480 l 1
 520 480 l 1
 520 440 l 1
 400 440 l 1
80 400 m 1
 80 440 l 1
 240 440 l 1
 240 400 l 1
 80 400 l 1
400 400 m 1
 400 440 l 1
 520 440 l 1
 520 400 l 1
 400 400 l 1
80 360 m 1
 80 400 l 1
 280 400 l 1
 280 360 l 1
 80 360 l 1
360 360 m 1
 360 400 l 1
 480 400 l 1
 480 360 l 1
 360 360 l 1
120 320 m 1
 120 360 l 1
 280 360 l 1
 280 320 l 1
 120 320 l 1
360 320 m 1
 360 360 l 1
 480 360 l 1
 480 320 l 1
 360 320 l 1
120 280 m 1
 120 320 l 1
 280 320 l 1
 280 280 l 1
 120 280 l 1
360 280 m 1
 360 320 l 1
 480 320 l 1
 480 280 l 1
 360 280 l 1
120 240 m 1
 120 280 l 1
 280 280 l 1
 280 240 l 1
 120 240 l 1
320 240 m 1
 320 280 l 1
 440 280 l 1
 440 240 l 1
 320 240 l 1
160 200 m 1
 160 240 l 1
 440 240 l 1
 440 200 l 1
 160 200 l 1
160 160 m 1
 160 200 l 1
 440 200 l 1
 440 160 l 1
 160 160 l 1
160 120 m 1
 160 160 l 1
 440 160 l 1
 440 120 l 1
 160 120 l 1
200 80 m 1
 200 120 l 1
 400 120 l 1
 400 80 l 1
 200 80 l 1
200 40 m 1
 200 80 l 1
 400 80 l 1
 400 40 l 1
 200 40 l 1
200 0 m 1
 200 40 l 1
 400 40 l 1
 400 0 l 1
 200 0 l 1
EndSplineSet
EndChar

StartChar: W
Encoding: 87 87 56
Width: 600
Flags: HW
LayerCount: 2
Back
Fore
SplineSet
0 680 m 1
 0 720 l 1
 160 720 l 1
 160 680 l 1
 0 680 l 1
520 680 m 1
 520 720 l 1
 600 720 l 1
 600 680 l 1
 520 680 l 1
0 640 m 1
 0 680 l 1
 160 680 l 1
 160 640 l 1
 0 640 l 1
240 640 m 1
 240 680 l 1
 400 680 l 1
 400 640 l 1
 240 640 l 1
520 640 m 1
 520 680 l 1
 600 680 l 1
 600 640 l 1
 520 640 l 1
0 600 m 1
 0 640 l 1
 160 640 l 1
 160 600 l 1
 0 600 l 1
240 600 m 1
 240 640 l 1
 400 640 l 1
 400 600 l 1
 240 600 l 1
520 600 m 1
 520 640 l 1
 600 640 l 1
 600 600 l 1
 520 600 l 1
0 560 m 1
 0 600 l 1
 160 600 l 1
 160 560 l 1
 0 560 l 1
240 560 m 1
 240 600 l 1
 400 600 l 1
 400 560 l 1
 240 560 l 1
480 560 m 1
 480 600 l 1
 600 600 l 1
 600 560 l 1
 480 560 l 1
40 520 m 1
 40 560 l 1
 160 560 l 1
 160 520 l 1
 40 520 l 1
240 520 m 1
 240 560 l 1
 400 560 l 1
 400 520 l 1
 240 520 l 1
480 520 m 1
 480 560 l 1
 600 560 l 1
 600 520 l 1
 480 520 l 1
40 480 m 1
 40 520 l 1
 400 520 l 1
 400 480 l 1
 40 480 l 1
480 480 m 1
 480 520 l 1
 560 520 l 1
 560 480 l 1
 480 480 l 1
40 440 m 1
 40 480 l 1
 440 480 l 1
 440 440 l 1
 40 440 l 1
480 440 m 1
 480 480 l 1
 560 480 l 1
 560 440 l 1
 480 440 l 1
40 400 m 1
 40 440 l 1
 440 440 l 1
 440 400 l 1
 40 400 l 1
480 400 m 1
 480 440 l 1
 560 440 l 1
 560 400 l 1
 480 400 l 1
40 360 m 1
 40 400 l 1
 440 400 l 1
 440 360 l 1
 40 360 l 1
480 360 m 1
 480 400 l 1
 560 400 l 1
 560 360 l 1
 480 360 l 1
40 320 m 1
 40 360 l 1
 440 360 l 1
 440 320 l 1
 40 320 l 1
480 320 m 1
 480 360 l 1
 560 360 l 1
 560 320 l 1
 480 320 l 1
40 280 m 1
 40 320 l 1
 280 320 l 1
 280 280 l 1
 40 280 l 1
320 280 m 1
 320 320 l 1
 560 320 l 1
 560 280 l 1
 320 280 l 1
80 240 m 1
 80 280 l 1
 280 280 l 1
 280 240 l 1
 80 240 l 1
320 240 m 1
 320 280 l 1
 560 280 l 1
 560 240 l 1
 320 240 l 1
80 200 m 1
 80 240 l 1
 280 240 l 1
 280 200 l 1
 80 200 l 1
320 200 m 1
 320 240 l 1
 560 240 l 1
 560 200 l 1
 320 200 l 1
80 160 m 1
 80 200 l 1
 280 200 l 1
 280 160 l 1
 80 160 l 1
320 160 m 1
 320 200 l 1
 560 200 l 1
 560 160 l 1
 320 160 l 1
80 120 m 1
 80 160 l 1
 280 160 l 1
 280 120 l 1
 80 120 l 1
320 120 m 1
 320 160 l 1
 520 160 l 1
 520 120 l 1
 320 120 l 1
80 80 m 1
 80 120 l 1
 240 120 l 1
 240 80 l 1
 80 80 l 1
360 80 m 1
 360 120 l 1
 520 120 l 1
 520 80 l 1
 360 80 l 1
80 40 m 1
 80 80 l 1
 240 80 l 1
 240 40 l 1
 80 40 l 1
360 40 m 1
 360 80 l 1
 520 80 l 1
 520 40 l 1
 360 40 l 1
80 0 m 1
 80 40 l 1
 240 40 l 1
 240 0 l 1
 80 0 l 1
360 0 m 1
 360 40 l 1
 520 40 l 1
 520 0 l 1
 360 0 l 1
EndSplineSet
EndChar

StartChar: X
Encoding: 88 88 57
Width: 600
Flags: HW
LayerCount: 2
Back
Fore
SplineSet
40 680 m 1
 40 720 l 1
 240 720 l 1
 240 680 l 1
 40 680 l 1
440 680 m 1
 440 720 l 1
 600 720 l 1
 600 680 l 1
 440 680 l 1
80 640 m 1
 80 680 l 1
 240 680 l 1
 240 640 l 1
 80 640 l 1
440 640 m 1
 440 680 l 1
 560 680 l 1
 560 640 l 1
 440 640 l 1
80 600 m 1
 80 640 l 1
 280 640 l 1
 280 600 l 1
 80 600 l 1
400 600 m 1
 400 640 l 1
 520 640 l 1
 520 600 l 1
 400 600 l 1
120 560 m 1
 120 600 l 1
 280 600 l 1
 280 560 l 1
 120 560 l 1
400 560 m 1
 400 600 l 1
 520 600 l 1
 520 560 l 1
 400 560 l 1
120 520 m 1
 120 560 l 1
 320 560 l 1
 320 520 l 1
 120 520 l 1
360 520 m 1
 360 560 l 1
 480 560 l 1
 480 520 l 1
 360 520 l 1
160 480 m 1
 160 520 l 1
 480 520 l 1
 480 480 l 1
 160 480 l 1
160 440 m 1
 160 480 l 1
 440 480 l 1
 440 440 l 1
 160 440 l 1
200 400 m 1
 200 440 l 1
 440 440 l 1
 440 400 l 1
 200 400 l 1
240 360 m 1
 240 400 l 1
 400 400 l 1
 400 360 l 1
 240 360 l 1
240 320 m 1
 240 360 l 1
 440 360 l 1
 440 320 l 1
 240 320 l 1
200 280 m 1
 200 320 l 1
 440 320 l 1
 440 280 l 1
 200 280 l 1
160 240 m 1
 160 280 l 1
 480 280 l 1
 480 240 l 1
 160 240 l 1
160 200 m 1
 160 240 l 1
 280 240 l 1
 280 200 l 1
 160 200 l 1
320 200 m 1
 320 240 l 1
 480 240 l 1
 480 200 l 1
 320 200 l 1
120 160 m 1
 120 200 l 1
 280 200 l 1
 280 160 l 1
 120 160 l 1
320 160 m 1
 320 200 l 1
 520 200 l 1
 520 160 l 1
 320 160 l 1
120 120 m 1
 120 160 l 1
 240 160 l 1
 240 120 l 1
 120 120 l 1
360 120 m 1
 360 160 l 1
 520 160 l 1
 520 120 l 1
 360 120 l 1
80 80 m 1
 80 120 l 1
 240 120 l 1
 240 80 l 1
 80 80 l 1
360 80 m 1
 360 120 l 1
 560 120 l 1
 560 80 l 1
 360 80 l 1
40 40 m 1
 40 80 l 1
 200 80 l 1
 200 40 l 1
 40 40 l 1
400 40 m 1
 400 80 l 1
 560 80 l 1
 560 40 l 1
 400 40 l 1
40 0 m 1
 40 40 l 1
 160 40 l 1
 160 0 l 1
 40 0 l 1
400 0 m 1
 400 40 l 1
 600 40 l 1
 600 0 l 1
 400 0 l 1
EndSplineSet
EndChar

StartChar: Y
Encoding: 89 89 58
Width: 600
Flags: HW
LayerCount: 2
Back
Fore
SplineSet
0 680 m 1
 0 720 l 1
 200 720 l 1
 200 680 l 1
 0 680 l 1
480 680 m 1
 480 720 l 1
 640 720 l 1
 640 680 l 1
 480 680 l 1
40 640 m 1
 40 680 l 1
 200 680 l 1
 200 640 l 1
 40 640 l 1
480 640 m 1
 480 680 l 1
 600 680 l 1
 600 640 l 1
 480 640 l 1
40 600 m 1
 40 640 l 1
 240 640 l 1
 240 600 l 1
 40 600 l 1
440 600 m 1
 440 640 l 1
 600 640 l 1
 600 600 l 1
 440 600 l 1
80 560 m 1
 80 600 l 1
 240 600 l 1
 240 560 l 1
 80 560 l 1
440 560 m 1
 440 600 l 1
 560 600 l 1
 560 560 l 1
 440 560 l 1
80 520 m 1
 80 560 l 1
 280 560 l 1
 280 520 l 1
 80 520 l 1
400 520 m 1
 400 560 l 1
 560 560 l 1
 560 520 l 1
 400 520 l 1
120 480 m 1
 120 520 l 1
 320 520 l 1
 320 480 l 1
 120 480 l 1
400 480 m 1
 400 520 l 1
 520 520 l 1
 520 480 l 1
 400 480 l 1
160 440 m 1
 160 480 l 1
 320 480 l 1
 320 440 l 1
 160 440 l 1
360 440 m 1
 360 480 l 1
 480 480 l 1
 480 440 l 1
 360 440 l 1
160 400 m 1
 160 440 l 1
 480 440 l 1
 480 400 l 1
 160 400 l 1
200 360 m 1
 200 400 l 1
 440 400 l 1
 440 360 l 1
 200 360 l 1
200 320 m 1
 200 360 l 1
 440 360 l 1
 440 320 l 1
 200 320 l 1
240 280 m 1
 240 320 l 1
 400 320 l 1
 400 280 l 1
 240 280 l 1
240 240 m 1
 240 280 l 1
 400 280 l 1
 400 240 l 1
 240 240 l 1
240 200 m 1
 240 240 l 1
 400 240 l 1
 400 200 l 1
 240 200 l 1
240 160 m 1
 240 200 l 1
 400 200 l 1
 400 160 l 1
 240 160 l 1
240 120 m 1
 240 160 l 1
 400 160 l 1
 400 120 l 1
 240 120 l 1
240 80 m 1
 240 120 l 1
 400 120 l 1
 400 80 l 1
 240 80 l 1
240 40 m 1
 240 80 l 1
 400 80 l 1
 400 40 l 1
 240 40 l 1
240 0 m 1
 240 40 l 1
 400 40 l 1
 400 0 l 1
 240 0 l 1
EndSplineSet
EndChar

StartChar: Z
Encoding: 90 90 59
Width: 600
Flags: HW
LayerCount: 2
Back
Fore
SplineSet
80 680 m 1
 80 720 l 1
 560 720 l 1
 560 680 l 1
 80 680 l 1
80 640 m 1
 80 680 l 1
 560 680 l 1
 560 640 l 1
 80 640 l 1
80 600 m 1
 80 640 l 1
 560 640 l 1
 560 600 l 1
 80 600 l 1
360 560 m 1
 360 600 l 1
 560 600 l 1
 560 560 l 1
 360 560 l 1
320 520 m 1
 320 560 l 1
 520 560 l 1
 520 520 l 1
 320 520 l 1
280 480 m 1
 280 520 l 1
 480 520 l 1
 480 480 l 1
 280 480 l 1
280 440 m 1
 280 480 l 1
 480 480 l 1
 480 440 l 1
 280 440 l 1
240 400 m 1
 240 440 l 1
 440 440 l 1
 440 400 l 1
 240 400 l 1
200 360 m 1
 200 400 l 1
 400 400 l 1
 400 360 l 1
 200 360 l 1
200 320 m 1
 200 360 l 1
 400 360 l 1
 400 320 l 1
 200 320 l 1
160 280 m 1
 160 320 l 1
 360 320 l 1
 360 280 l 1
 160 280 l 1
120 240 m 1
 120 280 l 1
 320 280 l 1
 320 240 l 1
 120 240 l 1
120 200 m 1
 120 240 l 1
 320 240 l 1
 320 200 l 1
 120 200 l 1
80 160 m 1
 80 200 l 1
 280 200 l 1
 280 160 l 1
 80 160 l 1
40 120 m 1
 40 160 l 1
 240 160 l 1
 240 120 l 1
 40 120 l 1
40 80 m 1
 40 120 l 1
 560 120 l 1
 560 80 l 1
 40 80 l 1
40 40 m 1
 40 80 l 1
 560 80 l 1
 560 40 l 1
 40 40 l 1
40 0 m 1
 40 40 l 1
 560 40 l 1
 560 0 l 1
 40 0 l 1
EndSplineSet
EndChar

StartChar: bracketleft
Encoding: 91 91 60
Width: 600
Flags: HW
LayerCount: 2
Back
Fore
SplineSet
160 720 m 1
 160 760 l 1
 560 760 l 1
 560 720 l 1
 160 720 l 1
160 680 m 1
 160 720 l 1
 560 720 l 1
 560 680 l 1
 160 680 l 1
160 640 m 1
 160 680 l 1
 560 680 l 1
 560 640 l 1
 160 640 l 1
160 600 m 1
 160 640 l 1
 320 640 l 1
 320 600 l 1
 160 600 l 1
160 560 m 1
 160 600 l 1
 320 600 l 1
 320 560 l 1
 160 560 l 1
160 520 m 1
 160 560 l 1
 320 560 l 1
 320 520 l 1
 160 520 l 1
160 480 m 1
 160 520 l 1
 320 520 l 1
 320 480 l 1
 160 480 l 1
160 440 m 1
 160 480 l 1
 320 480 l 1
 320 440 l 1
 160 440 l 1
160 400 m 1
 160 440 l 1
 320 440 l 1
 320 400 l 1
 160 400 l 1
160 360 m 1
 160 400 l 1
 320 400 l 1
 320 360 l 1
 160 360 l 1
160 320 m 1
 160 360 l 1
 320 360 l 1
 320 320 l 1
 160 320 l 1
160 280 m 1
 160 320 l 1
 320 320 l 1
 320 280 l 1
 160 280 l 1
160 240 m 1
 160 280 l 1
 320 280 l 1
 320 240 l 1
 160 240 l 1
160 200 m 1
 160 240 l 1
 320 240 l 1
 320 200 l 1
 160 200 l 1
160 160 m 1
 160 200 l 1
 320 200 l 1
 320 160 l 1
 160 160 l 1
160 120 m 1
 160 160 l 1
 320 160 l 1
 320 120 l 1
 160 120 l 1
160 80 m 1
 160 120 l 1
 320 120 l 1
 320 80 l 1
 160 80 l 1
160 40 m 1
 160 80 l 1
 320 80 l 1
 320 40 l 1
 160 40 l 1
160 0 m 1
 160 40 l 1
 320 40 l 1
 320 0 l 1
 160 0 l 1
160 -40 m 1
 160 0 l 1
 320 0 l 1
 320 -40 l 1
 160 -40 l 1
160 -80 m 1
 160 -40 l 1
 560 -40 l 1
 560 -80 l 1
 160 -80 l 1
160 -120 m 1
 160 -80 l 1
 560 -80 l 1
 560 -120 l 1
 160 -120 l 1
160 -160 m 1
 160 -120 l 1
 560 -120 l 1
 560 -160 l 1
 160 -160 l 1
EndSplineSet
EndChar

StartChar: backslash
Encoding: 92 92 61
Width: 600
Flags: HW
LayerCount: 2
Back
Fore
SplineSet
0 720 m 1
 0 760 l 1
 160 760 l 1
 160 720 l 1
 0 720 l 1
40 680 m 1
 40 720 l 1
 160 720 l 1
 160 680 l 1
 40 680 l 1
40 640 m 1
 40 680 l 1
 200 680 l 1
 200 640 l 1
 40 640 l 1
80 600 m 1
 80 640 l 1
 200 640 l 1
 200 600 l 1
 80 600 l 1
80 560 m 1
 80 600 l 1
 240 600 l 1
 240 560 l 1
 80 560 l 1
120 520 m 1
 120 560 l 1
 240 560 l 1
 240 520 l 1
 120 520 l 1
120 480 m 1
 120 520 l 1
 280 520 l 1
 280 480 l 1
 120 480 l 1
160 440 m 1
 160 480 l 1
 280 480 l 1
 280 440 l 1
 160 440 l 1
160 400 m 1
 160 440 l 1
 320 440 l 1
 320 400 l 1
 160 400 l 1
200 360 m 1
 200 400 l 1
 320 400 l 1
 320 360 l 1
 200 360 l 1
200 320 m 1
 200 360 l 1
 360 360 l 1
 360 320 l 1
 200 320 l 1
240 280 m 1
 240 320 l 1
 360 320 l 1
 360 280 l 1
 240 280 l 1
240 240 m 1
 240 280 l 1
 400 280 l 1
 400 240 l 1
 240 240 l 1
280 200 m 1
 280 240 l 1
 400 240 l 1
 400 200 l 1
 280 200 l 1
280 160 m 1
 280 200 l 1
 440 200 l 1
 440 160 l 1
 280 160 l 1
320 120 m 1
 320 160 l 1
 440 160 l 1
 440 120 l 1
 320 120 l 1
320 80 m 1
 320 120 l 1
 480 120 l 1
 480 80 l 1
 320 80 l 1
360 40 m 1
 360 80 l 1
 480 80 l 1
 480 40 l 1
 360 40 l 1
360 0 m 1
 360 40 l 1
 520 40 l 1
 520 0 l 1
 360 0 l 1
400 -40 m 1
 400 0 l 1
 520 0 l 1
 520 -40 l 1
 400 -40 l 1
400 -80 m 1
 400 -40 l 1
 560 -40 l 1
 560 -80 l 1
 400 -80 l 1
440 -120 m 1
 440 -80 l 1
 560 -80 l 1
 560 -120 l 1
 440 -120 l 1
440 -160 m 1
 440 -120 l 1
 600 -120 l 1
 600 -160 l 1
 440 -160 l 1
EndSplineSet
EndChar

StartChar: bracketright
Encoding: 93 93 62
Width: 600
Flags: HW
LayerCount: 2
Back
Fore
SplineSet
40 720 m 1
 40 760 l 1
 440 760 l 1
 440 720 l 1
 40 720 l 1
40 680 m 1
 40 720 l 1
 440 720 l 1
 440 680 l 1
 40 680 l 1
40 640 m 1
 40 680 l 1
 440 680 l 1
 440 640 l 1
 40 640 l 1
280 600 m 1
 280 640 l 1
 440 640 l 1
 440 600 l 1
 280 600 l 1
280 560 m 1
 280 600 l 1
 440 600 l 1
 440 560 l 1
 280 560 l 1
280 520 m 1
 280 560 l 1
 440 560 l 1
 440 520 l 1
 280 520 l 1
280 480 m 1
 280 520 l 1
 440 520 l 1
 440 480 l 1
 280 480 l 1
280 440 m 1
 280 480 l 1
 440 480 l 1
 440 440 l 1
 280 440 l 1
280 400 m 1
 280 440 l 1
 440 440 l 1
 440 400 l 1
 280 400 l 1
280 360 m 1
 280 400 l 1
 440 400 l 1
 440 360 l 1
 280 360 l 1
280 320 m 1
 280 360 l 1
 440 360 l 1
 440 320 l 1
 280 320 l 1
280 280 m 1
 280 320 l 1
 440 320 l 1
 440 280 l 1
 280 280 l 1
280 240 m 1
 280 280 l 1
 440 280 l 1
 440 240 l 1
 280 240 l 1
280 200 m 1
 280 240 l 1
 440 240 l 1
 440 200 l 1
 280 200 l 1
280 160 m 1
 280 200 l 1
 440 200 l 1
 440 160 l 1
 280 160 l 1
280 120 m 1
 280 160 l 1
 440 160 l 1
 440 120 l 1
 280 120 l 1
280 80 m 1
 280 120 l 1
 440 120 l 1
 440 80 l 1
 280 80 l 1
280 40 m 1
 280 80 l 1
 440 80 l 1
 440 40 l 1
 280 40 l 1
280 0 m 1
 280 40 l 1
 440 40 l 1
 440 0 l 1
 280 0 l 1
280 -40 m 1
 280 0 l 1
 440 0 l 1
 440 -40 l 1
 280 -40 l 1
40 -80 m 1
 40 -40 l 1
 440 -40 l 1
 440 -80 l 1
 40 -80 l 1
40 -120 m 1
 40 -80 l 1
 440 -80 l 1
 440 -120 l 1
 40 -120 l 1
40 -160 m 1
 40 -120 l 1
 440 -120 l 1
 440 -160 l 1
 40 -160 l 1
EndSplineSet
EndChar

StartChar: asciicircum
Encoding: 94 94 63
Width: 600
Flags: HW
LayerCount: 2
Back
Fore
SplineSet
280 680 m 1
 280 720 l 1
 320 720 l 1
 320 680 l 1
 280 680 l 1
280 640 m 1
 280 680 l 1
 320 680 l 1
 320 640 l 1
 280 640 l 1
240 600 m 1
 240 640 l 1
 360 640 l 1
 360 600 l 1
 240 600 l 1
240 560 m 1
 240 600 l 1
 360 600 l 1
 360 560 l 1
 240 560 l 1
200 520 m 1
 200 560 l 1
 400 560 l 1
 400 520 l 1
 200 520 l 1
200 480 m 1
 200 520 l 1
 400 520 l 1
 400 480 l 1
 200 480 l 1
200 440 m 1
 200 480 l 1
 400 480 l 1
 400 440 l 1
 200 440 l 1
160 400 m 1
 160 440 l 1
 280 440 l 1
 280 400 l 1
 160 400 l 1
320 400 m 1
 320 440 l 1
 440 440 l 1
 440 400 l 1
 320 400 l 1
160 360 m 1
 160 400 l 1
 280 400 l 1
 280 360 l 1
 160 360 l 1
320 360 m 1
 320 400 l 1
 440 400 l 1
 440 360 l 1
 320 360 l 1
120 320 m 1
 120 360 l 1
 240 360 l 1
 240 320 l 1
 120 320 l 1
360 320 m 1
 360 360 l 1
 480 360 l 1
 480 320 l 1
 360 320 l 1
120 280 m 1
 120 320 l 1
 240 320 l 1
 240 280 l 1
 120 280 l 1
360 280 m 1
 360 320 l 1
 480 320 l 1
 480 280 l 1
 360 280 l 1
80 240 m 1
 80 280 l 1
 240 280 l 1
 240 240 l 1
 80 240 l 1
360 240 m 1
 360 280 l 1
 520 280 l 1
 520 240 l 1
 360 240 l 1
80 200 m 1
 80 240 l 1
 200 240 l 1
 200 200 l 1
 80 200 l 1
400 200 m 1
 400 240 l 1
 520 240 l 1
 520 200 l 1
 400 200 l 1
40 160 m 1
 40 200 l 1
 200 200 l 1
 200 160 l 1
 40 160 l 1
400 160 m 1
 400 200 l 1
 560 200 l 1
 560 160 l 1
 400 160 l 1
40 120 m 1
 40 160 l 1
 160 160 l 1
 160 120 l 1
 40 120 l 1
440 120 m 1
 440 160 l 1
 560 160 l 1
 560 120 l 1
 440 120 l 1
EndSplineSet
EndChar

StartChar: underscore
Encoding: 95 95 64
Width: 600
Flags: HW
LayerCount: 2
Back
Fore
SplineSet
0 -40 m 1
 0 0 l 1
 600 0 l 1
 600 -40 l 1
 0 -40 l 1
0 -80 m 1
 0 -40 l 1
 600 -40 l 1
 600 -80 l 1
 0 -80 l 1
0 -120 m 1
 0 -80 l 1
 600 -80 l 1
 600 -120 l 1
 0 -120 l 1
EndSplineSet
EndChar

StartChar: grave
Encoding: 96 96 65
Width: 600
Flags: HW
LayerCount: 2
Back
Fore
SplineSet
200 720 m 1
 200 760 l 1
 360 760 l 1
 360 720 l 1
 200 720 l 1
240 680 m 1
 240 720 l 1
 400 720 l 1
 400 680 l 1
 240 680 l 1
280 640 m 1
 280 680 l 1
 400 680 l 1
 400 640 l 1
 280 640 l 1
320 600 m 1
 320 640 l 1
 440 640 l 1
 440 600 l 1
 320 600 l 1
EndSplineSet
EndChar

StartChar: a
Encoding: 97 97 66
Width: 600
Flags: HW
LayerCount: 2
Back
Fore
SplineSet
160 480 m 1
 160 520 l 1
 440 520 l 1
 440 480 l 1
 160 480 l 1
80 440 m 1
 80 480 l 1
 480 480 l 1
 480 440 l 1
 80 440 l 1
80 400 m 1
 80 440 l 1
 520 440 l 1
 520 400 l 1
 80 400 l 1
80 360 m 1
 80 400 l 1
 120 400 l 1
 120 360 l 1
 80 360 l 1
320 360 m 1
 320 400 l 1
 520 400 l 1
 520 360 l 1
 320 360 l 1
360 320 m 1
 360 360 l 1
 520 360 l 1
 520 320 l 1
 360 320 l 1
160 280 m 1
 160 320 l 1
 520 320 l 1
 520 280 l 1
 160 280 l 1
80 240 m 1
 80 280 l 1
 520 280 l 1
 520 240 l 1
 80 240 l 1
40 200 m 1
 40 240 l 1
 520 240 l 1
 520 200 l 1
 40 200 l 1
40 160 m 1
 40 200 l 1
 200 200 l 1
 200 160 l 1
 40 160 l 1
360 160 m 1
 360 200 l 1
 520 200 l 1
 520 160 l 1
 360 160 l 1
40 120 m 1
 40 160 l 1
 200 160 l 1
 200 120 l 1
 40 120 l 1
320 120 m 1
 320 160 l 1
 520 160 l 1
 520 120 l 1
 320 120 l 1
40 80 m 1
 40 120 l 1
 520 120 l 1
 520 80 l 1
 40 80 l 1
80 40 m 1
 80 80 l 1
 560 80 l 1
 560 40 l 1
 80 40 l 1
120 0 m 1
 120 40 l 1
 320 40 l 1
 320 0 l 1
 120 0 l 1
400 0 m 1
 400 40 l 1
 560 40 l 1
 560 0 l 1
 400 0 l 1
EndSplineSet
EndChar

StartChar: b
Encoding: 98 98 67
Width: 600
Flags: HW
LayerCount: 2
Back
Fore
SplineSet
40 720 m 1
 40 760 l 1
 200 760 l 1
 200 720 l 1
 40 720 l 1
40 680 m 1
 40 720 l 1
 200 720 l 1
 200 680 l 1
 40 680 l 1
40 640 m 1
 40 680 l 1
 200 680 l 1
 200 640 l 1
 40 640 l 1
40 600 m 1
 40 640 l 1
 200 640 l 1
 200 600 l 1
 40 600 l 1
40 560 m 1
 40 600 l 1
 200 600 l 1
 200 560 l 1
 40 560 l 1
40 520 m 1
 40 560 l 1
 200 560 l 1
 200 520 l 1
 40 520 l 1
40 480 m 1
 40 520 l 1
 200 520 l 1
 200 480 l 1
 40 480 l 1
280 480 m 1
 280 520 l 1
 440 520 l 1
 440 480 l 1
 280 480 l 1
40 440 m 1
 40 480 l 1
 200 480 l 1
 200 440 l 1
 40 440 l 1
240 440 m 1
 240 480 l 1
 520 480 l 1
 520 440 l 1
 240 440 l 1
40 400 m 1
 40 440 l 1
 520 440 l 1
 520 400 l 1
 40 400 l 1
40 360 m 1
 40 400 l 1
 560 400 l 1
 560 360 l 1
 40 360 l 1
40 320 m 1
 40 360 l 1
 240 360 l 1
 240 320 l 1
 40 320 l 1
360 320 m 1
 360 360 l 1
 560 360 l 1
 560 320 l 1
 360 320 l 1
40 280 m 1
 40 320 l 1
 200 320 l 1
 200 280 l 1
 40 280 l 1
400 280 m 1
 400 320 l 1
 560 320 l 1
 560 280 l 1
 400 280 l 1
40 240 m 1
 40 280 l 1
 200 280 l 1
 200 240 l 1
 40 240 l 1
400 240 m 1
 400 280 l 1
 560 280 l 1
 560 240 l 1
 400 240 l 1
40 200 m 1
 40 240 l 1
 200 240 l 1
 200 200 l 1
 40 200 l 1
400 200 m 1
 400 240 l 1
 560 240 l 1
 560 200 l 1
 400 200 l 1
40 160 m 1
 40 200 l 1
 200 200 l 1
 200 160 l 1
 40 160 l 1
400 160 m 1
 400 200 l 1
 560 200 l 1
 560 160 l 1
 400 160 l 1
40 120 m 1
 40 160 l 1
 240 160 l 1
 240 120 l 1
 40 120 l 1
360 120 m 1
 360 160 l 1
 520 160 l 1
 520 120 l 1
 360 120 l 1
40 80 m 1
 40 120 l 1
 520 120 l 1
 520 80 l 1
 40 80 l 1
40 40 m 1
 40 80 l 1
 480 80 l 1
 480 40 l 1
 40 40 l 1
40 0 m 1
 40 40 l 1
 160 40 l 1
 160 0 l 1
 40 0 l 1
240 0 m 1
 240 40 l 1
 440 40 l 1
 440 0 l 1
 240 0 l 1
EndSplineSet
EndChar

StartChar: c
Encoding: 99 99 68
Width: 600
Flags: HW
LayerCount: 2
Back
Fore
SplineSet
200 480 m 1
 200 520 l 1
 560 520 l 1
 560 480 l 1
 200 480 l 1
120 440 m 1
 120 480 l 1
 560 480 l 1
 560 440 l 1
 120 440 l 1
80 400 m 1
 80 440 l 1
 560 440 l 1
 560 400 l 1
 80 400 l 1
80 360 m 1
 80 400 l 1
 280 400 l 1
 280 360 l 1
 80 360 l 1
480 360 m 1
 480 400 l 1
 560 400 l 1
 560 360 l 1
 480 360 l 1
40 320 m 1
 40 360 l 1
 240 360 l 1
 240 320 l 1
 40 320 l 1
40 280 m 1
 40 320 l 1
 200 320 l 1
 200 280 l 1
 40 280 l 1
40 240 m 1
 40 280 l 1
 200 280 l 1
 200 240 l 1
 40 240 l 1
40 200 m 1
 40 240 l 1
 200 240 l 1
 200 200 l 1
 40 200 l 1
40 160 m 1
 40 200 l 1
 240 200 l 1
 240 160 l 1
 40 160 l 1
80 120 m 1
 80 160 l 1
 280 160 l 1
 280 120 l 1
 80 120 l 1
520 120 m 1
 520 160 l 1
 560 160 l 1
 560 120 l 1
 520 120 l 1
80 80 m 1
 80 120 l 1
 560 120 l 1
 560 80 l 1
 80 80 l 1
120 40 m 1
 120 80 l 1
 560 80 l 1
 560 40 l 1
 120 40 l 1
200 0 m 1
 200 40 l 1
 560 40 l 1
 560 0 l 1
 200 0 l 1
EndSplineSet
EndChar

StartChar: d
Encoding: 100 100 69
Width: 600
Flags: HW
LayerCount: 2
Back
Fore
SplineSet
400 720 m 1
 400 760 l 1
 560 760 l 1
 560 720 l 1
 400 720 l 1
400 680 m 1
 400 720 l 1
 560 720 l 1
 560 680 l 1
 400 680 l 1
400 640 m 1
 400 680 l 1
 560 680 l 1
 560 640 l 1
 400 640 l 1
400 600 m 1
 400 640 l 1
 560 640 l 1
 560 600 l 1
 400 600 l 1
400 560 m 1
 400 600 l 1
 560 600 l 1
 560 560 l 1
 400 560 l 1
400 520 m 1
 400 560 l 1
 560 560 l 1
 560 520 l 1
 400 520 l 1
160 480 m 1
 160 520 l 1
 360 520 l 1
 360 480 l 1
 160 480 l 1
400 480 m 1
 400 520 l 1
 560 520 l 1
 560 480 l 1
 400 480 l 1
120 440 m 1
 120 480 l 1
 560 480 l 1
 560 440 l 1
 120 440 l 1
80 400 m 1
 80 440 l 1
 560 440 l 1
 560 400 l 1
 80 400 l 1
80 360 m 1
 80 400 l 1
 240 400 l 1
 240 360 l 1
 80 360 l 1
360 360 m 1
 360 400 l 1
 560 400 l 1
 560 360 l 1
 360 360 l 1
40 320 m 1
 40 360 l 1
 200 360 l 1
 200 320 l 1
 40 320 l 1
400 320 m 1
 400 360 l 1
 560 360 l 1
 560 320 l 1
 400 320 l 1
40 280 m 1
 40 320 l 1
 200 320 l 1
 200 280 l 1
 40 280 l 1
400 280 m 1
 400 320 l 1
 560 320 l 1
 560 280 l 1
 400 280 l 1
40 240 m 1
 40 280 l 1
 200 280 l 1
 200 240 l 1
 40 240 l 1
400 240 m 1
 400 280 l 1
 560 280 l 1
 560 240 l 1
 400 240 l 1
40 200 m 1
 40 240 l 1
 200 240 l 1
 200 200 l 1
 40 200 l 1
400 200 m 1
 400 240 l 1
 560 240 l 1
 560 200 l 1
 400 200 l 1
40 160 m 1
 40 200 l 1
 240 200 l 1
 240 160 l 1
 40 160 l 1
360 160 m 1
 360 200 l 1
 560 200 l 1
 560 160 l 1
 360 160 l 1
40 120 m 1
 40 160 l 1
 560 160 l 1
 560 120 l 1
 40 120 l 1
80 80 m 1
 80 120 l 1
 560 120 l 1
 560 80 l 1
 80 80 l 1
80 40 m 1
 80 80 l 1
 360 80 l 1
 360 40 l 1
 80 40 l 1
400 40 m 1
 400 80 l 1
 560 80 l 1
 560 40 l 1
 400 40 l 1
160 0 m 1
 160 40 l 1
 320 40 l 1
 320 0 l 1
 160 0 l 1
400 0 m 1
 400 40 l 1
 560 40 l 1
 560 0 l 1
 400 0 l 1
EndSplineSet
EndChar

StartChar: e
Encoding: 101 101 70
Width: 600
Flags: HW
LayerCount: 2
Back
Fore
SplineSet
200 480 m 1
 200 520 l 1
 440 520 l 1
 440 480 l 1
 200 480 l 1
120 440 m 1
 120 480 l 1
 480 480 l 1
 480 440 l 1
 120 440 l 1
80 400 m 1
 80 440 l 1
 520 440 l 1
 520 400 l 1
 80 400 l 1
80 360 m 1
 80 400 l 1
 240 400 l 1
 240 360 l 1
 80 360 l 1
400 360 m 1
 400 400 l 1
 520 400 l 1
 520 360 l 1
 400 360 l 1
40 320 m 1
 40 360 l 1
 200 360 l 1
 200 320 l 1
 40 320 l 1
400 320 m 1
 400 360 l 1
 560 360 l 1
 560 320 l 1
 400 320 l 1
40 280 m 1
 40 320 l 1
 560 320 l 1
 560 280 l 1
 40 280 l 1
40 240 m 1
 40 280 l 1
 560 280 l 1
 560 240 l 1
 40 240 l 1
40 200 m 1
 40 240 l 1
 560 240 l 1
 560 200 l 1
 40 200 l 1
40 160 m 1
 40 200 l 1
 200 200 l 1
 200 160 l 1
 40 160 l 1
80 120 m 1
 80 160 l 1
 240 160 l 1
 240 120 l 1
 80 120 l 1
520 120 m 1
 520 160 l 1
 560 160 l 1
 560 120 l 1
 520 120 l 1
80 80 m 1
 80 120 l 1
 560 120 l 1
 560 80 l 1
 80 80 l 1
120 40 m 1
 120 80 l 1
 560 80 l 1
 560 40 l 1
 120 40 l 1
200 0 m 1
 200 40 l 1
 480 40 l 1
 480 0 l 1
 200 0 l 1
EndSplineSet
EndChar

StartChar: f
Encoding: 102 102 71
Width: 600
Flags: HW
LayerCount: 2
Back
Fore
SplineSet
320 720 m 1
 320 760 l 1
 560 760 l 1
 560 720 l 1
 320 720 l 1
240 680 m 1
 240 720 l 1
 600 720 l 1
 600 680 l 1
 240 680 l 1
200 640 m 1
 200 680 l 1
 600 680 l 1
 600 640 l 1
 200 640 l 1
200 600 m 1
 200 640 l 1
 360 640 l 1
 360 600 l 1
 200 600 l 1
560 600 m 1
 560 640 l 1
 600 640 l 1
 600 600 l 1
 560 600 l 1
200 560 m 1
 200 600 l 1
 360 600 l 1
 360 560 l 1
 200 560 l 1
200 520 m 1
 200 560 l 1
 360 560 l 1
 360 520 l 1
 200 520 l 1
80 480 m 1
 80 520 l 1
 560 520 l 1
 560 480 l 1
 80 480 l 1
80 440 m 1
 80 480 l 1
 560 480 l 1
 560 440 l 1
 80 440 l 1
80 400 m 1
 80 440 l 1
 560 440 l 1
 560 400 l 1
 80 400 l 1
200 360 m 1
 200 400 l 1
 360 400 l 1
 360 360 l 1
 200 360 l 1
200 320 m 1
 200 360 l 1
 360 360 l 1
 360 320 l 1
 200 320 l 1
200 280 m 1
 200 320 l 1
 360 320 l 1
 360 280 l 1
 200 280 l 1
200 240 m 1
 200 280 l 1
 360 280 l 1
 360 240 l 1
 200 240 l 1
200 200 m 1
 200 240 l 1
 360 240 l 1
 360 200 l 1
 200 200 l 1
200 160 m 1
 200 200 l 1
 360 200 l 1
 360 160 l 1
 200 160 l 1
200 120 m 1
 200 160 l 1
 360 160 l 1
 360 120 l 1
 200 120 l 1
200 80 m 1
 200 120 l 1
 360 120 l 1
 360 80 l 1
 200 80 l 1
200 40 m 1
 200 80 l 1
 360 80 l 1
 360 40 l 1
 200 40 l 1
200 0 m 1
 200 40 l 1
 360 40 l 1
 360 0 l 1
 200 0 l 1
EndSplineSet
EndChar

StartChar: g
Encoding: 103 103 72
Width: 600
Flags: HW
LayerCount: 2
Back
Fore
SplineSet
160 480 m 1
 160 520 l 1
 360 520 l 1
 360 480 l 1
 160 480 l 1
440 480 m 1
 440 520 l 1
 560 520 l 1
 560 480 l 1
 440 480 l 1
120 440 m 1
 120 480 l 1
 400 480 l 1
 400 440 l 1
 120 440 l 1
440 440 m 1
 440 480 l 1
 560 480 l 1
 560 440 l 1
 440 440 l 1
80 400 m 1
 80 440 l 1
 560 440 l 1
 560 400 l 1
 80 400 l 1
80 360 m 1
 80 400 l 1
 240 400 l 1
 240 360 l 1
 80 360 l 1
360 360 m 1
 360 400 l 1
 560 400 l 1
 560 360 l 1
 360 360 l 1
40 320 m 1
 40 360 l 1
 200 360 l 1
 200 320 l 1
 40 320 l 1
400 320 m 1
 400 360 l 1
 560 360 l 1
 560 320 l 1
 400 320 l 1
40 280 m 1
 40 320 l 1
 200 320 l 1
 200 280 l 1
 40 280 l 1
400 280 m 1
 400 320 l 1
 560 320 l 1
 560 280 l 1
 400 280 l 1
40 240 m 1
 40 280 l 1
 200 280 l 1
 200 240 l 1
 40 240 l 1
400 240 m 1
 400 280 l 1
 560 280 l 1
 560 240 l 1
 400 240 l 1
40 200 m 1
 40 240 l 1
 200 240 l 1
 200 200 l 1
 40 200 l 1
400 200 m 1
 400 240 l 1
 560 240 l 1
 560 200 l 1
 400 200 l 1
40 160 m 1
 40 200 l 1
 240 200 l 1
 240 160 l 1
 40 160 l 1
360 160 m 1
 360 200 l 1
 560 200 l 1
 560 160 l 1
 360 160 l 1
40 120 m 1
 40 160 l 1
 560 160 l 1
 560 120 l 1
 40 120 l 1
80 80 m 1
 80 120 l 1
 560 120 l 1
 560 80 l 1
 80 80 l 1
80 40 m 1
 80 80 l 1
 360 80 l 1
 360 40 l 1
 80 40 l 1
400 40 m 1
 400 80 l 1
 560 80 l 1
 560 40 l 1
 400 40 l 1
160 0 m 1
 160 40 l 1
 320 40 l 1
 320 0 l 1
 160 0 l 1
400 0 m 1
 400 40 l 1
 560 40 l 1
 560 0 l 1
 400 0 l 1
400 -40 m 1
 400 0 l 1
 560 0 l 1
 560 -40 l 1
 400 -40 l 1
120 -80 m 1
 120 -40 l 1
 160 -40 l 1
 160 -80 l 1
 120 -80 l 1
360 -80 m 1
 360 -40 l 1
 520 -40 l 1
 520 -80 l 1
 360 -80 l 1
120 -120 m 1
 120 -80 l 1
 520 -80 l 1
 520 -120 l 1
 120 -120 l 1
80 -160 m 1
 80 -120 l 1
 480 -120 l 1
 480 -160 l 1
 80 -160 l 1
160 -200 m 1
 160 -160 l 1
 440 -160 l 1
 440 -200 l 1
 160 -200 l 1
EndSplineSet
EndChar

StartChar: h
Encoding: 104 104 73
Width: 600
Flags: HW
LayerCount: 2
Back
Fore
SplineSet
80 720 m 1
 80 760 l 1
 240 760 l 1
 240 720 l 1
 80 720 l 1
80 680 m 1
 80 720 l 1
 240 720 l 1
 240 680 l 1
 80 680 l 1
80 640 m 1
 80 680 l 1
 240 680 l 1
 240 640 l 1
 80 640 l 1
80 600 m 1
 80 640 l 1
 240 640 l 1
 240 600 l 1
 80 600 l 1
80 560 m 1
 80 600 l 1
 240 600 l 1
 240 560 l 1
 80 560 l 1
80 520 m 1
 80 560 l 1
 240 560 l 1
 240 520 l 1
 80 520 l 1
80 480 m 1
 80 520 l 1
 240 520 l 1
 240 480 l 1
 80 480 l 1
320 480 m 1
 320 520 l 1
 480 520 l 1
 480 480 l 1
 320 480 l 1
80 440 m 1
 80 480 l 1
 240 480 l 1
 240 440 l 1
 80 440 l 1
280 440 m 1
 280 480 l 1
 520 480 l 1
 520 440 l 1
 280 440 l 1
80 400 m 1
 80 440 l 1
 560 440 l 1
 560 400 l 1
 80 400 l 1
80 360 m 1
 80 400 l 1
 560 400 l 1
 560 360 l 1
 80 360 l 1
80 320 m 1
 80 360 l 1
 280 360 l 1
 280 320 l 1
 80 320 l 1
400 320 m 1
 400 360 l 1
 560 360 l 1
 560 320 l 1
 400 320 l 1
80 280 m 1
 80 320 l 1
 240 320 l 1
 240 280 l 1
 80 280 l 1
400 280 m 1
 400 320 l 1
 560 320 l 1
 560 280 l 1
 400 280 l 1
80 240 m 1
 80 280 l 1
 240 280 l 1
 240 240 l 1
 80 240 l 1
400 240 m 1
 400 280 l 1
 560 280 l 1
 560 240 l 1
 400 240 l 1
80 200 m 1
 80 240 l 1
 240 240 l 1
 240 200 l 1
 80 200 l 1
400 200 m 1
 400 240 l 1
 560 240 l 1
 560 200 l 1
 400 200 l 1
80 160 m 1
 80 200 l 1
 240 200 l 1
 240 160 l 1
 80 160 l 1
400 160 m 1
 400 200 l 1
 560 200 l 1
 560 160 l 1
 400 160 l 1
80 120 m 1
 80 160 l 1
 240 160 l 1
 240 120 l 1
 80 120 l 1
400 120 m 1
 400 160 l 1
 560 160 l 1
 560 120 l 1
 400 120 l 1
80 80 m 1
 80 120 l 1
 240 120 l 1
 240 80 l 1
 80 80 l 1
400 80 m 1
 400 120 l 1
 560 120 l 1
 560 80 l 1
 400 80 l 1
80 40 m 1
 80 80 l 1
 240 80 l 1
 240 40 l 1
 80 40 l 1
400 40 m 1
 400 80 l 1
 560 80 l 1
 560 40 l 1
 400 40 l 1
80 0 m 1
 80 40 l 1
 240 40 l 1
 240 0 l 1
 80 0 l 1
400 0 m 1
 400 40 l 1
 560 40 l 1
 560 0 l 1
 400 0 l 1
EndSplineSet
EndChar

StartChar: i
Encoding: 105 105 74
Width: 600
Flags: HW
LayerCount: 2
Back
Fore
SplineSet
280 720 m 1
 280 760 l 1
 440 760 l 1
 440 720 l 1
 280 720 l 1
280 680 m 1
 280 720 l 1
 440 720 l 1
 440 680 l 1
 280 680 l 1
280 640 m 1
 280 680 l 1
 440 680 l 1
 440 640 l 1
 280 640 l 1
280 600 m 1
 280 640 l 1
 440 640 l 1
 440 600 l 1
 280 600 l 1
80 480 m 1
 80 520 l 1
 440 520 l 1
 440 480 l 1
 80 480 l 1
80 440 m 1
 80 480 l 1
 440 480 l 1
 440 440 l 1
 80 440 l 1
80 400 m 1
 80 440 l 1
 440 440 l 1
 440 400 l 1
 80 400 l 1
280 360 m 1
 280 400 l 1
 440 400 l 1
 440 360 l 1
 280 360 l 1
280 320 m 1
 280 360 l 1
 440 360 l 1
 440 320 l 1
 280 320 l 1
280 280 m 1
 280 320 l 1
 440 320 l 1
 440 280 l 1
 280 280 l 1
280 240 m 1
 280 280 l 1
 440 280 l 1
 440 240 l 1
 280 240 l 1
280 200 m 1
 280 240 l 1
 440 240 l 1
 440 200 l 1
 280 200 l 1
280 160 m 1
 280 200 l 1
 440 200 l 1
 440 160 l 1
 280 160 l 1
280 120 m 1
 280 160 l 1
 440 160 l 1
 440 120 l 1
 280 120 l 1
280 80 m 1
 280 120 l 1
 440 120 l 1
 440 80 l 1
 280 80 l 1
280 40 m 1
 280 80 l 1
 440 80 l 1
 440 40 l 1
 280 40 l 1
280 0 m 1
 280 40 l 1
 440 40 l 1
 440 0 l 1
 280 0 l 1
EndSplineSet
EndChar

StartChar: j
Encoding: 106 106 75
Width: 600
Flags: HW
LayerCount: 2
Back
Fore
SplineSet
280 720 m 1
 280 760 l 1
 440 760 l 1
 440 720 l 1
 280 720 l 1
280 680 m 1
 280 720 l 1
 440 720 l 1
 440 680 l 1
 280 680 l 1
280 640 m 1
 280 680 l 1
 440 680 l 1
 440 640 l 1
 280 640 l 1
280 600 m 1
 280 640 l 1
 440 640 l 1
 440 600 l 1
 280 600 l 1
80 480 m 1
 80 520 l 1
 440 520 l 1
 440 480 l 1
 80 480 l 1
80 440 m 1
 80 480 l 1
 440 480 l 1
 440 440 l 1
 80 440 l 1
80 400 m 1
 80 440 l 1
 440 440 l 1
 440 400 l 1
 80 400 l 1
280 360 m 1
 280 400 l 1
 440 400 l 1
 440 360 l 1
 280 360 l 1
280 320 m 1
 280 360 l 1
 440 360 l 1
 440 320 l 1
 280 320 l 1
280 280 m 1
 280 320 l 1
 440 320 l 1
 440 280 l 1
 280 280 l 1
280 240 m 1
 280 280 l 1
 440 280 l 1
 440 240 l 1
 280 240 l 1
280 200 m 1
 280 240 l 1
 440 240 l 1
 440 200 l 1
 280 200 l 1
280 160 m 1
 280 200 l 1
 440 200 l 1
 440 160 l 1
 280 160 l 1
280 120 m 1
 280 160 l 1
 440 160 l 1
 440 120 l 1
 280 120 l 1
280 80 m 1
 280 120 l 1
 440 120 l 1
 440 80 l 1
 280 80 l 1
280 40 m 1
 280 80 l 1
 440 80 l 1
 440 40 l 1
 280 40 l 1
280 0 m 1
 280 40 l 1
 440 40 l 1
 440 0 l 1
 280 0 l 1
280 -40 m 1
 280 0 l 1
 440 0 l 1
 440 -40 l 1
 280 -40 l 1
40 -80 m 1
 40 -40 l 1
 80 -40 l 1
 80 -80 l 1
 40 -80 l 1
240 -80 m 1
 240 -40 l 1
 440 -40 l 1
 440 -80 l 1
 240 -80 l 1
40 -120 m 1
 40 -80 l 1
 400 -80 l 1
 400 -120 l 1
 40 -120 l 1
40 -160 m 1
 40 -120 l 1
 400 -120 l 1
 400 -160 l 1
 40 -160 l 1
80 -200 m 1
 80 -160 l 1
 360 -160 l 1
 360 -200 l 1
 80 -200 l 1
EndSplineSet
EndChar

StartChar: k
Encoding: 107 107 76
Width: 600
Flags: HW
LayerCount: 2
Back
Fore
SplineSet
80 720 m 1
 80 760 l 1
 240 760 l 1
 240 720 l 1
 80 720 l 1
80 680 m 1
 80 720 l 1
 240 720 l 1
 240 680 l 1
 80 680 l 1
80 640 m 1
 80 680 l 1
 240 680 l 1
 240 640 l 1
 80 640 l 1
80 600 m 1
 80 640 l 1
 240 640 l 1
 240 600 l 1
 80 600 l 1
80 560 m 1
 80 600 l 1
 240 600 l 1
 240 560 l 1
 80 560 l 1
80 520 m 1
 80 560 l 1
 240 560 l 1
 240 520 l 1
 80 520 l 1
80 480 m 1
 80 520 l 1
 240 520 l 1
 240 480 l 1
 80 480 l 1
400 480 m 1
 400 520 l 1
 560 520 l 1
 560 480 l 1
 400 480 l 1
80 440 m 1
 80 480 l 1
 240 480 l 1
 240 440 l 1
 80 440 l 1
360 440 m 1
 360 480 l 1
 520 480 l 1
 520 440 l 1
 360 440 l 1
80 400 m 1
 80 440 l 1
 240 440 l 1
 240 400 l 1
 80 400 l 1
360 400 m 1
 360 440 l 1
 480 440 l 1
 480 400 l 1
 360 400 l 1
80 360 m 1
 80 400 l 1
 240 400 l 1
 240 360 l 1
 80 360 l 1
320 360 m 1
 320 400 l 1
 440 400 l 1
 440 360 l 1
 320 360 l 1
80 320 m 1
 80 360 l 1
 240 360 l 1
 240 320 l 1
 80 320 l 1
280 320 m 1
 280 360 l 1
 440 360 l 1
 440 320 l 1
 280 320 l 1
80 280 m 1
 80 320 l 1
 400 320 l 1
 400 280 l 1
 80 280 l 1
80 240 m 1
 80 280 l 1
 440 280 l 1
 440 240 l 1
 80 240 l 1
80 200 m 1
 80 240 l 1
 240 240 l 1
 240 200 l 1
 80 200 l 1
280 200 m 1
 280 240 l 1
 480 240 l 1
 480 200 l 1
 280 200 l 1
80 160 m 1
 80 200 l 1
 240 200 l 1
 240 160 l 1
 80 160 l 1
280 160 m 1
 280 200 l 1
 480 200 l 1
 480 160 l 1
 280 160 l 1
80 120 m 1
 80 160 l 1
 240 160 l 1
 240 120 l 1
 80 120 l 1
320 120 m 1
 320 160 l 1
 520 160 l 1
 520 120 l 1
 320 120 l 1
80 80 m 1
 80 120 l 1
 240 120 l 1
 240 80 l 1
 80 80 l 1
360 80 m 1
 360 120 l 1
 560 120 l 1
 560 80 l 1
 360 80 l 1
80 40 m 1
 80 80 l 1
 240 80 l 1
 240 40 l 1
 80 40 l 1
360 40 m 1
 360 80 l 1
 560 80 l 1
 560 40 l 1
 360 40 l 1
80 0 m 1
 80 40 l 1
 240 40 l 1
 240 0 l 1
 80 0 l 1
400 0 m 1
 400 40 l 1
 600 40 l 1
 600 0 l 1
 400 0 l 1
EndSplineSet
EndChar

StartChar: l
Encoding: 108 108 77
Width: 600
Flags: HW
LayerCount: 2
Back
Fore
SplineSet
40 720 m 1
 40 760 l 1
 400 760 l 1
 400 720 l 1
 40 720 l 1
40 680 m 1
 40 720 l 1
 400 720 l 1
 400 680 l 1
 40 680 l 1
40 640 m 1
 40 680 l 1
 400 680 l 1
 400 640 l 1
 40 640 l 1
240 600 m 1
 240 640 l 1
 400 640 l 1
 400 600 l 1
 240 600 l 1
240 560 m 1
 240 600 l 1
 400 600 l 1
 400 560 l 1
 240 560 l 1
240 520 m 1
 240 560 l 1
 400 560 l 1
 400 520 l 1
 240 520 l 1
240 480 m 1
 240 520 l 1
 400 520 l 1
 400 480 l 1
 240 480 l 1
240 440 m 1
 240 480 l 1
 400 480 l 1
 400 440 l 1
 240 440 l 1
240 400 m 1
 240 440 l 1
 400 440 l 1
 400 400 l 1
 240 400 l 1
240 360 m 1
 240 400 l 1
 400 400 l 1
 400 360 l 1
 240 360 l 1
240 320 m 1
 240 360 l 1
 400 360 l 1
 400 320 l 1
 240 320 l 1
240 280 m 1
 240 320 l 1
 400 320 l 1
 400 280 l 1
 240 280 l 1
240 240 m 1
 240 280 l 1
 400 280 l 1
 400 240 l 1
 240 240 l 1
240 200 m 1
 240 240 l 1
 400 240 l 1
 400 200 l 1
 240 200 l 1
240 160 m 1
 240 200 l 1
 400 200 l 1
 400 160 l 1
 240 160 l 1
240 120 m 1
 240 160 l 1
 400 160 l 1
 400 120 l 1
 240 120 l 1
240 80 m 1
 240 120 l 1
 400 120 l 1
 400 80 l 1
 240 80 l 1
240 40 m 1
 240 80 l 1
 400 80 l 1
 400 40 l 1
 240 40 l 1
240 0 m 1
 240 40 l 1
 400 40 l 1
 400 0 l 1
 240 0 l 1
EndSplineSet
EndChar

StartChar: m
Encoding: 109 109 78
Width: 600
Flags: HW
LayerCount: 2
Back
Fore
SplineSet
0 480 m 1
 0 520 l 1
 160 520 l 1
 160 480 l 1
 0 480 l 1
240 480 m 1
 240 520 l 1
 320 520 l 1
 320 480 l 1
 240 480 l 1
400 480 m 1
 400 520 l 1
 520 520 l 1
 520 480 l 1
 400 480 l 1
0 440 m 1
 0 480 l 1
 160 480 l 1
 160 440 l 1
 0 440 l 1
200 440 m 1
 200 480 l 1
 360 480 l 1
 360 440 l 1
 200 440 l 1
400 440 m 1
 400 480 l 1
 560 480 l 1
 560 440 l 1
 400 440 l 1
0 400 m 1
 0 440 l 1
 560 440 l 1
 560 400 l 1
 0 400 l 1
0 360 m 1
 0 400 l 1
 160 400 l 1
 160 360 l 1
 0 360 l 1
200 360 m 1
 200 400 l 1
 360 400 l 1
 360 360 l 1
 200 360 l 1
400 360 m 1
 400 400 l 1
 560 400 l 1
 560 360 l 1
 400 360 l 1
0 320 m 1
 0 360 l 1
 160 360 l 1
 160 320 l 1
 0 320 l 1
200 320 m 1
 200 360 l 1
 360 360 l 1
 360 320 l 1
 200 320 l 1
400 320 m 1
 400 360 l 1
 560 360 l 1
 560 320 l 1
 400 320 l 1
0 280 m 1
 0 320 l 1
 160 320 l 1
 160 280 l 1
 0 280 l 1
200 280 m 1
 200 320 l 1
 360 320 l 1
 360 280 l 1
 200 280 l 1
400 280 m 1
 400 320 l 1
 560 320 l 1
 560 280 l 1
 400 280 l 1
0 240 m 1
 0 280 l 1
 160 280 l 1
 160 240 l 1
 0 240 l 1
200 240 m 1
 200 280 l 1
 360 280 l 1
 360 240 l 1
 200 240 l 1
400 240 m 1
 400 280 l 1
 560 280 l 1
 560 240 l 1
 400 240 l 1
0 200 m 1
 0 240 l 1
 160 240 l 1
 160 200 l 1
 0 200 l 1
200 200 m 1
 200 240 l 1
 360 240 l 1
 360 200 l 1
 200 200 l 1
400 200 m 1
 400 240 l 1
 560 240 l 1
 560 200 l 1
 400 200 l 1
0 160 m 1
 0 200 l 1
 160 200 l 1
 160 160 l 1
 0 160 l 1
200 160 m 1
 200 200 l 1
 360 200 l 1
 360 160 l 1
 200 160 l 1
400 160 m 1
 400 200 l 1
 560 200 l 1
 560 160 l 1
 400 160 l 1
0 120 m 1
 0 160 l 1
 160 160 l 1
 160 120 l 1
 0 120 l 1
200 120 m 1
 200 160 l 1
 360 160 l 1
 360 120 l 1
 200 120 l 1
400 120 m 1
 400 160 l 1
 560 160 l 1
 560 120 l 1
 400 120 l 1
0 80 m 1
 0 120 l 1
 160 120 l 1
 160 80 l 1
 0 80 l 1
200 80 m 1
 200 120 l 1
 360 120 l 1
 360 80 l 1
 200 80 l 1
400 80 m 1
 400 120 l 1
 560 120 l 1
 560 80 l 1
 400 80 l 1
0 40 m 1
 0 80 l 1
 160 80 l 1
 160 40 l 1
 0 40 l 1
200 40 m 1
 200 80 l 1
 360 80 l 1
 360 40 l 1
 200 40 l 1
400 40 m 1
 400 80 l 1
 560 80 l 1
 560 40 l 1
 400 40 l 1
0 0 m 1
 0 40 l 1
 160 40 l 1
 160 0 l 1
 0 0 l 1
200 0 m 1
 200 40 l 1
 360 40 l 1
 360 0 l 1
 200 0 l 1
400 0 m 1
 400 40 l 1
 560 40 l 1
 560 0 l 1
 400 0 l 1
EndSplineSet
EndChar

StartChar: n
Encoding: 110 110 79
Width: 600
Flags: HW
LayerCount: 2
Back
Fore
SplineSet
80 480 m 1
 80 520 l 1
 240 520 l 1
 240 480 l 1
 80 480 l 1
320 480 m 1
 320 520 l 1
 480 520 l 1
 480 480 l 1
 320 480 l 1
80 440 m 1
 80 480 l 1
 240 480 l 1
 240 440 l 1
 80 440 l 1
280 440 m 1
 280 480 l 1
 520 480 l 1
 520 440 l 1
 280 440 l 1
80 400 m 1
 80 440 l 1
 560 440 l 1
 560 400 l 1
 80 400 l 1
80 360 m 1
 80 400 l 1
 560 400 l 1
 560 360 l 1
 80 360 l 1
80 320 m 1
 80 360 l 1
 280 360 l 1
 280 320 l 1
 80 320 l 1
400 320 m 1
 400 360 l 1
 560 360 l 1
 560 320 l 1
 400 320 l 1
80 280 m 1
 80 320 l 1
 240 320 l 1
 240 280 l 1
 80 280 l 1
400 280 m 1
 400 320 l 1
 560 320 l 1
 560 280 l 1
 400 280 l 1
80 240 m 1
 80 280 l 1
 240 280 l 1
 240 240 l 1
 80 240 l 1
400 240 m 1
 400 280 l 1
 560 280 l 1
 560 240 l 1
 400 240 l 1
80 200 m 1
 80 240 l 1
 240 240 l 1
 240 200 l 1
 80 200 l 1
400 200 m 1
 400 240 l 1
 560 240 l 1
 560 200 l 1
 400 200 l 1
80 160 m 1
 80 200 l 1
 240 200 l 1
 240 160 l 1
 80 160 l 1
400 160 m 1
 400 200 l 1
 560 200 l 1
 560 160 l 1
 400 160 l 1
80 120 m 1
 80 160 l 1
 240 160 l 1
 240 120 l 1
 80 120 l 1
400 120 m 1
 400 160 l 1
 560 160 l 1
 560 120 l 1
 400 120 l 1
80 80 m 1
 80 120 l 1
 240 120 l 1
 240 80 l 1
 80 80 l 1
400 80 m 1
 400 120 l 1
 560 120 l 1
 560 80 l 1
 400 80 l 1
80 40 m 1
 80 80 l 1
 240 80 l 1
 240 40 l 1
 80 40 l 1
400 40 m 1
 400 80 l 1
 560 80 l 1
 560 40 l 1
 400 40 l 1
80 0 m 1
 80 40 l 1
 240 40 l 1
 240 0 l 1
 80 0 l 1
400 0 m 1
 400 40 l 1
 560 40 l 1
 560 0 l 1
 400 0 l 1
EndSplineSet
EndChar

StartChar: o
Encoding: 111 111 80
Width: 600
Flags: HW
LayerCount: 2
Back
Fore
SplineSet
160 480 m 1
 160 520 l 1
 400 520 l 1
 400 480 l 1
 160 480 l 1
80 440 m 1
 80 480 l 1
 480 480 l 1
 480 440 l 1
 80 440 l 1
40 400 m 1
 40 440 l 1
 520 440 l 1
 520 400 l 1
 40 400 l 1
40 360 m 1
 40 400 l 1
 200 400 l 1
 200 360 l 1
 40 360 l 1
360 360 m 1
 360 400 l 1
 520 400 l 1
 520 360 l 1
 360 360 l 1
0 320 m 1
 0 360 l 1
 160 360 l 1
 160 320 l 1
 0 320 l 1
400 320 m 1
 400 360 l 1
 560 360 l 1
 560 320 l 1
 400 320 l 1
0 280 m 1
 0 320 l 1
 160 320 l 1
 160 280 l 1
 0 280 l 1
400 280 m 1
 400 320 l 1
 560 320 l 1
 560 280 l 1
 400 280 l 1
0 240 m 1
 0 280 l 1
 160 280 l 1
 160 240 l 1
 0 240 l 1
400 240 m 1
 400 280 l 1
 560 280 l 1
 560 240 l 1
 400 240 l 1
0 200 m 1
 0 240 l 1
 160 240 l 1
 160 200 l 1
 0 200 l 1
400 200 m 1
 400 240 l 1
 560 240 l 1
 560 200 l 1
 400 200 l 1
0 160 m 1
 0 200 l 1
 160 200 l 1
 160 160 l 1
 0 160 l 1
400 160 m 1
 400 200 l 1
 560 200 l 1
 560 160 l 1
 400 160 l 1
40 120 m 1
 40 160 l 1
 200 160 l 1
 200 120 l 1
 40 120 l 1
360 120 m 1
 360 160 l 1
 520 160 l 1
 520 120 l 1
 360 120 l 1
40 80 m 1
 40 120 l 1
 520 120 l 1
 520 80 l 1
 40 80 l 1
80 40 m 1
 80 80 l 1
 480 80 l 1
 480 40 l 1
 80 40 l 1
160 0 m 1
 160 40 l 1
 400 40 l 1
 400 0 l 1
 160 0 l 1
EndSplineSet
EndChar

StartChar: p
Encoding: 112 112 81
Width: 600
Flags: HW
LayerCount: 2
Back
Fore
SplineSet
40 480 m 1
 40 520 l 1
 200 520 l 1
 200 480 l 1
 40 480 l 1
280 480 m 1
 280 520 l 1
 440 520 l 1
 440 480 l 1
 280 480 l 1
40 440 m 1
 40 480 l 1
 200 480 l 1
 200 440 l 1
 40 440 l 1
240 440 m 1
 240 480 l 1
 520 480 l 1
 520 440 l 1
 240 440 l 1
40 400 m 1
 40 440 l 1
 520 440 l 1
 520 400 l 1
 40 400 l 1
40 360 m 1
 40 400 l 1
 560 400 l 1
 560 360 l 1
 40 360 l 1
40 320 m 1
 40 360 l 1
 240 360 l 1
 240 320 l 1
 40 320 l 1
360 320 m 1
 360 360 l 1
 560 360 l 1
 560 320 l 1
 360 320 l 1
40 280 m 1
 40 320 l 1
 200 320 l 1
 200 280 l 1
 40 280 l 1
400 280 m 1
 400 320 l 1
 560 320 l 1
 560 280 l 1
 400 280 l 1
40 240 m 1
 40 280 l 1
 200 280 l 1
 200 240 l 1
 40 240 l 1
400 240 m 1
 400 280 l 1
 560 280 l 1
 560 240 l 1
 400 240 l 1
40 200 m 1
 40 240 l 1
 200 240 l 1
 200 200 l 1
 40 200 l 1
400 200 m 1
 400 240 l 1
 560 240 l 1
 560 200 l 1
 400 200 l 1
40 160 m 1
 40 200 l 1
 200 200 l 1
 200 160 l 1
 40 160 l 1
400 160 m 1
 400 200 l 1
 560 200 l 1
 560 160 l 1
 400 160 l 1
40 120 m 1
 40 160 l 1
 240 160 l 1
 240 120 l 1
 40 120 l 1
360 120 m 1
 360 160 l 1
 520 160 l 1
 520 120 l 1
 360 120 l 1
40 80 m 1
 40 120 l 1
 520 120 l 1
 520 80 l 1
 40 80 l 1
40 40 m 1
 40 80 l 1
 480 80 l 1
 480 40 l 1
 40 40 l 1
40 0 m 1
 40 40 l 1
 200 40 l 1
 200 0 l 1
 40 0 l 1
240 0 m 1
 240 40 l 1
 440 40 l 1
 440 0 l 1
 240 0 l 1
40 -40 m 1
 40 0 l 1
 200 0 l 1
 200 -40 l 1
 40 -40 l 1
40 -80 m 1
 40 -40 l 1
 200 -40 l 1
 200 -80 l 1
 40 -80 l 1
40 -120 m 1
 40 -80 l 1
 200 -80 l 1
 200 -120 l 1
 40 -120 l 1
40 -160 m 1
 40 -120 l 1
 200 -120 l 1
 200 -160 l 1
 40 -160 l 1
40 -200 m 1
 40 -160 l 1
 200 -160 l 1
 200 -200 l 1
 40 -200 l 1
EndSplineSet
EndChar

StartChar: q
Encoding: 113 113 82
Width: 600
Flags: HW
LayerCount: 2
Back
Fore
SplineSet
160 480 m 1
 160 520 l 1
 360 520 l 1
 360 480 l 1
 160 480 l 1
440 480 m 1
 440 520 l 1
 560 520 l 1
 560 480 l 1
 440 480 l 1
120 440 m 1
 120 480 l 1
 560 480 l 1
 560 440 l 1
 120 440 l 1
80 400 m 1
 80 440 l 1
 560 440 l 1
 560 400 l 1
 80 400 l 1
80 360 m 1
 80 400 l 1
 240 400 l 1
 240 360 l 1
 80 360 l 1
360 360 m 1
 360 400 l 1
 560 400 l 1
 560 360 l 1
 360 360 l 1
40 320 m 1
 40 360 l 1
 200 360 l 1
 200 320 l 1
 40 320 l 1
400 320 m 1
 400 360 l 1
 560 360 l 1
 560 320 l 1
 400 320 l 1
40 280 m 1
 40 320 l 1
 200 320 l 1
 200 280 l 1
 40 280 l 1
400 280 m 1
 400 320 l 1
 560 320 l 1
 560 280 l 1
 400 280 l 1
40 240 m 1
 40 280 l 1
 200 280 l 1
 200 240 l 1
 40 240 l 1
400 240 m 1
 400 280 l 1
 560 280 l 1
 560 240 l 1
 400 240 l 1
40 200 m 1
 40 240 l 1
 200 240 l 1
 200 200 l 1
 40 200 l 1
400 200 m 1
 400 240 l 1
 560 240 l 1
 560 200 l 1
 400 200 l 1
40 160 m 1
 40 200 l 1
 240 200 l 1
 240 160 l 1
 40 160 l 1
360 160 m 1
 360 200 l 1
 560 200 l 1
 560 160 l 1
 360 160 l 1
40 120 m 1
 40 160 l 1
 560 160 l 1
 560 120 l 1
 40 120 l 1
80 80 m 1
 80 120 l 1
 560 120 l 1
 560 80 l 1
 80 80 l 1
80 40 m 1
 80 80 l 1
 360 80 l 1
 360 40 l 1
 80 40 l 1
400 40 m 1
 400 80 l 1
 560 80 l 1
 560 40 l 1
 400 40 l 1
160 0 m 1
 160 40 l 1
 320 40 l 1
 320 0 l 1
 160 0 l 1
400 0 m 1
 400 40 l 1
 560 40 l 1
 560 0 l 1
 400 0 l 1
400 -40 m 1
 400 0 l 1
 560 0 l 1
 560 -40 l 1
 400 -40 l 1
400 -80 m 1
 400 -40 l 1
 560 -40 l 1
 560 -80 l 1
 400 -80 l 1
400 -120 m 1
 400 -80 l 1
 560 -80 l 1
 560 -120 l 1
 400 -120 l 1
400 -160 m 1
 400 -120 l 1
 560 -120 l 1
 560 -160 l 1
 400 -160 l 1
400 -200 m 1
 400 -160 l 1
 560 -160 l 1
 560 -200 l 1
 400 -200 l 1
EndSplineSet
EndChar

StartChar: r
Encoding: 114 114 83
Width: 600
Flags: HW
LayerCount: 2
Back
Fore
SplineSet
120 480 m 1
 120 520 l 1
 280 520 l 1
 280 480 l 1
 120 480 l 1
360 480 m 1
 360 520 l 1
 560 520 l 1
 560 480 l 1
 360 480 l 1
120 440 m 1
 120 480 l 1
 280 480 l 1
 280 440 l 1
 120 440 l 1
320 440 m 1
 320 480 l 1
 560 480 l 1
 560 440 l 1
 320 440 l 1
120 400 m 1
 120 440 l 1
 560 440 l 1
 560 400 l 1
 120 400 l 1
120 360 m 1
 120 400 l 1
 560 400 l 1
 560 360 l 1
 120 360 l 1
120 320 m 1
 120 360 l 1
 360 360 l 1
 360 320 l 1
 120 320 l 1
440 320 m 1
 440 360 l 1
 560 360 l 1
 560 320 l 1
 440 320 l 1
120 280 m 1
 120 320 l 1
 320 320 l 1
 320 280 l 1
 120 280 l 1
120 240 m 1
 120 280 l 1
 280 280 l 1
 280 240 l 1
 120 240 l 1
120 200 m 1
 120 240 l 1
 280 240 l 1
 280 200 l 1
 120 200 l 1
120 160 m 1
 120 200 l 1
 280 200 l 1
 280 160 l 1
 120 160 l 1
120 120 m 1
 120 160 l 1
 280 160 l 1
 280 120 l 1
 120 120 l 1
120 80 m 1
 120 120 l 1
 280 120 l 1
 280 80 l 1
 120 80 l 1
120 40 m 1
 120 80 l 1
 280 80 l 1
 280 40 l 1
 120 40 l 1
120 0 m 1
 120 40 l 1
 280 40 l 1
 280 0 l 1
 120 0 l 1
EndSplineSet
EndChar

StartChar: s
Encoding: 115 115 84
Width: 600
Flags: HW
LayerCount: 2
Back
Fore
SplineSet
200 480 m 1
 200 520 l 1
 480 520 l 1
 480 480 l 1
 200 480 l 1
120 440 m 1
 120 480 l 1
 520 480 l 1
 520 440 l 1
 120 440 l 1
80 400 m 1
 80 440 l 1
 520 440 l 1
 520 400 l 1
 80 400 l 1
80 360 m 1
 80 400 l 1
 240 400 l 1
 240 360 l 1
 80 360 l 1
480 360 m 1
 480 400 l 1
 520 400 l 1
 520 360 l 1
 480 360 l 1
80 320 m 1
 80 360 l 1
 360 360 l 1
 360 320 l 1
 80 320 l 1
80 280 m 1
 80 320 l 1
 480 320 l 1
 480 280 l 1
 80 280 l 1
120 240 m 1
 120 280 l 1
 520 280 l 1
 520 240 l 1
 120 240 l 1
200 200 m 1
 200 240 l 1
 560 240 l 1
 560 200 l 1
 200 200 l 1
320 160 m 1
 320 200 l 1
 560 200 l 1
 560 160 l 1
 320 160 l 1
80 120 m 1
 80 160 l 1
 160 160 l 1
 160 120 l 1
 80 120 l 1
360 120 m 1
 360 160 l 1
 560 160 l 1
 560 120 l 1
 360 120 l 1
80 80 m 1
 80 120 l 1
 560 120 l 1
 560 80 l 1
 80 80 l 1
80 40 m 1
 80 80 l 1
 520 80 l 1
 520 40 l 1
 80 40 l 1
120 0 m 1
 120 40 l 1
 440 40 l 1
 440 0 l 1
 120 0 l 1
EndSplineSet
EndChar

StartChar: t
Encoding: 116 116 85
Width: 600
Flags: HW
LayerCount: 2
Back
Fore
SplineSet
240 640 m 1
 240 680 l 1
 360 680 l 1
 360 640 l 1
 240 640 l 1
200 600 m 1
 200 640 l 1
 360 640 l 1
 360 600 l 1
 200 600 l 1
200 560 m 1
 200 600 l 1
 360 600 l 1
 360 560 l 1
 200 560 l 1
200 520 m 1
 200 560 l 1
 360 560 l 1
 360 520 l 1
 200 520 l 1
80 480 m 1
 80 520 l 1
 560 520 l 1
 560 480 l 1
 80 480 l 1
80 440 m 1
 80 480 l 1
 560 480 l 1
 560 440 l 1
 80 440 l 1
80 400 m 1
 80 440 l 1
 560 440 l 1
 560 400 l 1
 80 400 l 1
200 360 m 1
 200 400 l 1
 360 400 l 1
 360 360 l 1
 200 360 l 1
200 320 m 1
 200 360 l 1
 360 360 l 1
 360 320 l 1
 200 320 l 1
200 280 m 1
 200 320 l 1
 360 320 l 1
 360 280 l 1
 200 280 l 1
200 240 m 1
 200 280 l 1
 360 280 l 1
 360 240 l 1
 200 240 l 1
200 200 m 1
 200 240 l 1
 360 240 l 1
 360 200 l 1
 200 200 l 1
200 160 m 1
 200 200 l 1
 360 200 l 1
 360 160 l 1
 200 160 l 1
200 120 m 1
 200 160 l 1
 360 160 l 1
 360 120 l 1
 200 120 l 1
520 120 m 1
 520 160 l 1
 560 160 l 1
 560 120 l 1
 520 120 l 1
200 80 m 1
 200 120 l 1
 560 120 l 1
 560 80 l 1
 200 80 l 1
240 40 m 1
 240 80 l 1
 560 80 l 1
 560 40 l 1
 240 40 l 1
280 0 m 1
 280 40 l 1
 520 40 l 1
 520 0 l 1
 280 0 l 1
EndSplineSet
EndChar

StartChar: u
Encoding: 117 117 86
Width: 600
Flags: HW
LayerCount: 2
Back
Fore
SplineSet
40 480 m 1
 40 520 l 1
 200 520 l 1
 200 480 l 1
 40 480 l 1
360 480 m 1
 360 520 l 1
 520 520 l 1
 520 480 l 1
 360 480 l 1
40 440 m 1
 40 480 l 1
 200 480 l 1
 200 440 l 1
 40 440 l 1
360 440 m 1
 360 480 l 1
 520 480 l 1
 520 440 l 1
 360 440 l 1
40 400 m 1
 40 440 l 1
 200 440 l 1
 200 400 l 1
 40 400 l 1
360 400 m 1
 360 440 l 1
 520 440 l 1
 520 400 l 1
 360 400 l 1
40 360 m 1
 40 400 l 1
 200 400 l 1
 200 360 l 1
 40 360 l 1
360 360 m 1
 360 400 l 1
 520 400 l 1
 520 360 l 1
 360 360 l 1
40 320 m 1
 40 360 l 1
 200 360 l 1
 200 320 l 1
 40 320 l 1
360 320 m 1
 360 360 l 1
 520 360 l 1
 520 320 l 1
 360 320 l 1
40 280 m 1
 40 320 l 1
 200 320 l 1
 200 280 l 1
 40 280 l 1
360 280 m 1
 360 320 l 1
 520 320 l 1
 520 280 l 1
 360 280 l 1
40 240 m 1
 40 280 l 1
 200 280 l 1
 200 240 l 1
 40 240 l 1
360 240 m 1
 360 280 l 1
 520 280 l 1
 520 240 l 1
 360 240 l 1
40 200 m 1
 40 240 l 1
 200 240 l 1
 200 200 l 1
 40 200 l 1
360 200 m 1
 360 240 l 1
 520 240 l 1
 520 200 l 1
 360 200 l 1
40 160 m 1
 40 200 l 1
 200 200 l 1
 200 160 l 1
 40 160 l 1
320 160 m 1
 320 200 l 1
 520 200 l 1
 520 160 l 1
 320 160 l 1
40 120 m 1
 40 160 l 1
 520 160 l 1
 520 120 l 1
 40 120 l 1
40 80 m 1
 40 120 l 1
 520 120 l 1
 520 80 l 1
 40 80 l 1
80 40 m 1
 80 80 l 1
 320 80 l 1
 320 40 l 1
 80 40 l 1
360 40 m 1
 360 80 l 1
 520 80 l 1
 520 40 l 1
 360 40 l 1
120 0 m 1
 120 40 l 1
 280 40 l 1
 280 0 l 1
 120 0 l 1
360 0 m 1
 360 40 l 1
 520 40 l 1
 520 0 l 1
 360 0 l 1
EndSplineSet
EndChar

StartChar: v
Encoding: 118 118 87
Width: 600
Flags: HW
LayerCount: 2
Back
Fore
SplineSet
40 480 m 1
 40 520 l 1
 200 520 l 1
 200 480 l 1
 40 480 l 1
480 480 m 1
 480 520 l 1
 600 520 l 1
 600 480 l 1
 480 480 l 1
40 440 m 1
 40 480 l 1
 240 480 l 1
 240 440 l 1
 40 440 l 1
440 440 m 1
 440 480 l 1
 600 480 l 1
 600 440 l 1
 440 440 l 1
80 400 m 1
 80 440 l 1
 240 440 l 1
 240 400 l 1
 80 400 l 1
440 400 m 1
 440 440 l 1
 560 440 l 1
 560 400 l 1
 440 400 l 1
80 360 m 1
 80 400 l 1
 240 400 l 1
 240 360 l 1
 80 360 l 1
440 360 m 1
 440 400 l 1
 560 400 l 1
 560 360 l 1
 440 360 l 1
120 320 m 1
 120 360 l 1
 280 360 l 1
 280 320 l 1
 120 320 l 1
400 320 m 1
 400 360 l 1
 520 360 l 1
 520 320 l 1
 400 320 l 1
120 280 m 1
 120 320 l 1
 280 320 l 1
 280 280 l 1
 120 280 l 1
400 280 m 1
 400 320 l 1
 520 320 l 1
 520 280 l 1
 400 280 l 1
120 240 m 1
 120 280 l 1
 320 280 l 1
 320 240 l 1
 120 240 l 1
360 240 m 1
 360 280 l 1
 520 280 l 1
 520 240 l 1
 360 240 l 1
160 200 m 1
 160 240 l 1
 320 240 l 1
 320 200 l 1
 160 200 l 1
360 200 m 1
 360 240 l 1
 480 240 l 1
 480 200 l 1
 360 200 l 1
160 160 m 1
 160 200 l 1
 320 200 l 1
 320 160 l 1
 160 160 l 1
360 160 m 1
 360 200 l 1
 480 200 l 1
 480 160 l 1
 360 160 l 1
200 120 m 1
 200 160 l 1
 440 160 l 1
 440 120 l 1
 200 120 l 1
200 80 m 1
 200 120 l 1
 440 120 l 1
 440 80 l 1
 200 80 l 1
200 40 m 1
 200 80 l 1
 440 80 l 1
 440 40 l 1
 200 40 l 1
240 0 m 1
 240 40 l 1
 400 40 l 1
 400 0 l 1
 240 0 l 1
EndSplineSet
EndChar

StartChar: w
Encoding: 119 119 88
Width: 600
Flags: HW
LayerCount: 2
Back
Fore
SplineSet
0 480 m 1
 0 520 l 1
 160 520 l 1
 160 480 l 1
 0 480 l 1
480 480 m 1
 480 520 l 1
 600 520 l 1
 600 480 l 1
 480 480 l 1
0 440 m 1
 0 480 l 1
 160 480 l 1
 160 440 l 1
 0 440 l 1
240 440 m 1
 240 480 l 1
 400 480 l 1
 400 440 l 1
 240 440 l 1
480 440 m 1
 480 480 l 1
 600 480 l 1
 600 440 l 1
 480 440 l 1
0 400 m 1
 0 440 l 1
 160 440 l 1
 160 400 l 1
 0 400 l 1
240 400 m 1
 240 440 l 1
 400 440 l 1
 400 400 l 1
 240 400 l 1
480 400 m 1
 480 440 l 1
 600 440 l 1
 600 400 l 1
 480 400 l 1
40 360 m 1
 40 400 l 1
 200 400 l 1
 200 360 l 1
 40 360 l 1
240 360 m 1
 240 400 l 1
 400 400 l 1
 400 360 l 1
 240 360 l 1
480 360 m 1
 480 400 l 1
 560 400 l 1
 560 360 l 1
 480 360 l 1
40 320 m 1
 40 360 l 1
 400 360 l 1
 400 320 l 1
 40 320 l 1
480 320 m 1
 480 360 l 1
 560 360 l 1
 560 320 l 1
 480 320 l 1
40 280 m 1
 40 320 l 1
 440 320 l 1
 440 280 l 1
 40 280 l 1
480 280 m 1
 480 320 l 1
 560 320 l 1
 560 280 l 1
 480 280 l 1
40 240 m 1
 40 280 l 1
 560 280 l 1
 560 240 l 1
 40 240 l 1
40 200 m 1
 40 240 l 1
 560 240 l 1
 560 200 l 1
 40 200 l 1
40 160 m 1
 40 200 l 1
 280 200 l 1
 280 160 l 1
 40 160 l 1
320 160 m 1
 320 200 l 1
 560 200 l 1
 560 160 l 1
 320 160 l 1
80 120 m 1
 80 160 l 1
 280 160 l 1
 280 120 l 1
 80 120 l 1
360 120 m 1
 360 160 l 1
 520 160 l 1
 520 120 l 1
 360 120 l 1
80 80 m 1
 80 120 l 1
 280 120 l 1
 280 80 l 1
 80 80 l 1
360 80 m 1
 360 120 l 1
 520 120 l 1
 520 80 l 1
 360 80 l 1
80 40 m 1
 80 80 l 1
 240 80 l 1
 240 40 l 1
 80 40 l 1
360 40 m 1
 360 80 l 1
 520 80 l 1
 520 40 l 1
 360 40 l 1
80 0 m 1
 80 40 l 1
 240 40 l 1
 240 0 l 1
 80 0 l 1
400 0 m 1
 400 40 l 1
 520 40 l 1
 520 0 l 1
 400 0 l 1
EndSplineSet
EndChar

StartChar: x
Encoding: 120 120 89
Width: 600
Flags: HW
LayerCount: 2
Back
Fore
SplineSet
40 480 m 1
 40 520 l 1
 240 520 l 1
 240 480 l 1
 40 480 l 1
440 480 m 1
 440 520 l 1
 600 520 l 1
 600 480 l 1
 440 480 l 1
80 440 m 1
 80 480 l 1
 280 480 l 1
 280 440 l 1
 80 440 l 1
400 440 m 1
 400 480 l 1
 560 480 l 1
 560 440 l 1
 400 440 l 1
120 400 m 1
 120 440 l 1
 320 440 l 1
 320 400 l 1
 120 400 l 1
360 400 m 1
 360 440 l 1
 520 440 l 1
 520 400 l 1
 360 400 l 1
160 360 m 1
 160 400 l 1
 480 400 l 1
 480 360 l 1
 160 360 l 1
160 320 m 1
 160 360 l 1
 440 360 l 1
 440 320 l 1
 160 320 l 1
200 280 m 1
 200 320 l 1
 440 320 l 1
 440 280 l 1
 200 280 l 1
200 240 m 1
 200 280 l 1
 440 280 l 1
 440 240 l 1
 200 240 l 1
200 200 m 1
 200 240 l 1
 440 240 l 1
 440 200 l 1
 200 200 l 1
160 160 m 1
 160 200 l 1
 480 200 l 1
 480 160 l 1
 160 160 l 1
120 120 m 1
 120 160 l 1
 280 160 l 1
 280 120 l 1
 120 120 l 1
320 120 m 1
 320 160 l 1
 520 160 l 1
 520 120 l 1
 320 120 l 1
80 80 m 1
 80 120 l 1
 240 120 l 1
 240 80 l 1
 80 80 l 1
320 80 m 1
 320 120 l 1
 520 120 l 1
 520 80 l 1
 320 80 l 1
80 40 m 1
 80 80 l 1
 200 80 l 1
 200 40 l 1
 80 40 l 1
360 40 m 1
 360 80 l 1
 560 80 l 1
 560 40 l 1
 360 40 l 1
40 0 m 1
 40 40 l 1
 200 40 l 1
 200 0 l 1
 40 0 l 1
400 0 m 1
 400 40 l 1
 600 40 l 1
 600 0 l 1
 400 0 l 1
EndSplineSet
EndChar

StartChar: y
Encoding: 121 121 90
Width: 600
Flags: HW
LayerCount: 2
Back
Fore
SplineSet
40 480 m 1
 40 520 l 1
 200 520 l 1
 200 480 l 1
 40 480 l 1
480 480 m 1
 480 520 l 1
 600 520 l 1
 600 480 l 1
 480 480 l 1
40 440 m 1
 40 480 l 1
 240 480 l 1
 240 440 l 1
 40 440 l 1
440 440 m 1
 440 480 l 1
 600 480 l 1
 600 440 l 1
 440 440 l 1
80 400 m 1
 80 440 l 1
 240 440 l 1
 240 400 l 1
 80 400 l 1
440 400 m 1
 440 440 l 1
 560 440 l 1
 560 400 l 1
 440 400 l 1
80 360 m 1
 80 400 l 1
 280 400 l 1
 280 360 l 1
 80 360 l 1
400 360 m 1
 400 400 l 1
 560 400 l 1
 560 360 l 1
 400 360 l 1
120 320 m 1
 120 360 l 1
 280 360 l 1
 280 320 l 1
 120 320 l 1
400 320 m 1
 400 360 l 1
 520 360 l 1
 520 320 l 1
 400 320 l 1
120 280 m 1
 120 320 l 1
 320 320 l 1
 320 280 l 1
 120 280 l 1
400 280 m 1
 400 320 l 1
 520 320 l 1
 520 280 l 1
 400 280 l 1
160 240 m 1
 160 280 l 1
 320 280 l 1
 320 240 l 1
 160 240 l 1
360 240 m 1
 360 280 l 1
 480 280 l 1
 480 240 l 1
 360 240 l 1
160 200 m 1
 160 240 l 1
 480 240 l 1
 480 200 l 1
 160 200 l 1
200 160 m 1
 200 200 l 1
 440 200 l 1
 440 160 l 1
 200 160 l 1
200 120 m 1
 200 160 l 1
 440 160 l 1
 440 120 l 1
 200 120 l 1
240 80 m 1
 240 120 l 1
 440 120 l 1
 440 80 l 1
 240 80 l 1
240 40 m 1
 240 80 l 1
 400 80 l 1
 400 40 l 1
 240 40 l 1
240 0 m 1
 240 40 l 1
 400 40 l 1
 400 0 l 1
 240 0 l 1
240 -40 m 1
 240 0 l 1
 360 0 l 1
 360 -40 l 1
 240 -40 l 1
200 -80 m 1
 200 -40 l 1
 360 -40 l 1
 360 -80 l 1
 200 -80 l 1
80 -120 m 1
 80 -80 l 1
 320 -80 l 1
 320 -120 l 1
 80 -120 l 1
80 -160 m 1
 80 -120 l 1
 320 -120 l 1
 320 -160 l 1
 80 -160 l 1
80 -200 m 1
 80 -160 l 1
 240 -160 l 1
 240 -200 l 1
 80 -200 l 1
EndSplineSet
EndChar

StartChar: z
Encoding: 122 122 91
Width: 600
Flags: HW
LayerCount: 2
Back
Fore
SplineSet
80 480 m 1
 80 520 l 1
 560 520 l 1
 560 480 l 1
 80 480 l 1
80 440 m 1
 80 480 l 1
 560 480 l 1
 560 440 l 1
 80 440 l 1
80 400 m 1
 80 440 l 1
 560 440 l 1
 560 400 l 1
 80 400 l 1
320 360 m 1
 320 400 l 1
 560 400 l 1
 560 360 l 1
 320 360 l 1
280 320 m 1
 280 360 l 1
 520 360 l 1
 520 320 l 1
 280 320 l 1
240 280 m 1
 240 320 l 1
 480 320 l 1
 480 280 l 1
 240 280 l 1
200 240 m 1
 200 280 l 1
 440 280 l 1
 440 240 l 1
 200 240 l 1
160 200 m 1
 160 240 l 1
 400 240 l 1
 400 200 l 1
 160 200 l 1
120 160 m 1
 120 200 l 1
 360 200 l 1
 360 160 l 1
 120 160 l 1
80 120 m 1
 80 160 l 1
 320 160 l 1
 320 120 l 1
 80 120 l 1
80 80 m 1
 80 120 l 1
 560 120 l 1
 560 80 l 1
 80 80 l 1
80 40 m 1
 80 80 l 1
 560 80 l 1
 560 40 l 1
 80 40 l 1
80 0 m 1
 80 40 l 1
 560 40 l 1
 560 0 l 1
 80 0 l 1
EndSplineSet
EndChar

StartChar: braceleft
Encoding: 123 123 92
Width: 600
Flags: HW
LayerCount: 2
Back
Fore
SplineSet
280 720 m 1
 280 760 l 1
 520 760 l 1
 520 720 l 1
 280 720 l 1
200 680 m 1
 200 720 l 1
 520 720 l 1
 520 680 l 1
 200 680 l 1
200 640 m 1
 200 680 l 1
 520 680 l 1
 520 640 l 1
 200 640 l 1
200 600 m 1
 200 640 l 1
 360 640 l 1
 360 600 l 1
 200 600 l 1
200 560 m 1
 200 600 l 1
 360 600 l 1
 360 560 l 1
 200 560 l 1
240 520 m 1
 240 560 l 1
 360 560 l 1
 360 520 l 1
 240 520 l 1
240 480 m 1
 240 520 l 1
 400 520 l 1
 400 480 l 1
 240 480 l 1
240 440 m 1
 240 480 l 1
 400 480 l 1
 400 440 l 1
 240 440 l 1
240 400 m 1
 240 440 l 1
 400 440 l 1
 400 400 l 1
 240 400 l 1
240 360 m 1
 240 400 l 1
 400 400 l 1
 400 360 l 1
 240 360 l 1
80 320 m 1
 80 360 l 1
 360 360 l 1
 360 320 l 1
 80 320 l 1
80 280 m 1
 80 320 l 1
 280 320 l 1
 280 280 l 1
 80 280 l 1
80 240 m 1
 80 280 l 1
 360 280 l 1
 360 240 l 1
 80 240 l 1
240 200 m 1
 240 240 l 1
 400 240 l 1
 400 200 l 1
 240 200 l 1
240 160 m 1
 240 200 l 1
 400 200 l 1
 400 160 l 1
 240 160 l 1
240 120 m 1
 240 160 l 1
 400 160 l 1
 400 120 l 1
 240 120 l 1
240 80 m 1
 240 120 l 1
 400 120 l 1
 400 80 l 1
 240 80 l 1
200 40 m 1
 200 80 l 1
 360 80 l 1
 360 40 l 1
 200 40 l 1
200 0 m 1
 200 40 l 1
 360 40 l 1
 360 0 l 1
 200 0 l 1
200 -40 m 1
 200 0 l 1
 360 0 l 1
 360 -40 l 1
 200 -40 l 1
200 -80 m 1
 200 -40 l 1
 520 -40 l 1
 520 -80 l 1
 200 -80 l 1
200 -120 m 1
 200 -80 l 1
 520 -80 l 1
 520 -120 l 1
 200 -120 l 1
280 -160 m 1
 280 -120 l 1
 520 -120 l 1
 520 -160 l 1
 280 -160 l 1
EndSplineSet
EndChar

StartChar: bar
Encoding: 124 124 93
Width: 600
Flags: HW
LayerCount: 2
Back
Fore
SplineSet
240 720 m 1
 240 760 l 1
 360 760 l 1
 360 720 l 1
 240 720 l 1
240 680 m 1
 240 720 l 1
 360 720 l 1
 360 680 l 1
 240 680 l 1
240 640 m 1
 240 680 l 1
 360 680 l 1
 360 640 l 1
 240 640 l 1
240 600 m 1
 240 640 l 1
 360 640 l 1
 360 600 l 1
 240 600 l 1
240 560 m 1
 240 600 l 1
 360 600 l 1
 360 560 l 1
 240 560 l 1
240 520 m 1
 240 560 l 1
 360 560 l 1
 360 520 l 1
 240 520 l 1
240 480 m 1
 240 520 l 1
 360 520 l 1
 360 480 l 1
 240 480 l 1
240 440 m 1
 240 480 l 1
 360 480 l 1
 360 440 l 1
 240 440 l 1
240 400 m 1
 240 440 l 1
 360 440 l 1
 360 400 l 1
 240 400 l 1
240 360 m 1
 240 400 l 1
 360 400 l 1
 360 360 l 1
 240 360 l 1
240 320 m 1
 240 360 l 1
 360 360 l 1
 360 320 l 1
 240 320 l 1
240 280 m 1
 240 320 l 1
 360 320 l 1
 360 280 l 1
 240 280 l 1
240 240 m 1
 240 280 l 1
 360 280 l 1
 360 240 l 1
 240 240 l 1
240 200 m 1
 240 240 l 1
 360 240 l 1
 360 200 l 1
 240 200 l 1
240 160 m 1
 240 200 l 1
 360 200 l 1
 360 160 l 1
 240 160 l 1
240 120 m 1
 240 160 l 1
 360 160 l 1
 360 120 l 1
 240 120 l 1
240 80 m 1
 240 120 l 1
 360 120 l 1
 360 80 l 1
 240 80 l 1
240 40 m 1
 240 80 l 1
 360 80 l 1
 360 40 l 1
 240 40 l 1
240 0 m 1
 240 40 l 1
 360 40 l 1
 360 0 l 1
 240 0 l 1
240 -40 m 1
 240 0 l 1
 360 0 l 1
 360 -40 l 1
 240 -40 l 1
240 -80 m 1
 240 -40 l 1
 360 -40 l 1
 360 -80 l 1
 240 -80 l 1
240 -120 m 1
 240 -80 l 1
 360 -80 l 1
 360 -120 l 1
 240 -120 l 1
240 -160 m 1
 240 -120 l 1
 360 -120 l 1
 360 -160 l 1
 240 -160 l 1
EndSplineSet
EndChar

StartChar: braceright
Encoding: 125 125 94
Width: 600
Flags: HW
LayerCount: 2
Back
Fore
SplineSet
80 720 m 1
 80 760 l 1
 320 760 l 1
 320 720 l 1
 80 720 l 1
80 680 m 1
 80 720 l 1
 400 720 l 1
 400 680 l 1
 80 680 l 1
80 640 m 1
 80 680 l 1
 400 680 l 1
 400 640 l 1
 80 640 l 1
240 600 m 1
 240 640 l 1
 400 640 l 1
 400 600 l 1
 240 600 l 1
240 560 m 1
 240 600 l 1
 400 600 l 1
 400 560 l 1
 240 560 l 1
240 520 m 1
 240 560 l 1
 400 560 l 1
 400 520 l 1
 240 520 l 1
200 480 m 1
 200 520 l 1
 360 520 l 1
 360 480 l 1
 200 480 l 1
200 440 m 1
 200 480 l 1
 360 480 l 1
 360 440 l 1
 200 440 l 1
200 400 m 1
 200 440 l 1
 360 440 l 1
 360 400 l 1
 200 400 l 1
200 360 m 1
 200 400 l 1
 360 400 l 1
 360 360 l 1
 200 360 l 1
240 320 m 1
 240 360 l 1
 520 360 l 1
 520 320 l 1
 240 320 l 1
320 280 m 1
 320 320 l 1
 520 320 l 1
 520 280 l 1
 320 280 l 1
240 240 m 1
 240 280 l 1
 520 280 l 1
 520 240 l 1
 240 240 l 1
200 200 m 1
 200 240 l 1
 360 240 l 1
 360 200 l 1
 200 200 l 1
200 160 m 1
 200 200 l 1
 360 200 l 1
 360 160 l 1
 200 160 l 1
200 120 m 1
 200 160 l 1
 360 160 l 1
 360 120 l 1
 200 120 l 1
200 80 m 1
 200 120 l 1
 360 120 l 1
 360 80 l 1
 200 80 l 1
240 40 m 1
 240 80 l 1
 360 80 l 1
 360 40 l 1
 240 40 l 1
240 0 m 1
 240 40 l 1
 400 40 l 1
 400 0 l 1
 240 0 l 1
240 -40 m 1
 240 0 l 1
 400 0 l 1
 400 -40 l 1
 240 -40 l 1
80 -80 m 1
 80 -40 l 1
 400 -40 l 1
 400 -80 l 1
 80 -80 l 1
80 -120 m 1
 80 -80 l 1
 400 -80 l 1
 400 -120 l 1
 80 -120 l 1
80 -160 m 1
 80 -120 l 1
 320 -120 l 1
 320 -160 l 1
 80 -160 l 1
EndSplineSet
EndChar

StartChar: asciitilde
Encoding: 126 126 95
Width: 600
Flags: HW
LayerCount: 2
Back
Fore
SplineSet
120 320 m 1
 120 360 l 1
 280 360 l 1
 280 320 l 1
 120 320 l 1
440 320 m 1
 440 360 l 1
 560 360 l 1
 560 320 l 1
 440 320 l 1
80 280 m 1
 80 320 l 1
 360 320 l 1
 360 280 l 1
 80 280 l 1
440 280 m 1
 440 320 l 1
 560 320 l 1
 560 280 l 1
 440 280 l 1
40 240 m 1
 40 280 l 1
 560 280 l 1
 560 240 l 1
 40 240 l 1
40 200 m 1
 40 240 l 1
 160 240 l 1
 160 200 l 1
 40 200 l 1
240 200 m 1
 240 240 l 1
 520 240 l 1
 520 200 l 1
 240 200 l 1
40 160 m 1
 40 200 l 1
 160 200 l 1
 160 160 l 1
 40 160 l 1
320 160 m 1
 320 200 l 1
 480 200 l 1
 480 160 l 1
 320 160 l 1
EndSplineSet
EndChar

StartChar: exclamdown
Encoding: 161 161 97
Width: 600
Flags: HW
LayerCount: 2
Back
Fore
SplineSet
200 480 m 1
 200 520 l 1
 360 520 l 1
 360 480 l 1
 200 480 l 1
200 440 m 1
 200 480 l 1
 360 480 l 1
 360 440 l 1
 200 440 l 1
200 400 m 1
 200 440 l 1
 360 440 l 1
 360 400 l 1
 200 400 l 1
200 360 m 1
 200 400 l 1
 360 400 l 1
 360 360 l 1
 200 360 l 1
240 280 m 1
 240 320 l 1
 360 320 l 1
 360 280 l 1
 240 280 l 1
240 240 m 1
 240 280 l 1
 360 280 l 1
 360 240 l 1
 240 240 l 1
240 200 m 1
 240 240 l 1
 360 240 l 1
 360 200 l 1
 240 200 l 1
240 160 m 1
 240 200 l 1
 360 200 l 1
 360 160 l 1
 240 160 l 1
240 120 m 1
 240 160 l 1
 360 160 l 1
 360 120 l 1
 240 120 l 1
200 80 m 1
 200 120 l 1
 360 120 l 1
 360 80 l 1
 200 80 l 1
200 40 m 1
 200 80 l 1
 360 80 l 1
 360 40 l 1
 200 40 l 1
200 0 m 1
 200 40 l 1
 360 40 l 1
 360 0 l 1
 200 0 l 1
200 -40 m 1
 200 0 l 1
 360 0 l 1
 360 -40 l 1
 200 -40 l 1
200 -80 m 1
 200 -40 l 1
 360 -40 l 1
 360 -80 l 1
 200 -80 l 1
200 -120 m 1
 200 -80 l 1
 360 -80 l 1
 360 -120 l 1
 200 -120 l 1
200 -160 m 1
 200 -120 l 1
 360 -120 l 1
 360 -160 l 1
 200 -160 l 1
200 -200 m 1
 200 -160 l 1
 360 -160 l 1
 360 -200 l 1
 200 -200 l 1
EndSplineSet
EndChar

StartChar: cent
Encoding: 162 162 98
Width: 600
Flags: HW
LayerCount: 2
Back
Fore
SplineSet
280 680 m 1
 280 720 l 1
 400 720 l 1
 400 680 l 1
 280 680 l 1
280 640 m 1
 280 680 l 1
 400 680 l 1
 400 640 l 1
 280 640 l 1
240 600 m 1
 240 640 l 1
 520 640 l 1
 520 600 l 1
 240 600 l 1
160 560 m 1
 160 600 l 1
 520 600 l 1
 520 560 l 1
 160 560 l 1
120 520 m 1
 120 560 l 1
 520 560 l 1
 520 520 l 1
 120 520 l 1
120 480 m 1
 120 520 l 1
 280 520 l 1
 280 480 l 1
 120 480 l 1
80 440 m 1
 80 480 l 1
 240 480 l 1
 240 440 l 1
 80 440 l 1
80 400 m 1
 80 440 l 1
 240 440 l 1
 240 400 l 1
 80 400 l 1
80 360 m 1
 80 400 l 1
 240 400 l 1
 240 360 l 1
 80 360 l 1
80 320 m 1
 80 360 l 1
 240 360 l 1
 240 320 l 1
 80 320 l 1
80 280 m 1
 80 320 l 1
 280 320 l 1
 280 280 l 1
 80 280 l 1
120 240 m 1
 120 280 l 1
 320 280 l 1
 320 240 l 1
 120 240 l 1
120 200 m 1
 120 240 l 1
 520 240 l 1
 520 200 l 1
 120 200 l 1
160 160 m 1
 160 200 l 1
 520 200 l 1
 520 160 l 1
 160 160 l 1
200 120 m 1
 200 160 l 1
 520 160 l 1
 520 120 l 1
 200 120 l 1
280 80 m 1
 280 120 l 1
 400 120 l 1
 400 80 l 1
 280 80 l 1
280 40 m 1
 280 80 l 1
 400 80 l 1
 400 40 l 1
 280 40 l 1
280 0 m 1
 280 40 l 1
 400 40 l 1
 400 0 l 1
 280 0 l 1
EndSplineSet
EndChar

StartChar: sterling
Encoding: 163 163 99
Width: 600
Flags: HW
LayerCount: 2
Back
Fore
SplineSet
240 680 m 1
 240 720 l 1
 520 720 l 1
 520 680 l 1
 240 680 l 1
200 640 m 1
 200 680 l 1
 520 680 l 1
 520 640 l 1
 200 640 l 1
160 600 m 1
 160 640 l 1
 520 640 l 1
 520 600 l 1
 160 600 l 1
160 560 m 1
 160 600 l 1
 320 600 l 1
 320 560 l 1
 160 560 l 1
160 520 m 1
 160 560 l 1
 320 560 l 1
 320 520 l 1
 160 520 l 1
160 480 m 1
 160 520 l 1
 320 520 l 1
 320 480 l 1
 160 480 l 1
160 440 m 1
 160 480 l 1
 320 480 l 1
 320 440 l 1
 160 440 l 1
80 400 m 1
 80 440 l 1
 440 440 l 1
 440 400 l 1
 80 400 l 1
80 360 m 1
 80 400 l 1
 440 400 l 1
 440 360 l 1
 80 360 l 1
80 320 m 1
 80 360 l 1
 440 360 l 1
 440 320 l 1
 80 320 l 1
160 280 m 1
 160 320 l 1
 320 320 l 1
 320 280 l 1
 160 280 l 1
160 240 m 1
 160 280 l 1
 320 280 l 1
 320 240 l 1
 160 240 l 1
160 200 m 1
 160 240 l 1
 320 240 l 1
 320 200 l 1
 160 200 l 1
160 160 m 1
 160 200 l 1
 280 200 l 1
 280 160 l 1
 160 160 l 1
160 120 m 1
 160 160 l 1
 240 160 l 1
 240 120 l 1
 160 120 l 1
80 80 m 1
 80 120 l 1
 520 120 l 1
 520 80 l 1
 80 80 l 1
80 40 m 1
 80 80 l 1
 520 80 l 1
 520 40 l 1
 80 40 l 1
80 0 m 1
 80 40 l 1
 520 40 l 1
 520 0 l 1
 80 0 l 1
EndSplineSet
EndChar

StartChar: currency
Encoding: 164 164 100
Width: 600
Flags: HW
LayerCount: 2
Back
Fore
SplineSet
80 600 m 1
 80 640 l 1
 160 640 l 1
 160 600 l 1
 80 600 l 1
440 600 m 1
 440 640 l 1
 520 640 l 1
 520 600 l 1
 440 600 l 1
40 560 m 1
 40 600 l 1
 560 600 l 1
 560 560 l 1
 40 560 l 1
40 520 m 1
 40 560 l 1
 520 560 l 1
 520 520 l 1
 40 520 l 1
80 480 m 1
 80 520 l 1
 480 520 l 1
 480 480 l 1
 80 480 l 1
80 440 m 1
 80 480 l 1
 240 480 l 1
 240 440 l 1
 80 440 l 1
360 440 m 1
 360 480 l 1
 480 480 l 1
 480 440 l 1
 360 440 l 1
80 400 m 1
 80 440 l 1
 200 440 l 1
 200 400 l 1
 80 400 l 1
400 400 m 1
 400 440 l 1
 520 440 l 1
 520 400 l 1
 400 400 l 1
80 360 m 1
 80 400 l 1
 200 400 l 1
 200 360 l 1
 80 360 l 1
400 360 m 1
 400 400 l 1
 520 400 l 1
 520 360 l 1
 400 360 l 1
80 320 m 1
 80 360 l 1
 200 360 l 1
 200 320 l 1
 80 320 l 1
400 320 m 1
 400 360 l 1
 520 360 l 1
 520 320 l 1
 400 320 l 1
80 280 m 1
 80 320 l 1
 200 320 l 1
 200 280 l 1
 80 280 l 1
400 280 m 1
 400 320 l 1
 520 320 l 1
 520 280 l 1
 400 280 l 1
80 240 m 1
 80 280 l 1
 240 280 l 1
 240 240 l 1
 80 240 l 1
360 240 m 1
 360 280 l 1
 480 280 l 1
 480 240 l 1
 360 240 l 1
80 200 m 1
 80 240 l 1
 520 240 l 1
 520 200 l 1
 80 200 l 1
40 160 m 1
 40 200 l 1
 520 200 l 1
 520 160 l 1
 40 160 l 1
40 120 m 1
 40 160 l 1
 560 160 l 1
 560 120 l 1
 40 120 l 1
80 80 m 1
 80 120 l 1
 160 120 l 1
 160 80 l 1
 80 80 l 1
480 80 m 1
 480 120 l 1
 520 120 l 1
 520 80 l 1
 480 80 l 1
EndSplineSet
EndChar

StartChar: yen
Encoding: 165 165 101
Width: 600
Flags: HW
LayerCount: 2
Back
Fore
SplineSet
0 680 m 1
 0 720 l 1
 200 720 l 1
 200 680 l 1
 0 680 l 1
480 680 m 1
 480 720 l 1
 640 720 l 1
 640 680 l 1
 480 680 l 1
40 640 m 1
 40 680 l 1
 240 680 l 1
 240 640 l 1
 40 640 l 1
440 640 m 1
 440 680 l 1
 600 680 l 1
 600 640 l 1
 440 640 l 1
80 600 m 1
 80 640 l 1
 280 640 l 1
 280 600 l 1
 80 600 l 1
400 600 m 1
 400 640 l 1
 560 640 l 1
 560 600 l 1
 400 600 l 1
120 560 m 1
 120 600 l 1
 320 600 l 1
 320 560 l 1
 120 560 l 1
360 560 m 1
 360 600 l 1
 520 600 l 1
 520 560 l 1
 360 560 l 1
160 520 m 1
 160 560 l 1
 480 560 l 1
 480 520 l 1
 160 520 l 1
160 480 m 1
 160 520 l 1
 480 520 l 1
 480 480 l 1
 160 480 l 1
200 440 m 1
 200 480 l 1
 440 480 l 1
 440 440 l 1
 200 440 l 1
120 400 m 1
 120 440 l 1
 520 440 l 1
 520 400 l 1
 120 400 l 1
120 360 m 1
 120 400 l 1
 520 400 l 1
 520 360 l 1
 120 360 l 1
120 320 m 1
 120 360 l 1
 520 360 l 1
 520 320 l 1
 120 320 l 1
240 280 m 1
 240 320 l 1
 400 320 l 1
 400 280 l 1
 240 280 l 1
120 240 m 1
 120 280 l 1
 520 280 l 1
 520 240 l 1
 120 240 l 1
120 200 m 1
 120 240 l 1
 520 240 l 1
 520 200 l 1
 120 200 l 1
120 160 m 1
 120 200 l 1
 520 200 l 1
 520 160 l 1
 120 160 l 1
240 120 m 1
 240 160 l 1
 400 160 l 1
 400 120 l 1
 240 120 l 1
240 80 m 1
 240 120 l 1
 400 120 l 1
 400 80 l 1
 240 80 l 1
240 40 m 1
 240 80 l 1
 400 80 l 1
 400 40 l 1
 240 40 l 1
240 0 m 1
 240 40 l 1
 400 40 l 1
 400 0 l 1
 240 0 l 1
EndSplineSet
EndChar

StartChar: brokenbar
Encoding: 166 166 102
Width: 600
Flags: HW
LayerCount: 2
Back
Fore
SplineSet
240 720 m 1
 240 760 l 1
 360 760 l 1
 360 720 l 1
 240 720 l 1
240 680 m 1
 240 720 l 1
 360 720 l 1
 360 680 l 1
 240 680 l 1
240 640 m 1
 240 680 l 1
 360 680 l 1
 360 640 l 1
 240 640 l 1
240 600 m 1
 240 640 l 1
 360 640 l 1
 360 600 l 1
 240 600 l 1
240 560 m 1
 240 600 l 1
 360 600 l 1
 360 560 l 1
 240 560 l 1
240 520 m 1
 240 560 l 1
 360 560 l 1
 360 520 l 1
 240 520 l 1
240 480 m 1
 240 520 l 1
 360 520 l 1
 360 480 l 1
 240 480 l 1
240 440 m 1
 240 480 l 1
 360 480 l 1
 360 440 l 1
 240 440 l 1
240 400 m 1
 240 440 l 1
 360 440 l 1
 360 400 l 1
 240 400 l 1
240 160 m 1
 240 200 l 1
 360 200 l 1
 360 160 l 1
 240 160 l 1
240 120 m 1
 240 160 l 1
 360 160 l 1
 360 120 l 1
 240 120 l 1
240 80 m 1
 240 120 l 1
 360 120 l 1
 360 80 l 1
 240 80 l 1
240 40 m 1
 240 80 l 1
 360 80 l 1
 360 40 l 1
 240 40 l 1
240 0 m 1
 240 40 l 1
 360 40 l 1
 360 0 l 1
 240 0 l 1
240 -40 m 1
 240 0 l 1
 360 0 l 1
 360 -40 l 1
 240 -40 l 1
240 -80 m 1
 240 -40 l 1
 360 -40 l 1
 360 -80 l 1
 240 -80 l 1
240 -120 m 1
 240 -80 l 1
 360 -80 l 1
 360 -120 l 1
 240 -120 l 1
240 -160 m 1
 240 -120 l 1
 360 -120 l 1
 360 -160 l 1
 240 -160 l 1
EndSplineSet
EndChar

StartChar: section
Encoding: 167 167 103
Width: 600
Flags: HW
LayerCount: 2
Back
Fore
SplineSet
200 680 m 1
 200 720 l 1
 440 720 l 1
 440 680 l 1
 200 680 l 1
120 640 m 1
 120 680 l 1
 440 680 l 1
 440 640 l 1
 120 640 l 1
80 600 m 1
 80 640 l 1
 440 640 l 1
 440 600 l 1
 80 600 l 1
80 560 m 1
 80 600 l 1
 240 600 l 1
 240 560 l 1
 80 560 l 1
400 560 m 1
 400 600 l 1
 440 600 l 1
 440 560 l 1
 400 560 l 1
80 520 m 1
 80 560 l 1
 240 560 l 1
 240 520 l 1
 80 520 l 1
80 480 m 1
 80 520 l 1
 240 520 l 1
 240 480 l 1
 80 480 l 1
120 440 m 1
 120 480 l 1
 320 480 l 1
 320 440 l 1
 120 440 l 1
160 400 m 1
 160 440 l 1
 400 440 l 1
 400 400 l 1
 160 400 l 1
120 360 m 1
 120 400 l 1
 440 400 l 1
 440 360 l 1
 120 360 l 1
80 320 m 1
 80 360 l 1
 240 360 l 1
 240 320 l 1
 80 320 l 1
280 320 m 1
 280 360 l 1
 480 360 l 1
 480 320 l 1
 280 320 l 1
80 280 m 1
 80 320 l 1
 200 320 l 1
 200 280 l 1
 80 280 l 1
320 280 m 1
 320 320 l 1
 480 320 l 1
 480 280 l 1
 320 280 l 1
80 240 m 1
 80 280 l 1
 200 280 l 1
 200 240 l 1
 80 240 l 1
360 240 m 1
 360 280 l 1
 480 280 l 1
 480 240 l 1
 360 240 l 1
80 200 m 1
 80 240 l 1
 240 240 l 1
 240 200 l 1
 80 200 l 1
360 200 m 1
 360 240 l 1
 480 240 l 1
 480 200 l 1
 360 200 l 1
80 160 m 1
 80 200 l 1
 480 200 l 1
 480 160 l 1
 80 160 l 1
120 120 m 1
 120 160 l 1
 440 160 l 1
 440 120 l 1
 120 120 l 1
160 80 m 1
 160 120 l 1
 400 120 l 1
 400 80 l 1
 160 80 l 1
200 40 m 1
 200 80 l 1
 440 80 l 1
 440 40 l 1
 200 40 l 1
280 0 m 1
 280 40 l 1
 480 40 l 1
 480 0 l 1
 280 0 l 1
320 -40 m 1
 320 0 l 1
 480 0 l 1
 480 -40 l 1
 320 -40 l 1
80 -80 m 1
 80 -40 l 1
 120 -40 l 1
 120 -80 l 1
 80 -80 l 1
280 -80 m 1
 280 -40 l 1
 480 -40 l 1
 480 -80 l 1
 280 -80 l 1
80 -120 m 1
 80 -80 l 1
 480 -80 l 1
 480 -120 l 1
 80 -120 l 1
80 -160 m 1
 80 -120 l 1
 440 -120 l 1
 440 -160 l 1
 80 -160 l 1
80 -200 m 1
 80 -160 l 1
 360 -160 l 1
 360 -200 l 1
 80 -200 l 1
EndSplineSet
EndChar

StartChar: dieresis
Encoding: 168 168 104
Width: 600
Flags: HW
LayerCount: 2
Back
Fore
SplineSet
160 680 m 1
 160 720 l 1
 280 720 l 1
 280 680 l 1
 160 680 l 1
320 680 m 1
 320 720 l 1
 440 720 l 1
 440 680 l 1
 320 680 l 1
160 640 m 1
 160 680 l 1
 280 680 l 1
 280 640 l 1
 160 640 l 1
320 640 m 1
 320 680 l 1
 440 680 l 1
 440 640 l 1
 320 640 l 1
160 600 m 1
 160 640 l 1
 280 640 l 1
 280 600 l 1
 160 600 l 1
320 600 m 1
 320 640 l 1
 440 640 l 1
 440 600 l 1
 320 600 l 1
EndSplineSet
EndChar

StartChar: copyright
Encoding: 169 169 105
Width: 600
Flags: HW
LayerCount: 2
Back
Fore
SplineSet
160 680 m 1
 160 720 l 1
 400 720 l 1
 400 680 l 1
 160 680 l 1
120 640 m 1
 120 680 l 1
 440 680 l 1
 440 640 l 1
 120 640 l 1
80 600 m 1
 80 640 l 1
 480 640 l 1
 480 600 l 1
 80 600 l 1
40 560 m 1
 40 600 l 1
 200 600 l 1
 200 560 l 1
 40 560 l 1
360 560 m 1
 360 600 l 1
 520 600 l 1
 520 560 l 1
 360 560 l 1
40 520 m 1
 40 560 l 1
 160 560 l 1
 160 520 l 1
 40 520 l 1
240 520 m 1
 240 560 l 1
 360 560 l 1
 360 520 l 1
 240 520 l 1
400 520 m 1
 400 560 l 1
 520 560 l 1
 520 520 l 1
 400 520 l 1
0 480 m 1
 0 520 l 1
 120 520 l 1
 120 480 l 1
 0 480 l 1
200 480 m 1
 200 520 l 1
 360 520 l 1
 360 480 l 1
 200 480 l 1
440 480 m 1
 440 520 l 1
 560 520 l 1
 560 480 l 1
 440 480 l 1
0 440 m 1
 0 480 l 1
 120 480 l 1
 120 440 l 1
 0 440 l 1
160 440 m 1
 160 480 l 1
 280 480 l 1
 280 440 l 1
 160 440 l 1
320 440 m 1
 320 480 l 1
 360 480 l 1
 360 440 l 1
 320 440 l 1
440 440 m 1
 440 480 l 1
 560 480 l 1
 560 440 l 1
 440 440 l 1
0 400 m 1
 0 440 l 1
 120 440 l 1
 120 400 l 1
 0 400 l 1
160 400 m 1
 160 440 l 1
 280 440 l 1
 280 400 l 1
 160 400 l 1
440 400 m 1
 440 440 l 1
 560 440 l 1
 560 400 l 1
 440 400 l 1
0 360 m 1
 0 400 l 1
 120 400 l 1
 120 360 l 1
 0 360 l 1
160 360 m 1
 160 400 l 1
 280 400 l 1
 280 360 l 1
 160 360 l 1
440 360 m 1
 440 400 l 1
 560 400 l 1
 560 360 l 1
 440 360 l 1
0 320 m 1
 0 360 l 1
 120 360 l 1
 120 320 l 1
 0 320 l 1
160 320 m 1
 160 360 l 1
 280 360 l 1
 280 320 l 1
 160 320 l 1
440 320 m 1
 440 360 l 1
 560 360 l 1
 560 320 l 1
 440 320 l 1
0 280 m 1
 0 320 l 1
 120 320 l 1
 120 280 l 1
 0 280 l 1
160 280 m 1
 160 320 l 1
 280 320 l 1
 280 280 l 1
 160 280 l 1
440 280 m 1
 440 320 l 1
 560 320 l 1
 560 280 l 1
 440 280 l 1
0 240 m 1
 0 280 l 1
 120 280 l 1
 120 240 l 1
 0 240 l 1
160 240 m 1
 160 280 l 1
 280 280 l 1
 280 240 l 1
 160 240 l 1
320 240 m 1
 320 280 l 1
 360 280 l 1
 360 240 l 1
 320 240 l 1
440 240 m 1
 440 280 l 1
 560 280 l 1
 560 240 l 1
 440 240 l 1
0 200 m 1
 0 240 l 1
 120 240 l 1
 120 200 l 1
 0 200 l 1
200 200 m 1
 200 240 l 1
 360 240 l 1
 360 200 l 1
 200 200 l 1
440 200 m 1
 440 240 l 1
 560 240 l 1
 560 200 l 1
 440 200 l 1
40 160 m 1
 40 200 l 1
 160 200 l 1
 160 160 l 1
 40 160 l 1
240 160 m 1
 240 200 l 1
 360 200 l 1
 360 160 l 1
 240 160 l 1
400 160 m 1
 400 200 l 1
 560 200 l 1
 560 160 l 1
 400 160 l 1
40 120 m 1
 40 160 l 1
 200 160 l 1
 200 120 l 1
 40 120 l 1
360 120 m 1
 360 160 l 1
 520 160 l 1
 520 120 l 1
 360 120 l 1
80 80 m 1
 80 120 l 1
 480 120 l 1
 480 80 l 1
 80 80 l 1
120 40 m 1
 120 80 l 1
 440 80 l 1
 440 40 l 1
 120 40 l 1
160 0 m 1
 160 40 l 1
 400 40 l 1
 400 0 l 1
 160 0 l 1
EndSplineSet
EndChar

StartChar: ordfeminine
Encoding: 170 170 106
Width: 600
Flags: HW
LayerCount: 2
Back
Fore
SplineSet
120 680 m 1
 120 720 l 1
 400 720 l 1
 400 680 l 1
 120 680 l 1
80 640 m 1
 80 680 l 1
 480 680 l 1
 480 640 l 1
 80 640 l 1
80 600 m 1
 80 640 l 1
 480 640 l 1
 480 600 l 1
 80 600 l 1
80 560 m 1
 80 600 l 1
 160 600 l 1
 160 560 l 1
 80 560 l 1
360 560 m 1
 360 600 l 1
 480 600 l 1
 480 560 l 1
 360 560 l 1
160 520 m 1
 160 560 l 1
 480 560 l 1
 480 520 l 1
 160 520 l 1
80 480 m 1
 80 520 l 1
 480 520 l 1
 480 480 l 1
 80 480 l 1
80 440 m 1
 80 480 l 1
 200 480 l 1
 200 440 l 1
 80 440 l 1
360 440 m 1
 360 480 l 1
 480 480 l 1
 480 440 l 1
 360 440 l 1
80 400 m 1
 80 440 l 1
 520 440 l 1
 520 400 l 1
 80 400 l 1
80 360 m 1
 80 400 l 1
 520 400 l 1
 520 360 l 1
 80 360 l 1
120 320 m 1
 120 360 l 1
 320 360 l 1
 320 320 l 1
 120 320 l 1
400 320 m 1
 400 360 l 1
 520 360 l 1
 520 320 l 1
 400 320 l 1
EndSplineSet
EndChar

StartChar: guillemotleft
Encoding: 171 171 107
Width: 600
Flags: HW
LayerCount: 2
Back
Fore
SplineSet
240 440 m 1
 240 480 l 1
 280 480 l 1
 280 440 l 1
 240 440 l 1
520 440 m 1
 520 480 l 1
 560 480 l 1
 560 440 l 1
 520 440 l 1
200 400 m 1
 200 440 l 1
 360 440 l 1
 360 400 l 1
 200 400 l 1
480 400 m 1
 480 440 l 1
 600 440 l 1
 600 400 l 1
 480 400 l 1
160 360 m 1
 160 400 l 1
 320 400 l 1
 320 360 l 1
 160 360 l 1
440 360 m 1
 440 400 l 1
 560 400 l 1
 560 360 l 1
 440 360 l 1
120 320 m 1
 120 360 l 1
 280 360 l 1
 280 320 l 1
 120 320 l 1
400 320 m 1
 400 360 l 1
 560 360 l 1
 560 320 l 1
 400 320 l 1
80 280 m 1
 80 320 l 1
 240 320 l 1
 240 280 l 1
 80 280 l 1
360 280 m 1
 360 320 l 1
 520 320 l 1
 520 280 l 1
 360 280 l 1
40 240 m 1
 40 280 l 1
 240 280 l 1
 240 240 l 1
 40 240 l 1
280 240 m 1
 280 280 l 1
 480 280 l 1
 480 240 l 1
 280 240 l 1
80 200 m 1
 80 240 l 1
 240 240 l 1
 240 200 l 1
 80 200 l 1
320 200 m 1
 320 240 l 1
 520 240 l 1
 520 200 l 1
 320 200 l 1
120 160 m 1
 120 200 l 1
 280 200 l 1
 280 160 l 1
 120 160 l 1
360 160 m 1
 360 200 l 1
 520 200 l 1
 520 160 l 1
 360 160 l 1
160 120 m 1
 160 160 l 1
 320 160 l 1
 320 120 l 1
 160 120 l 1
400 120 m 1
 400 160 l 1
 560 160 l 1
 560 120 l 1
 400 120 l 1
200 80 m 1
 200 120 l 1
 320 120 l 1
 320 80 l 1
 200 80 l 1
440 80 m 1
 440 120 l 1
 600 120 l 1
 600 80 l 1
 440 80 l 1
240 40 m 1
 240 80 l 1
 280 80 l 1
 280 40 l 1
 240 40 l 1
480 40 m 1
 480 80 l 1
 560 80 l 1
 560 40 l 1
 480 40 l 1
EndSplineSet
EndChar

StartChar: logicalnot
Encoding: 172 172 108
Width: 600
Flags: HW
LayerCount: 2
Back
Fore
SplineSet
40 280 m 1
 40 320 l 1
 560 320 l 1
 560 280 l 1
 40 280 l 1
40 240 m 1
 40 280 l 1
 560 280 l 1
 560 240 l 1
 40 240 l 1
40 200 m 1
 40 240 l 1
 560 240 l 1
 560 200 l 1
 40 200 l 1
440 160 m 1
 440 200 l 1
 560 200 l 1
 560 160 l 1
 440 160 l 1
440 120 m 1
 440 160 l 1
 560 160 l 1
 560 120 l 1
 440 120 l 1
440 80 m 1
 440 120 l 1
 560 120 l 1
 560 80 l 1
 440 80 l 1
EndSplineSet
EndChar

StartChar: hyphen
Encoding: 45 45 109
Width: 600
Flags: HW
LayerCount: 2
Back
Fore
SplineSet
80 320 m 1
 80 360 l 1
 480 360 l 1
 480 320 l 1
 80 320 l 1
80 280 m 1
 80 320 l 1
 480 320 l 1
 480 280 l 1
 80 280 l 1
80 240 m 1
 80 280 l 1
 480 280 l 1
 480 240 l 1
 80 240 l 1
EndSplineSet
EndChar

StartChar: registered
Encoding: 174 174 110
Width: 600
Flags: HW
LayerCount: 2
Back
Fore
SplineSet
200 680 m 1
 200 720 l 1
 400 720 l 1
 400 680 l 1
 200 680 l 1
120 640 m 1
 120 680 l 1
 480 680 l 1
 480 640 l 1
 120 640 l 1
80 600 m 1
 80 640 l 1
 520 640 l 1
 520 600 l 1
 80 600 l 1
80 560 m 1
 80 600 l 1
 240 600 l 1
 240 560 l 1
 80 560 l 1
360 560 m 1
 360 600 l 1
 520 600 l 1
 520 560 l 1
 360 560 l 1
40 520 m 1
 40 560 l 1
 560 560 l 1
 560 520 l 1
 40 520 l 1
40 480 m 1
 40 520 l 1
 160 520 l 1
 160 480 l 1
 40 480 l 1
200 480 m 1
 200 520 l 1
 560 520 l 1
 560 480 l 1
 200 480 l 1
40 440 m 1
 40 480 l 1
 160 480 l 1
 160 440 l 1
 40 440 l 1
200 440 m 1
 200 480 l 1
 560 480 l 1
 560 440 l 1
 200 440 l 1
40 400 m 1
 40 440 l 1
 160 440 l 1
 160 400 l 1
 40 400 l 1
200 400 m 1
 200 440 l 1
 560 440 l 1
 560 400 l 1
 200 400 l 1
40 360 m 1
 40 400 l 1
 560 400 l 1
 560 360 l 1
 40 360 l 1
80 320 m 1
 80 360 l 1
 520 360 l 1
 520 320 l 1
 80 320 l 1
80 280 m 1
 80 320 l 1
 520 320 l 1
 520 280 l 1
 80 280 l 1
120 240 m 1
 120 280 l 1
 480 280 l 1
 480 240 l 1
 120 240 l 1
200 200 m 1
 200 240 l 1
 400 240 l 1
 400 200 l 1
 200 200 l 1
EndSplineSet
EndChar

StartChar: macron
Encoding: 175 175 111
Width: 600
Flags: HW
LayerCount: 2
Back
Fore
SplineSet
160 680 m 1
 160 720 l 1
 440 720 l 1
 440 680 l 1
 160 680 l 1
160 640 m 1
 160 680 l 1
 440 680 l 1
 440 640 l 1
 160 640 l 1
160 600 m 1
 160 640 l 1
 440 640 l 1
 440 600 l 1
 160 600 l 1
EndSplineSet
EndChar

StartChar: degree
Encoding: 176 176 112
Width: 600
Flags: HW
LayerCount: 2
Back
Fore
SplineSet
320 680 m 1
 320 720 l 1
 400 720 l 1
 400 680 l 1
 320 680 l 1
240 640 m 1
 240 680 l 1
 440 680 l 1
 440 640 l 1
 240 640 l 1
280 600 m 1
 280 640 l 1
 440 640 l 1
 440 600 l 1
 280 600 l 1
320 560 m 1
 320 600 l 1
 400 600 l 1
 400 560 l 1
 320 560 l 1
EndSplineSet
EndChar

StartChar: plusminus
Encoding: 177 177 113
Width: 600
Flags: HW
LayerCount: 2
Back
Fore
SplineSet
240 480 m 1
 240 520 l 1
 360 520 l 1
 360 480 l 1
 240 480 l 1
240 440 m 1
 240 480 l 1
 360 480 l 1
 360 440 l 1
 240 440 l 1
240 400 m 1
 240 440 l 1
 360 440 l 1
 360 400 l 1
 240 400 l 1
40 360 m 1
 40 400 l 1
 560 400 l 1
 560 360 l 1
 40 360 l 1
40 320 m 1
 40 360 l 1
 560 360 l 1
 560 320 l 1
 40 320 l 1
40 280 m 1
 40 320 l 1
 560 320 l 1
 560 280 l 1
 40 280 l 1
240 240 m 1
 240 280 l 1
 360 280 l 1
 360 240 l 1
 240 240 l 1
240 200 m 1
 240 240 l 1
 360 240 l 1
 360 200 l 1
 240 200 l 1
40 80 m 1
 40 120 l 1
 560 120 l 1
 560 80 l 1
 40 80 l 1
40 40 m 1
 40 80 l 1
 560 80 l 1
 560 40 l 1
 40 40 l 1
40 0 m 1
 40 40 l 1
 560 40 l 1
 560 0 l 1
 40 0 l 1
EndSplineSet
EndChar

StartChar: twosuperior
Encoding: 178 178 114
Width: 600
Flags: HW
LayerCount: 2
Back
Fore
SplineSet
-120 680 m 1
 -120 720 l 1
 40 720 l 1
 40 680 l 1
 -120 680 l 1
-120 640 m 1
 -120 680 l 1
 -80 680 l 1
 -80 640 l 1
 -120 640 l 1
40 640 m 1
 40 680 l 1
 80 680 l 1
 80 640 l 1
 40 640 l 1
40 600 m 1
 40 640 l 1
 80 640 l 1
 80 600 l 1
 40 600 l 1
40 560 m 1
 40 600 l 1
 80 600 l 1
 80 560 l 1
 40 560 l 1
0 520 m 1
 0 560 l 1
 40 560 l 1
 40 520 l 1
 0 520 l 1
-40 480 m 1
 -40 520 l 1
 0 520 l 1
 0 480 l 1
 -40 480 l 1
-80 440 m 1
 -80 480 l 1
 -40 480 l 1
 -40 440 l 1
 -80 440 l 1
-120 400 m 1
 -120 440 l 1
 -40 440 l 1
 -40 400 l 1
 -120 400 l 1
-120 360 m 1
 -120 400 l 1
 80 400 l 1
 80 360 l 1
 -120 360 l 1
EndSplineSet
EndChar

StartChar: threesuperior
Encoding: 179 179 115
Width: 600
Flags: HW
LayerCount: 2
Back
Fore
SplineSet
-120 680 m 1
 -120 720 l 1
 0 720 l 1
 0 680 l 1
 -120 680 l 1
0 640 m 1
 0 680 l 1
 40 680 l 1
 40 640 l 1
 0 640 l 1
0 600 m 1
 0 640 l 1
 40 640 l 1
 40 600 l 1
 0 600 l 1
-40 560 m 1
 -40 600 l 1
 40 600 l 1
 40 560 l 1
 -40 560 l 1
-80 520 m 1
 -80 560 l 1
 0 560 l 1
 0 520 l 1
 -80 520 l 1
-40 480 m 1
 -40 520 l 1
 40 520 l 1
 40 480 l 1
 -40 480 l 1
0 440 m 1
 0 480 l 1
 40 480 l 1
 40 440 l 1
 0 440 l 1
0 400 m 1
 0 440 l 1
 40 440 l 1
 40 400 l 1
 0 400 l 1
-120 360 m 1
 -120 400 l 1
 0 400 l 1
 0 360 l 1
 -120 360 l 1
EndSplineSet
EndChar

StartChar: acute
Encoding: 180 180 116
Width: 600
Flags: HW
LayerCount: 2
Back
Fore
SplineSet
240 720 m 1
 240 760 l 1
 400 760 l 1
 400 720 l 1
 240 720 l 1
200 680 m 1
 200 720 l 1
 360 720 l 1
 360 680 l 1
 200 680 l 1
200 640 m 1
 200 680 l 1
 320 680 l 1
 320 640 l 1
 200 640 l 1
160 600 m 1
 160 640 l 1
 280 640 l 1
 280 600 l 1
 160 600 l 1
EndSplineSet
EndChar

StartChar: mu
Encoding: 181 181 117
Width: 600
Flags: HW
LayerCount: 2
Back
Fore
SplineSet
40 480 m 1
 40 520 l 1
 200 520 l 1
 200 480 l 1
 40 480 l 1
360 480 m 1
 360 520 l 1
 520 520 l 1
 520 480 l 1
 360 480 l 1
40 440 m 1
 40 480 l 1
 200 480 l 1
 200 440 l 1
 40 440 l 1
360 440 m 1
 360 480 l 1
 520 480 l 1
 520 440 l 1
 360 440 l 1
40 400 m 1
 40 440 l 1
 200 440 l 1
 200 400 l 1
 40 400 l 1
360 400 m 1
 360 440 l 1
 520 440 l 1
 520 400 l 1
 360 400 l 1
40 360 m 1
 40 400 l 1
 200 400 l 1
 200 360 l 1
 40 360 l 1
360 360 m 1
 360 400 l 1
 520 400 l 1
 520 360 l 1
 360 360 l 1
40 320 m 1
 40 360 l 1
 200 360 l 1
 200 320 l 1
 40 320 l 1
360 320 m 1
 360 360 l 1
 520 360 l 1
 520 320 l 1
 360 320 l 1
40 280 m 1
 40 320 l 1
 200 320 l 1
 200 280 l 1
 40 280 l 1
360 280 m 1
 360 320 l 1
 520 320 l 1
 520 280 l 1
 360 280 l 1
40 240 m 1
 40 280 l 1
 200 280 l 1
 200 240 l 1
 40 240 l 1
360 240 m 1
 360 280 l 1
 520 280 l 1
 520 240 l 1
 360 240 l 1
40 200 m 1
 40 240 l 1
 200 240 l 1
 200 200 l 1
 40 200 l 1
360 200 m 1
 360 240 l 1
 520 240 l 1
 520 200 l 1
 360 200 l 1
40 160 m 1
 40 200 l 1
 240 200 l 1
 240 160 l 1
 40 160 l 1
320 160 m 1
 320 200 l 1
 520 200 l 1
 520 160 l 1
 320 160 l 1
40 120 m 1
 40 160 l 1
 520 160 l 1
 520 120 l 1
 40 120 l 1
40 80 m 1
 40 120 l 1
 520 120 l 1
 520 80 l 1
 40 80 l 1
40 40 m 1
 40 80 l 1
 520 80 l 1
 520 40 l 1
 40 40 l 1
40 0 m 1
 40 40 l 1
 320 40 l 1
 320 0 l 1
 40 0 l 1
360 0 m 1
 360 40 l 1
 520 40 l 1
 520 0 l 1
 360 0 l 1
40 -40 m 1
 40 0 l 1
 200 0 l 1
 200 -40 l 1
 40 -40 l 1
40 -80 m 1
 40 -40 l 1
 200 -40 l 1
 200 -80 l 1
 40 -80 l 1
40 -120 m 1
 40 -80 l 1
 200 -80 l 1
 200 -120 l 1
 40 -120 l 1
40 -160 m 1
 40 -120 l 1
 200 -120 l 1
 200 -160 l 1
 40 -160 l 1
EndSplineSet
EndChar

StartChar: paragraph
Encoding: 182 182 118
Width: 600
Flags: HW
LayerCount: 2
Back
Fore
SplineSet
120 680 m 1
 120 720 l 1
 480 720 l 1
 480 680 l 1
 120 680 l 1
80 640 m 1
 80 680 l 1
 480 680 l 1
 480 640 l 1
 80 640 l 1
40 600 m 1
 40 640 l 1
 480 640 l 1
 480 600 l 1
 40 600 l 1
40 560 m 1
 40 600 l 1
 480 600 l 1
 480 560 l 1
 40 560 l 1
40 520 m 1
 40 560 l 1
 480 560 l 1
 480 520 l 1
 40 520 l 1
40 480 m 1
 40 520 l 1
 480 520 l 1
 480 480 l 1
 40 480 l 1
80 440 m 1
 80 480 l 1
 480 480 l 1
 480 440 l 1
 80 440 l 1
80 400 m 1
 80 440 l 1
 480 440 l 1
 480 400 l 1
 80 400 l 1
160 360 m 1
 160 400 l 1
 480 400 l 1
 480 360 l 1
 160 360 l 1
240 320 m 1
 240 360 l 1
 480 360 l 1
 480 320 l 1
 240 320 l 1
240 280 m 1
 240 320 l 1
 480 320 l 1
 480 280 l 1
 240 280 l 1
240 240 m 1
 240 280 l 1
 480 280 l 1
 480 240 l 1
 240 240 l 1
240 200 m 1
 240 240 l 1
 480 240 l 1
 480 200 l 1
 240 200 l 1
240 160 m 1
 240 200 l 1
 480 200 l 1
 480 160 l 1
 240 160 l 1
240 120 m 1
 240 160 l 1
 480 160 l 1
 480 120 l 1
 240 120 l 1
240 80 m 1
 240 120 l 1
 480 120 l 1
 480 80 l 1
 240 80 l 1
240 40 m 1
 240 80 l 1
 480 80 l 1
 480 40 l 1
 240 40 l 1
240 0 m 1
 240 40 l 1
 480 40 l 1
 480 0 l 1
 240 0 l 1
240 -40 m 1
 240 0 l 1
 480 0 l 1
 480 -40 l 1
 240 -40 l 1
240 -80 m 1
 240 -40 l 1
 480 -40 l 1
 480 -80 l 1
 240 -80 l 1
240 -120 m 1
 240 -80 l 1
 480 -80 l 1
 480 -120 l 1
 240 -120 l 1
240 -160 m 1
 240 -120 l 1
 480 -120 l 1
 480 -160 l 1
 240 -160 l 1
EndSplineSet
EndChar

StartChar: periodcentered
Encoding: 183 183 119
Width: 600
Flags: HW
LayerCount: 2
Back
Fore
SplineSet
240 280 m 1
 240 320 l 1
 360 320 l 1
 360 280 l 1
 240 280 l 1
240 240 m 1
 240 280 l 1
 360 280 l 1
 360 240 l 1
 240 240 l 1
240 200 m 1
 240 240 l 1
 360 240 l 1
 360 200 l 1
 240 200 l 1
240 160 m 1
 240 200 l 1
 360 200 l 1
 360 160 l 1
 240 160 l 1
EndSplineSet
EndChar

StartChar: cedilla
Encoding: 184 184 120
Width: 600
Flags: HW
LayerCount: 2
Back
Fore
SplineSet
280 -40 m 1
 280 0 l 1
 360 0 l 1
 360 -40 l 1
 280 -40 l 1
240 -80 m 1
 240 -40 l 1
 440 -40 l 1
 440 -80 l 1
 240 -80 l 1
360 -120 m 1
 360 -80 l 1
 440 -80 l 1
 440 -120 l 1
 360 -120 l 1
240 -160 m 1
 240 -120 l 1
 440 -120 l 1
 440 -160 l 1
 240 -160 l 1
240 -200 m 1
 240 -160 l 1
 400 -160 l 1
 400 -200 l 1
 240 -200 l 1
EndSplineSet
EndChar

StartChar: onesuperior
Encoding: 185 185 121
Width: 600
Flags: HW
LayerCount: 2
Back
Fore
SplineSet
-120 680 m 1
 -120 720 l 1
 0 720 l 1
 0 680 l 1
 -120 680 l 1
-40 640 m 1
 -40 680 l 1
 0 680 l 1
 0 640 l 1
 -40 640 l 1
-40 600 m 1
 -40 640 l 1
 0 640 l 1
 0 600 l 1
 -40 600 l 1
-40 560 m 1
 -40 600 l 1
 0 600 l 1
 0 560 l 1
 -40 560 l 1
-40 520 m 1
 -40 560 l 1
 0 560 l 1
 0 520 l 1
 -40 520 l 1
-40 480 m 1
 -40 520 l 1
 0 520 l 1
 0 480 l 1
 -40 480 l 1
-40 440 m 1
 -40 480 l 1
 0 480 l 1
 0 440 l 1
 -40 440 l 1
-40 400 m 1
 -40 440 l 1
 0 440 l 1
 0 400 l 1
 -40 400 l 1
-120 360 m 1
 -120 400 l 1
 80 400 l 1
 80 360 l 1
 -120 360 l 1
EndSplineSet
EndChar

StartChar: ordmasculine
Encoding: 186 186 122
Width: 600
Flags: HW
LayerCount: 2
Back
Fore
SplineSet
200 680 m 1
 200 720 l 1
 400 720 l 1
 400 680 l 1
 200 680 l 1
120 640 m 1
 120 680 l 1
 480 680 l 1
 480 640 l 1
 120 640 l 1
120 600 m 1
 120 640 l 1
 480 640 l 1
 480 600 l 1
 120 600 l 1
80 560 m 1
 80 600 l 1
 240 600 l 1
 240 560 l 1
 80 560 l 1
360 560 m 1
 360 600 l 1
 520 600 l 1
 520 560 l 1
 360 560 l 1
80 520 m 1
 80 560 l 1
 200 560 l 1
 200 520 l 1
 80 520 l 1
400 520 m 1
 400 560 l 1
 520 560 l 1
 520 520 l 1
 400 520 l 1
80 480 m 1
 80 520 l 1
 200 520 l 1
 200 480 l 1
 80 480 l 1
400 480 m 1
 400 520 l 1
 520 520 l 1
 520 480 l 1
 400 480 l 1
80 440 m 1
 80 480 l 1
 240 480 l 1
 240 440 l 1
 80 440 l 1
360 440 m 1
 360 480 l 1
 520 480 l 1
 520 440 l 1
 360 440 l 1
120 400 m 1
 120 440 l 1
 480 440 l 1
 480 400 l 1
 120 400 l 1
120 360 m 1
 120 400 l 1
 480 400 l 1
 480 360 l 1
 120 360 l 1
200 320 m 1
 200 360 l 1
 400 360 l 1
 400 320 l 1
 200 320 l 1
EndSplineSet
EndChar

StartChar: guillemotright
Encoding: 187 187 123
Width: 600
Flags: HW
LayerCount: 2
Back
Fore
SplineSet
40 440 m 1
 40 480 l 1
 120 480 l 1
 120 440 l 1
 40 440 l 1
320 440 m 1
 320 480 l 1
 360 480 l 1
 360 440 l 1
 320 440 l 1
0 400 m 1
 0 440 l 1
 160 440 l 1
 160 400 l 1
 0 400 l 1
280 400 m 1
 280 440 l 1
 400 440 l 1
 400 400 l 1
 280 400 l 1
40 360 m 1
 40 400 l 1
 200 400 l 1
 200 360 l 1
 40 360 l 1
280 360 m 1
 280 400 l 1
 440 400 l 1
 440 360 l 1
 280 360 l 1
80 320 m 1
 80 360 l 1
 240 360 l 1
 240 320 l 1
 80 320 l 1
320 320 m 1
 320 360 l 1
 480 360 l 1
 480 320 l 1
 320 320 l 1
80 280 m 1
 80 320 l 1
 280 320 l 1
 280 280 l 1
 80 280 l 1
360 280 m 1
 360 320 l 1
 520 320 l 1
 520 280 l 1
 360 280 l 1
120 240 m 1
 120 280 l 1
 320 280 l 1
 320 240 l 1
 120 240 l 1
360 240 m 1
 360 280 l 1
 560 280 l 1
 560 240 l 1
 360 240 l 1
80 200 m 1
 80 240 l 1
 280 240 l 1
 280 200 l 1
 80 200 l 1
360 200 m 1
 360 240 l 1
 520 240 l 1
 520 200 l 1
 360 200 l 1
40 160 m 1
 40 200 l 1
 240 200 l 1
 240 160 l 1
 40 160 l 1
320 160 m 1
 320 200 l 1
 480 200 l 1
 480 160 l 1
 320 160 l 1
40 120 m 1
 40 160 l 1
 200 160 l 1
 200 120 l 1
 40 120 l 1
280 120 m 1
 280 160 l 1
 440 160 l 1
 440 120 l 1
 280 120 l 1
0 80 m 1
 0 120 l 1
 160 120 l 1
 160 80 l 1
 0 80 l 1
240 80 m 1
 240 120 l 1
 400 120 l 1
 400 80 l 1
 240 80 l 1
40 40 m 1
 40 80 l 1
 120 80 l 1
 120 40 l 1
 40 40 l 1
320 40 m 1
 320 80 l 1
 360 80 l 1
 360 40 l 1
 320 40 l 1
EndSplineSet
EndChar

StartChar: onequarter
Encoding: 188 188 124
Width: 600
Flags: HW
LayerCount: 2
Back
Fore
SplineSet
160 680 m 1
 160 720 l 1
 280 720 l 1
 280 680 l 1
 160 680 l 1
640 680 m 1
 640 720 l 1
 800 720 l 1
 800 680 l 1
 640 680 l 1
240 640 m 1
 240 680 l 1
 280 680 l 1
 280 640 l 1
 240 640 l 1
600 640 m 1
 600 680 l 1
 760 680 l 1
 760 640 l 1
 600 640 l 1
240 600 m 1
 240 640 l 1
 280 640 l 1
 280 600 l 1
 240 600 l 1
560 600 m 1
 560 640 l 1
 720 640 l 1
 720 600 l 1
 560 600 l 1
240 560 m 1
 240 600 l 1
 280 600 l 1
 280 560 l 1
 240 560 l 1
520 560 m 1
 520 600 l 1
 680 600 l 1
 680 560 l 1
 520 560 l 1
240 520 m 1
 240 560 l 1
 280 560 l 1
 280 520 l 1
 240 520 l 1
520 520 m 1
 520 560 l 1
 640 560 l 1
 640 520 l 1
 520 520 l 1
240 480 m 1
 240 520 l 1
 280 520 l 1
 280 480 l 1
 240 480 l 1
480 480 m 1
 480 520 l 1
 640 520 l 1
 640 480 l 1
 480 480 l 1
240 440 m 1
 240 480 l 1
 280 480 l 1
 280 440 l 1
 240 440 l 1
440 440 m 1
 440 480 l 1
 600 480 l 1
 600 440 l 1
 440 440 l 1
240 400 m 1
 240 440 l 1
 280 440 l 1
 280 400 l 1
 240 400 l 1
440 400 m 1
 440 440 l 1
 560 440 l 1
 560 400 l 1
 440 400 l 1
160 360 m 1
 160 400 l 1
 360 400 l 1
 360 360 l 1
 160 360 l 1
400 360 m 1
 400 400 l 1
 560 400 l 1
 560 360 l 1
 400 360 l 1
360 320 m 1
 360 360 l 1
 520 360 l 1
 520 320 l 1
 360 320 l 1
680 320 m 1
 680 360 l 1
 720 360 l 1
 720 320 l 1
 680 320 l 1
360 280 m 1
 360 320 l 1
 480 320 l 1
 480 280 l 1
 360 280 l 1
640 280 m 1
 640 320 l 1
 720 320 l 1
 720 280 l 1
 640 280 l 1
320 240 m 1
 320 280 l 1
 480 280 l 1
 480 240 l 1
 320 240 l 1
600 240 m 1
 600 280 l 1
 720 280 l 1
 720 240 l 1
 600 240 l 1
280 200 m 1
 280 240 l 1
 440 240 l 1
 440 200 l 1
 280 200 l 1
600 200 m 1
 600 240 l 1
 640 240 l 1
 640 200 l 1
 600 200 l 1
680 200 m 1
 680 240 l 1
 720 240 l 1
 720 200 l 1
 680 200 l 1
280 160 m 1
 280 200 l 1
 400 200 l 1
 400 160 l 1
 280 160 l 1
560 160 m 1
 560 200 l 1
 600 200 l 1
 600 160 l 1
 560 160 l 1
680 160 m 1
 680 200 l 1
 720 200 l 1
 720 160 l 1
 680 160 l 1
240 120 m 1
 240 160 l 1
 360 160 l 1
 360 120 l 1
 240 120 l 1
560 120 m 1
 560 160 l 1
 760 160 l 1
 760 120 l 1
 560 120 l 1
200 80 m 1
 200 120 l 1
 360 120 l 1
 360 80 l 1
 200 80 l 1
680 80 m 1
 680 120 l 1
 720 120 l 1
 720 80 l 1
 680 80 l 1
160 40 m 1
 160 80 l 1
 320 80 l 1
 320 40 l 1
 160 40 l 1
680 40 m 1
 680 80 l 1
 720 80 l 1
 720 40 l 1
 680 40 l 1
120 0 m 1
 120 40 l 1
 280 40 l 1
 280 0 l 1
 120 0 l 1
680 0 m 1
 680 40 l 1
 720 40 l 1
 720 0 l 1
 680 0 l 1
EndSplineSet
EndChar

StartChar: onehalf
Encoding: 189 189 125
Width: 600
Flags: HW
LayerCount: 2
Back
Fore
SplineSet
160 680 m 1
 160 720 l 1
 280 720 l 1
 280 680 l 1
 160 680 l 1
640 680 m 1
 640 720 l 1
 800 720 l 1
 800 680 l 1
 640 680 l 1
240 640 m 1
 240 680 l 1
 280 680 l 1
 280 640 l 1
 240 640 l 1
600 640 m 1
 600 680 l 1
 760 680 l 1
 760 640 l 1
 600 640 l 1
240 600 m 1
 240 640 l 1
 280 640 l 1
 280 600 l 1
 240 600 l 1
560 600 m 1
 560 640 l 1
 720 640 l 1
 720 600 l 1
 560 600 l 1
240 560 m 1
 240 600 l 1
 280 600 l 1
 280 560 l 1
 240 560 l 1
520 560 m 1
 520 600 l 1
 680 600 l 1
 680 560 l 1
 520 560 l 1
240 520 m 1
 240 560 l 1
 280 560 l 1
 280 520 l 1
 240 520 l 1
520 520 m 1
 520 560 l 1
 640 560 l 1
 640 520 l 1
 520 520 l 1
240 480 m 1
 240 520 l 1
 280 520 l 1
 280 480 l 1
 240 480 l 1
480 480 m 1
 480 520 l 1
 640 520 l 1
 640 480 l 1
 480 480 l 1
240 440 m 1
 240 480 l 1
 280 480 l 1
 280 440 l 1
 240 440 l 1
440 440 m 1
 440 480 l 1
 600 480 l 1
 600 440 l 1
 440 440 l 1
240 400 m 1
 240 440 l 1
 280 440 l 1
 280 400 l 1
 240 400 l 1
440 400 m 1
 440 440 l 1
 560 440 l 1
 560 400 l 1
 440 400 l 1
160 360 m 1
 160 400 l 1
 360 400 l 1
 360 360 l 1
 160 360 l 1
400 360 m 1
 400 400 l 1
 560 400 l 1
 560 360 l 1
 400 360 l 1
360 320 m 1
 360 360 l 1
 520 360 l 1
 520 320 l 1
 360 320 l 1
560 320 m 1
 560 360 l 1
 720 360 l 1
 720 320 l 1
 560 320 l 1
360 280 m 1
 360 320 l 1
 480 320 l 1
 480 280 l 1
 360 280 l 1
560 280 m 1
 560 320 l 1
 600 320 l 1
 600 280 l 1
 560 280 l 1
720 280 m 1
 720 320 l 1
 760 320 l 1
 760 280 l 1
 720 280 l 1
320 240 m 1
 320 280 l 1
 480 280 l 1
 480 240 l 1
 320 240 l 1
720 240 m 1
 720 280 l 1
 760 280 l 1
 760 240 l 1
 720 240 l 1
280 200 m 1
 280 240 l 1
 440 240 l 1
 440 200 l 1
 280 200 l 1
720 200 m 1
 720 240 l 1
 760 240 l 1
 760 200 l 1
 720 200 l 1
280 160 m 1
 280 200 l 1
 400 200 l 1
 400 160 l 1
 280 160 l 1
680 160 m 1
 680 200 l 1
 720 200 l 1
 720 160 l 1
 680 160 l 1
240 120 m 1
 240 160 l 1
 360 160 l 1
 360 120 l 1
 240 120 l 1
640 120 m 1
 640 160 l 1
 680 160 l 1
 680 120 l 1
 640 120 l 1
200 80 m 1
 200 120 l 1
 360 120 l 1
 360 80 l 1
 200 80 l 1
600 80 m 1
 600 120 l 1
 640 120 l 1
 640 80 l 1
 600 80 l 1
160 40 m 1
 160 80 l 1
 320 80 l 1
 320 40 l 1
 160 40 l 1
560 40 m 1
 560 80 l 1
 640 80 l 1
 640 40 l 1
 560 40 l 1
120 0 m 1
 120 40 l 1
 280 40 l 1
 280 0 l 1
 120 0 l 1
560 0 m 1
 560 40 l 1
 760 40 l 1
 760 0 l 1
 560 0 l 1
EndSplineSet
EndChar

StartChar: threequarters
Encoding: 190 190 126
Width: 600
Flags: HW
LayerCount: 2
Back
Fore
SplineSet
160 680 m 1
 160 720 l 1
 280 720 l 1
 280 680 l 1
 160 680 l 1
640 680 m 1
 640 720 l 1
 800 720 l 1
 800 680 l 1
 640 680 l 1
280 640 m 1
 280 680 l 1
 320 680 l 1
 320 640 l 1
 280 640 l 1
600 640 m 1
 600 680 l 1
 760 680 l 1
 760 640 l 1
 600 640 l 1
280 600 m 1
 280 640 l 1
 320 640 l 1
 320 600 l 1
 280 600 l 1
560 600 m 1
 560 640 l 1
 720 640 l 1
 720 600 l 1
 560 600 l 1
240 560 m 1
 240 600 l 1
 320 600 l 1
 320 560 l 1
 240 560 l 1
520 560 m 1
 520 600 l 1
 680 600 l 1
 680 560 l 1
 520 560 l 1
200 520 m 1
 200 560 l 1
 280 560 l 1
 280 520 l 1
 200 520 l 1
520 520 m 1
 520 560 l 1
 640 560 l 1
 640 520 l 1
 520 520 l 1
240 480 m 1
 240 520 l 1
 320 520 l 1
 320 480 l 1
 240 480 l 1
480 480 m 1
 480 520 l 1
 640 520 l 1
 640 480 l 1
 480 480 l 1
280 440 m 1
 280 480 l 1
 320 480 l 1
 320 440 l 1
 280 440 l 1
440 440 m 1
 440 480 l 1
 600 480 l 1
 600 440 l 1
 440 440 l 1
280 400 m 1
 280 440 l 1
 320 440 l 1
 320 400 l 1
 280 400 l 1
440 400 m 1
 440 440 l 1
 560 440 l 1
 560 400 l 1
 440 400 l 1
160 360 m 1
 160 400 l 1
 280 400 l 1
 280 360 l 1
 160 360 l 1
400 360 m 1
 400 400 l 1
 560 400 l 1
 560 360 l 1
 400 360 l 1
360 320 m 1
 360 360 l 1
 520 360 l 1
 520 320 l 1
 360 320 l 1
680 320 m 1
 680 360 l 1
 720 360 l 1
 720 320 l 1
 680 320 l 1
360 280 m 1
 360 320 l 1
 480 320 l 1
 480 280 l 1
 360 280 l 1
640 280 m 1
 640 320 l 1
 720 320 l 1
 720 280 l 1
 640 280 l 1
320 240 m 1
 320 280 l 1
 480 280 l 1
 480 240 l 1
 320 240 l 1
600 240 m 1
 600 280 l 1
 720 280 l 1
 720 240 l 1
 600 240 l 1
280 200 m 1
 280 240 l 1
 440 240 l 1
 440 200 l 1
 280 200 l 1
600 200 m 1
 600 240 l 1
 640 240 l 1
 640 200 l 1
 600 200 l 1
680 200 m 1
 680 240 l 1
 720 240 l 1
 720 200 l 1
 680 200 l 1
280 160 m 1
 280 200 l 1
 400 200 l 1
 400 160 l 1
 280 160 l 1
560 160 m 1
 560 200 l 1
 600 200 l 1
 600 160 l 1
 560 160 l 1
680 160 m 1
 680 200 l 1
 720 200 l 1
 720 160 l 1
 680 160 l 1
240 120 m 1
 240 160 l 1
 360 160 l 1
 360 120 l 1
 240 120 l 1
560 120 m 1
 560 160 l 1
 760 160 l 1
 760 120 l 1
 560 120 l 1
200 80 m 1
 200 120 l 1
 360 120 l 1
 360 80 l 1
 200 80 l 1
680 80 m 1
 680 120 l 1
 720 120 l 1
 720 80 l 1
 680 80 l 1
160 40 m 1
 160 80 l 1
 320 80 l 1
 320 40 l 1
 160 40 l 1
680 40 m 1
 680 80 l 1
 720 80 l 1
 720 40 l 1
 680 40 l 1
120 0 m 1
 120 40 l 1
 280 40 l 1
 280 0 l 1
 120 0 l 1
680 0 m 1
 680 40 l 1
 720 40 l 1
 720 0 l 1
 680 0 l 1
EndSplineSet
EndChar

StartChar: questiondown
Encoding: 191 191 127
Width: 600
Flags: HW
LayerCount: 2
Back
Fore
SplineSet
280 480 m 1
 280 520 l 1
 440 520 l 1
 440 480 l 1
 280 480 l 1
280 440 m 1
 280 480 l 1
 440 480 l 1
 440 440 l 1
 280 440 l 1
280 400 m 1
 280 440 l 1
 440 440 l 1
 440 400 l 1
 280 400 l 1
280 360 m 1
 280 400 l 1
 440 400 l 1
 440 360 l 1
 280 360 l 1
280 280 m 1
 280 320 l 1
 440 320 l 1
 440 280 l 1
 280 280 l 1
280 240 m 1
 280 280 l 1
 440 280 l 1
 440 240 l 1
 280 240 l 1
240 200 m 1
 240 240 l 1
 440 240 l 1
 440 200 l 1
 240 200 l 1
200 160 m 1
 200 200 l 1
 400 200 l 1
 400 160 l 1
 200 160 l 1
120 120 m 1
 120 160 l 1
 360 160 l 1
 360 120 l 1
 120 120 l 1
80 80 m 1
 80 120 l 1
 280 120 l 1
 280 80 l 1
 80 80 l 1
40 40 m 1
 40 80 l 1
 240 80 l 1
 240 40 l 1
 40 40 l 1
40 0 m 1
 40 40 l 1
 200 40 l 1
 200 0 l 1
 40 0 l 1
440 0 m 1
 440 40 l 1
 520 40 l 1
 520 0 l 1
 440 0 l 1
40 -40 m 1
 40 0 l 1
 200 0 l 1
 200 -40 l 1
 40 -40 l 1
440 -40 m 1
 440 0 l 1
 520 0 l 1
 520 -40 l 1
 440 -40 l 1
40 -80 m 1
 40 -40 l 1
 240 -40 l 1
 240 -80 l 1
 40 -80 l 1
440 -80 m 1
 440 -40 l 1
 520 -40 l 1
 520 -80 l 1
 440 -80 l 1
40 -120 m 1
 40 -80 l 1
 520 -80 l 1
 520 -120 l 1
 40 -120 l 1
80 -160 m 1
 80 -120 l 1
 520 -120 l 1
 520 -160 l 1
 80 -160 l 1
160 -200 m 1
 160 -160 l 1
 440 -160 l 1
 440 -200 l 1
 160 -200 l 1
EndSplineSet
EndChar

StartChar: Agrave
Encoding: 192 192 128
Width: 600
Flags: HW
LayerCount: 2
Back
Fore
SplineSet
200 880 m 1
 200 920 l 1
 360 920 l 1
 360 880 l 1
 200 880 l 1
240 840 m 1
 240 880 l 1
 400 880 l 1
 400 840 l 1
 240 840 l 1
280 800 m 1
 280 840 l 1
 400 840 l 1
 400 800 l 1
 280 800 l 1
320 760 m 1
 320 800 l 1
 440 800 l 1
 440 760 l 1
 320 760 l 1
240 680 m 1
 240 720 l 1
 400 720 l 1
 400 680 l 1
 240 680 l 1
200 640 m 1
 200 680 l 1
 400 680 l 1
 400 640 l 1
 200 640 l 1
200 600 m 1
 200 640 l 1
 440 640 l 1
 440 600 l 1
 200 600 l 1
200 560 m 1
 200 600 l 1
 440 600 l 1
 440 560 l 1
 200 560 l 1
160 520 m 1
 160 560 l 1
 440 560 l 1
 440 520 l 1
 160 520 l 1
160 480 m 1
 160 520 l 1
 480 520 l 1
 480 480 l 1
 160 480 l 1
160 440 m 1
 160 480 l 1
 280 480 l 1
 280 440 l 1
 160 440 l 1
320 440 m 1
 320 480 l 1
 480 480 l 1
 480 440 l 1
 320 440 l 1
120 400 m 1
 120 440 l 1
 240 440 l 1
 240 400 l 1
 120 400 l 1
320 400 m 1
 320 440 l 1
 480 440 l 1
 480 400 l 1
 320 400 l 1
120 360 m 1
 120 400 l 1
 240 400 l 1
 240 360 l 1
 120 360 l 1
320 360 m 1
 320 400 l 1
 480 400 l 1
 480 360 l 1
 320 360 l 1
120 320 m 1
 120 360 l 1
 240 360 l 1
 240 320 l 1
 120 320 l 1
360 320 m 1
 360 360 l 1
 520 360 l 1
 520 320 l 1
 360 320 l 1
80 280 m 1
 80 320 l 1
 200 320 l 1
 200 280 l 1
 80 280 l 1
360 280 m 1
 360 320 l 1
 520 320 l 1
 520 280 l 1
 360 280 l 1
80 240 m 1
 80 280 l 1
 520 280 l 1
 520 240 l 1
 80 240 l 1
80 200 m 1
 80 240 l 1
 560 240 l 1
 560 200 l 1
 80 200 l 1
40 160 m 1
 40 200 l 1
 560 200 l 1
 560 160 l 1
 40 160 l 1
40 120 m 1
 40 160 l 1
 160 160 l 1
 160 120 l 1
 40 120 l 1
400 120 m 1
 400 160 l 1
 560 160 l 1
 560 120 l 1
 400 120 l 1
40 80 m 1
 40 120 l 1
 160 120 l 1
 160 80 l 1
 40 80 l 1
400 80 m 1
 400 120 l 1
 560 120 l 1
 560 80 l 1
 400 80 l 1
0 40 m 1
 0 80 l 1
 120 80 l 1
 120 40 l 1
 0 40 l 1
440 40 m 1
 440 80 l 1
 600 80 l 1
 600 40 l 1
 440 40 l 1
0 0 m 1
 0 40 l 1
 120 40 l 1
 120 0 l 1
 0 0 l 1
440 0 m 1
 440 40 l 1
 600 40 l 1
 600 0 l 1
 440 0 l 1
EndSplineSet
EndChar

StartChar: Aacute
Encoding: 193 193 129
Width: 600
Flags: HW
LayerCount: 2
Back
Fore
SplineSet
240 880 m 1
 240 920 l 1
 400 920 l 1
 400 880 l 1
 240 880 l 1
200 840 m 1
 200 880 l 1
 360 880 l 1
 360 840 l 1
 200 840 l 1
200 800 m 1
 200 840 l 1
 320 840 l 1
 320 800 l 1
 200 800 l 1
160 760 m 1
 160 800 l 1
 280 800 l 1
 280 760 l 1
 160 760 l 1
240 680 m 1
 240 720 l 1
 400 720 l 1
 400 680 l 1
 240 680 l 1
200 640 m 1
 200 680 l 1
 400 680 l 1
 400 640 l 1
 200 640 l 1
200 600 m 1
 200 640 l 1
 440 640 l 1
 440 600 l 1
 200 600 l 1
200 560 m 1
 200 600 l 1
 440 600 l 1
 440 560 l 1
 200 560 l 1
160 520 m 1
 160 560 l 1
 440 560 l 1
 440 520 l 1
 160 520 l 1
160 480 m 1
 160 520 l 1
 480 520 l 1
 480 480 l 1
 160 480 l 1
160 440 m 1
 160 480 l 1
 280 480 l 1
 280 440 l 1
 160 440 l 1
320 440 m 1
 320 480 l 1
 480 480 l 1
 480 440 l 1
 320 440 l 1
120 400 m 1
 120 440 l 1
 240 440 l 1
 240 400 l 1
 120 400 l 1
320 400 m 1
 320 440 l 1
 480 440 l 1
 480 400 l 1
 320 400 l 1
120 360 m 1
 120 400 l 1
 240 400 l 1
 240 360 l 1
 120 360 l 1
320 360 m 1
 320 400 l 1
 480 400 l 1
 480 360 l 1
 320 360 l 1
120 320 m 1
 120 360 l 1
 240 360 l 1
 240 320 l 1
 120 320 l 1
360 320 m 1
 360 360 l 1
 520 360 l 1
 520 320 l 1
 360 320 l 1
80 280 m 1
 80 320 l 1
 200 320 l 1
 200 280 l 1
 80 280 l 1
360 280 m 1
 360 320 l 1
 520 320 l 1
 520 280 l 1
 360 280 l 1
80 240 m 1
 80 280 l 1
 520 280 l 1
 520 240 l 1
 80 240 l 1
80 200 m 1
 80 240 l 1
 560 240 l 1
 560 200 l 1
 80 200 l 1
40 160 m 1
 40 200 l 1
 560 200 l 1
 560 160 l 1
 40 160 l 1
40 120 m 1
 40 160 l 1
 160 160 l 1
 160 120 l 1
 40 120 l 1
400 120 m 1
 400 160 l 1
 560 160 l 1
 560 120 l 1
 400 120 l 1
40 80 m 1
 40 120 l 1
 160 120 l 1
 160 80 l 1
 40 80 l 1
400 80 m 1
 400 120 l 1
 560 120 l 1
 560 80 l 1
 400 80 l 1
0 40 m 1
 0 80 l 1
 120 80 l 1
 120 40 l 1
 0 40 l 1
440 40 m 1
 440 80 l 1
 600 80 l 1
 600 40 l 1
 440 40 l 1
0 0 m 1
 0 40 l 1
 120 40 l 1
 120 0 l 1
 0 0 l 1
440 0 m 1
 440 40 l 1
 600 40 l 1
 600 0 l 1
 440 0 l 1
EndSplineSet
EndChar

StartChar: Acircumflex
Encoding: 194 194 130
Width: 600
Flags: HW
LayerCount: 2
Back
Fore
SplineSet
200 880 m 1
 200 920 l 1
 360 920 l 1
 360 880 l 1
 200 880 l 1
160 840 m 1
 160 880 l 1
 400 880 l 1
 400 840 l 1
 160 840 l 1
160 800 m 1
 160 840 l 1
 400 840 l 1
 400 800 l 1
 160 800 l 1
120 760 m 1
 120 800 l 1
 240 800 l 1
 240 760 l 1
 120 760 l 1
320 760 m 1
 320 800 l 1
 440 800 l 1
 440 760 l 1
 320 760 l 1
240 680 m 1
 240 720 l 1
 400 720 l 1
 400 680 l 1
 240 680 l 1
200 640 m 1
 200 680 l 1
 400 680 l 1
 400 640 l 1
 200 640 l 1
200 600 m 1
 200 640 l 1
 440 640 l 1
 440 600 l 1
 200 600 l 1
200 560 m 1
 200 600 l 1
 440 600 l 1
 440 560 l 1
 200 560 l 1
160 520 m 1
 160 560 l 1
 440 560 l 1
 440 520 l 1
 160 520 l 1
160 480 m 1
 160 520 l 1
 480 520 l 1
 480 480 l 1
 160 480 l 1
160 440 m 1
 160 480 l 1
 280 480 l 1
 280 440 l 1
 160 440 l 1
320 440 m 1
 320 480 l 1
 480 480 l 1
 480 440 l 1
 320 440 l 1
120 400 m 1
 120 440 l 1
 240 440 l 1
 240 400 l 1
 120 400 l 1
320 400 m 1
 320 440 l 1
 480 440 l 1
 480 400 l 1
 320 400 l 1
120 360 m 1
 120 400 l 1
 240 400 l 1
 240 360 l 1
 120 360 l 1
320 360 m 1
 320 400 l 1
 480 400 l 1
 480 360 l 1
 320 360 l 1
120 320 m 1
 120 360 l 1
 240 360 l 1
 240 320 l 1
 120 320 l 1
360 320 m 1
 360 360 l 1
 520 360 l 1
 520 320 l 1
 360 320 l 1
80 280 m 1
 80 320 l 1
 200 320 l 1
 200 280 l 1
 80 280 l 1
360 280 m 1
 360 320 l 1
 520 320 l 1
 520 280 l 1
 360 280 l 1
80 240 m 1
 80 280 l 1
 520 280 l 1
 520 240 l 1
 80 240 l 1
80 200 m 1
 80 240 l 1
 560 240 l 1
 560 200 l 1
 80 200 l 1
40 160 m 1
 40 200 l 1
 560 200 l 1
 560 160 l 1
 40 160 l 1
40 120 m 1
 40 160 l 1
 160 160 l 1
 160 120 l 1
 40 120 l 1
400 120 m 1
 400 160 l 1
 560 160 l 1
 560 120 l 1
 400 120 l 1
40 80 m 1
 40 120 l 1
 160 120 l 1
 160 80 l 1
 40 80 l 1
400 80 m 1
 400 120 l 1
 560 120 l 1
 560 80 l 1
 400 80 l 1
0 40 m 1
 0 80 l 1
 120 80 l 1
 120 40 l 1
 0 40 l 1
440 40 m 1
 440 80 l 1
 600 80 l 1
 600 40 l 1
 440 40 l 1
0 0 m 1
 0 40 l 1
 120 40 l 1
 120 0 l 1
 0 0 l 1
440 0 m 1
 440 40 l 1
 600 40 l 1
 600 0 l 1
 440 0 l 1
EndSplineSet
EndChar

StartChar: Atilde
Encoding: 195 195 131
Width: 600
Flags: HW
LayerCount: 2
Back
Fore
SplineSet
200 880 m 1
 200 920 l 1
 320 920 l 1
 320 880 l 1
 200 880 l 1
400 880 m 1
 400 920 l 1
 480 920 l 1
 480 880 l 1
 400 880 l 1
160 840 m 1
 160 880 l 1
 480 880 l 1
 480 840 l 1
 160 840 l 1
160 800 m 1
 160 840 l 1
 480 840 l 1
 480 800 l 1
 160 800 l 1
160 760 m 1
 160 800 l 1
 240 800 l 1
 240 760 l 1
 160 760 l 1
320 760 m 1
 320 800 l 1
 440 800 l 1
 440 760 l 1
 320 760 l 1
240 680 m 1
 240 720 l 1
 400 720 l 1
 400 680 l 1
 240 680 l 1
200 640 m 1
 200 680 l 1
 400 680 l 1
 400 640 l 1
 200 640 l 1
200 600 m 1
 200 640 l 1
 440 640 l 1
 440 600 l 1
 200 600 l 1
200 560 m 1
 200 600 l 1
 440 600 l 1
 440 560 l 1
 200 560 l 1
160 520 m 1
 160 560 l 1
 440 560 l 1
 440 520 l 1
 160 520 l 1
160 480 m 1
 160 520 l 1
 480 520 l 1
 480 480 l 1
 160 480 l 1
160 440 m 1
 160 480 l 1
 280 480 l 1
 280 440 l 1
 160 440 l 1
320 440 m 1
 320 480 l 1
 480 480 l 1
 480 440 l 1
 320 440 l 1
120 400 m 1
 120 440 l 1
 240 440 l 1
 240 400 l 1
 120 400 l 1
320 400 m 1
 320 440 l 1
 480 440 l 1
 480 400 l 1
 320 400 l 1
120 360 m 1
 120 400 l 1
 240 400 l 1
 240 360 l 1
 120 360 l 1
320 360 m 1
 320 400 l 1
 480 400 l 1
 480 360 l 1
 320 360 l 1
120 320 m 1
 120 360 l 1
 240 360 l 1
 240 320 l 1
 120 320 l 1
360 320 m 1
 360 360 l 1
 520 360 l 1
 520 320 l 1
 360 320 l 1
80 280 m 1
 80 320 l 1
 200 320 l 1
 200 280 l 1
 80 280 l 1
360 280 m 1
 360 320 l 1
 520 320 l 1
 520 280 l 1
 360 280 l 1
80 240 m 1
 80 280 l 1
 520 280 l 1
 520 240 l 1
 80 240 l 1
80 200 m 1
 80 240 l 1
 560 240 l 1
 560 200 l 1
 80 200 l 1
40 160 m 1
 40 200 l 1
 560 200 l 1
 560 160 l 1
 40 160 l 1
40 120 m 1
 40 160 l 1
 160 160 l 1
 160 120 l 1
 40 120 l 1
400 120 m 1
 400 160 l 1
 560 160 l 1
 560 120 l 1
 400 120 l 1
40 80 m 1
 40 120 l 1
 160 120 l 1
 160 80 l 1
 40 80 l 1
400 80 m 1
 400 120 l 1
 560 120 l 1
 560 80 l 1
 400 80 l 1
0 40 m 1
 0 80 l 1
 120 80 l 1
 120 40 l 1
 0 40 l 1
440 40 m 1
 440 80 l 1
 600 80 l 1
 600 40 l 1
 440 40 l 1
0 0 m 1
 0 40 l 1
 120 40 l 1
 120 0 l 1
 0 0 l 1
440 0 m 1
 440 40 l 1
 600 40 l 1
 600 0 l 1
 440 0 l 1
EndSplineSet
EndChar

StartChar: Adieresis
Encoding: 196 196 132
Width: 600
Flags: HW
LayerCount: 2
Back
Fore
SplineSet
160 840 m 1
 160 880 l 1
 280 880 l 1
 280 840 l 1
 160 840 l 1
320 840 m 1
 320 880 l 1
 440 880 l 1
 440 840 l 1
 320 840 l 1
160 800 m 1
 160 840 l 1
 280 840 l 1
 280 800 l 1
 160 800 l 1
320 800 m 1
 320 840 l 1
 440 840 l 1
 440 800 l 1
 320 800 l 1
160 760 m 1
 160 800 l 1
 280 800 l 1
 280 760 l 1
 160 760 l 1
320 760 m 1
 320 800 l 1
 440 800 l 1
 440 760 l 1
 320 760 l 1
240 680 m 1
 240 720 l 1
 400 720 l 1
 400 680 l 1
 240 680 l 1
200 640 m 1
 200 680 l 1
 400 680 l 1
 400 640 l 1
 200 640 l 1
200 600 m 1
 200 640 l 1
 440 640 l 1
 440 600 l 1
 200 600 l 1
200 560 m 1
 200 600 l 1
 440 600 l 1
 440 560 l 1
 200 560 l 1
160 520 m 1
 160 560 l 1
 440 560 l 1
 440 520 l 1
 160 520 l 1
160 480 m 1
 160 520 l 1
 480 520 l 1
 480 480 l 1
 160 480 l 1
160 440 m 1
 160 480 l 1
 280 480 l 1
 280 440 l 1
 160 440 l 1
320 440 m 1
 320 480 l 1
 480 480 l 1
 480 440 l 1
 320 440 l 1
120 400 m 1
 120 440 l 1
 240 440 l 1
 240 400 l 1
 120 400 l 1
320 400 m 1
 320 440 l 1
 480 440 l 1
 480 400 l 1
 320 400 l 1
120 360 m 1
 120 400 l 1
 240 400 l 1
 240 360 l 1
 120 360 l 1
320 360 m 1
 320 400 l 1
 480 400 l 1
 480 360 l 1
 320 360 l 1
120 320 m 1
 120 360 l 1
 240 360 l 1
 240 320 l 1
 120 320 l 1
360 320 m 1
 360 360 l 1
 520 360 l 1
 520 320 l 1
 360 320 l 1
80 280 m 1
 80 320 l 1
 200 320 l 1
 200 280 l 1
 80 280 l 1
360 280 m 1
 360 320 l 1
 520 320 l 1
 520 280 l 1
 360 280 l 1
80 240 m 1
 80 280 l 1
 520 280 l 1
 520 240 l 1
 80 240 l 1
80 200 m 1
 80 240 l 1
 560 240 l 1
 560 200 l 1
 80 200 l 1
40 160 m 1
 40 200 l 1
 560 200 l 1
 560 160 l 1
 40 160 l 1
40 120 m 1
 40 160 l 1
 160 160 l 1
 160 120 l 1
 40 120 l 1
400 120 m 1
 400 160 l 1
 560 160 l 1
 560 120 l 1
 400 120 l 1
40 80 m 1
 40 120 l 1
 160 120 l 1
 160 80 l 1
 40 80 l 1
400 80 m 1
 400 120 l 1
 560 120 l 1
 560 80 l 1
 400 80 l 1
0 40 m 1
 0 80 l 1
 120 80 l 1
 120 40 l 1
 0 40 l 1
440 40 m 1
 440 80 l 1
 600 80 l 1
 600 40 l 1
 440 40 l 1
0 0 m 1
 0 40 l 1
 120 40 l 1
 120 0 l 1
 0 0 l 1
440 0 m 1
 440 40 l 1
 600 40 l 1
 600 0 l 1
 440 0 l 1
EndSplineSet
EndChar

StartChar: Aring
Encoding: 197 197 133
Width: 600
Flags: HW
LayerCount: 2
Back
Fore
SplineSet
280 880 m 1
 280 920 l 1
 360 920 l 1
 360 880 l 1
 280 880 l 1
240 840 m 1
 240 880 l 1
 280 880 l 1
 280 840 l 1
 240 840 l 1
360 840 m 1
 360 880 l 1
 400 880 l 1
 400 840 l 1
 360 840 l 1
240 800 m 1
 240 840 l 1
 280 840 l 1
 280 800 l 1
 240 800 l 1
360 800 m 1
 360 840 l 1
 400 840 l 1
 400 800 l 1
 360 800 l 1
280 760 m 1
 280 800 l 1
 360 800 l 1
 360 760 l 1
 280 760 l 1
240 680 m 1
 240 720 l 1
 400 720 l 1
 400 680 l 1
 240 680 l 1
200 640 m 1
 200 680 l 1
 400 680 l 1
 400 640 l 1
 200 640 l 1
200 600 m 1
 200 640 l 1
 440 640 l 1
 440 600 l 1
 200 600 l 1
200 560 m 1
 200 600 l 1
 440 600 l 1
 440 560 l 1
 200 560 l 1
160 520 m 1
 160 560 l 1
 440 560 l 1
 440 520 l 1
 160 520 l 1
160 480 m 1
 160 520 l 1
 480 520 l 1
 480 480 l 1
 160 480 l 1
160 440 m 1
 160 480 l 1
 280 480 l 1
 280 440 l 1
 160 440 l 1
320 440 m 1
 320 480 l 1
 480 480 l 1
 480 440 l 1
 320 440 l 1
120 400 m 1
 120 440 l 1
 240 440 l 1
 240 400 l 1
 120 400 l 1
320 400 m 1
 320 440 l 1
 480 440 l 1
 480 400 l 1
 320 400 l 1
120 360 m 1
 120 400 l 1
 240 400 l 1
 240 360 l 1
 120 360 l 1
320 360 m 1
 320 400 l 1
 480 400 l 1
 480 360 l 1
 320 360 l 1
120 320 m 1
 120 360 l 1
 240 360 l 1
 240 320 l 1
 120 320 l 1
360 320 m 1
 360 360 l 1
 520 360 l 1
 520 320 l 1
 360 320 l 1
80 280 m 1
 80 320 l 1
 200 320 l 1
 200 280 l 1
 80 280 l 1
360 280 m 1
 360 320 l 1
 520 320 l 1
 520 280 l 1
 360 280 l 1
80 240 m 1
 80 280 l 1
 520 280 l 1
 520 240 l 1
 80 240 l 1
80 200 m 1
 80 240 l 1
 560 240 l 1
 560 200 l 1
 80 200 l 1
40 160 m 1
 40 200 l 1
 560 200 l 1
 560 160 l 1
 40 160 l 1
40 120 m 1
 40 160 l 1
 160 160 l 1
 160 120 l 1
 40 120 l 1
400 120 m 1
 400 160 l 1
 560 160 l 1
 560 120 l 1
 400 120 l 1
40 80 m 1
 40 120 l 1
 160 120 l 1
 160 80 l 1
 40 80 l 1
400 80 m 1
 400 120 l 1
 560 120 l 1
 560 80 l 1
 400 80 l 1
0 40 m 1
 0 80 l 1
 120 80 l 1
 120 40 l 1
 0 40 l 1
440 40 m 1
 440 80 l 1
 600 80 l 1
 600 40 l 1
 440 40 l 1
0 0 m 1
 0 40 l 1
 120 40 l 1
 120 0 l 1
 0 0 l 1
440 0 m 1
 440 40 l 1
 600 40 l 1
 600 0 l 1
 440 0 l 1
EndSplineSet
EndChar

StartChar: AE
Encoding: 198 198 134
Width: 600
Flags: HW
LayerCount: 2
Back
Fore
SplineSet
320 680 m 1
 320 720 l 1
 680 720 l 1
 680 680 l 1
 320 680 l 1
320 640 m 1
 320 680 l 1
 680 680 l 1
 680 640 l 1
 320 640 l 1
280 600 m 1
 280 640 l 1
 680 640 l 1
 680 600 l 1
 280 600 l 1
280 560 m 1
 280 600 l 1
 520 600 l 1
 520 560 l 1
 280 560 l 1
280 520 m 1
 280 560 l 1
 520 560 l 1
 520 520 l 1
 280 520 l 1
240 480 m 1
 240 520 l 1
 520 520 l 1
 520 480 l 1
 240 480 l 1
240 440 m 1
 240 480 l 1
 520 480 l 1
 520 440 l 1
 240 440 l 1
200 400 m 1
 200 440 l 1
 640 440 l 1
 640 400 l 1
 200 400 l 1
200 360 m 1
 200 400 l 1
 320 400 l 1
 320 360 l 1
 200 360 l 1
360 360 m 1
 360 400 l 1
 640 400 l 1
 640 360 l 1
 360 360 l 1
200 320 m 1
 200 360 l 1
 320 360 l 1
 320 320 l 1
 200 320 l 1
360 320 m 1
 360 360 l 1
 640 360 l 1
 640 320 l 1
 360 320 l 1
160 280 m 1
 160 320 l 1
 280 320 l 1
 280 280 l 1
 160 280 l 1
360 280 m 1
 360 320 l 1
 520 320 l 1
 520 280 l 1
 360 280 l 1
160 240 m 1
 160 280 l 1
 520 280 l 1
 520 240 l 1
 160 240 l 1
120 200 m 1
 120 240 l 1
 520 240 l 1
 520 200 l 1
 120 200 l 1
120 160 m 1
 120 200 l 1
 520 200 l 1
 520 160 l 1
 120 160 l 1
120 120 m 1
 120 160 l 1
 240 160 l 1
 240 120 l 1
 120 120 l 1
360 120 m 1
 360 160 l 1
 520 160 l 1
 520 120 l 1
 360 120 l 1
80 80 m 1
 80 120 l 1
 240 120 l 1
 240 80 l 1
 80 80 l 1
360 80 m 1
 360 120 l 1
 680 120 l 1
 680 80 l 1
 360 80 l 1
80 40 m 1
 80 80 l 1
 200 80 l 1
 200 40 l 1
 80 40 l 1
360 40 m 1
 360 80 l 1
 680 80 l 1
 680 40 l 1
 360 40 l 1
40 0 m 1
 40 40 l 1
 200 40 l 1
 200 0 l 1
 40 0 l 1
360 0 m 1
 360 40 l 1
 680 40 l 1
 680 0 l 1
 360 0 l 1
EndSplineSet
EndChar

StartChar: Ccedilla
Encoding: 199 199 135
Width: 600
Flags: HW
LayerCount: 2
Back
Fore
SplineSet
240 680 m 1
 240 720 l 1
 560 720 l 1
 560 680 l 1
 240 680 l 1
120 640 m 1
 120 680 l 1
 560 680 l 1
 560 640 l 1
 120 640 l 1
80 600 m 1
 80 640 l 1
 560 640 l 1
 560 600 l 1
 80 600 l 1
40 560 m 1
 40 600 l 1
 280 600 l 1
 280 560 l 1
 40 560 l 1
480 560 m 1
 480 600 l 1
 560 600 l 1
 560 560 l 1
 480 560 l 1
40 520 m 1
 40 560 l 1
 240 560 l 1
 240 520 l 1
 40 520 l 1
40 480 m 1
 40 520 l 1
 200 520 l 1
 200 480 l 1
 40 480 l 1
0 440 m 1
 0 480 l 1
 160 480 l 1
 160 440 l 1
 0 440 l 1
0 400 m 1
 0 440 l 1
 160 440 l 1
 160 400 l 1
 0 400 l 1
0 360 m 1
 0 400 l 1
 160 400 l 1
 160 360 l 1
 0 360 l 1
0 320 m 1
 0 360 l 1
 160 360 l 1
 160 320 l 1
 0 320 l 1
0 280 m 1
 0 320 l 1
 160 320 l 1
 160 280 l 1
 0 280 l 1
0 240 m 1
 0 280 l 1
 160 280 l 1
 160 240 l 1
 0 240 l 1
40 200 m 1
 40 240 l 1
 200 240 l 1
 200 200 l 1
 40 200 l 1
40 160 m 1
 40 200 l 1
 240 200 l 1
 240 160 l 1
 40 160 l 1
40 120 m 1
 40 160 l 1
 280 160 l 1
 280 120 l 1
 40 120 l 1
520 120 m 1
 520 160 l 1
 560 160 l 1
 560 120 l 1
 520 120 l 1
80 80 m 1
 80 120 l 1
 560 120 l 1
 560 80 l 1
 80 80 l 1
120 40 m 1
 120 80 l 1
 560 80 l 1
 560 40 l 1
 120 40 l 1
240 0 m 1
 240 40 l 1
 480 40 l 1
 480 0 l 1
 240 0 l 1
240 -40 m 1
 240 0 l 1
 320 0 l 1
 320 -40 l 1
 240 -40 l 1
200 -80 m 1
 200 -40 l 1
 400 -40 l 1
 400 -80 l 1
 200 -80 l 1
320 -120 m 1
 320 -80 l 1
 400 -80 l 1
 400 -120 l 1
 320 -120 l 1
200 -160 m 1
 200 -120 l 1
 400 -120 l 1
 400 -160 l 1
 200 -160 l 1
200 -200 m 1
 200 -160 l 1
 360 -160 l 1
 360 -200 l 1
 200 -200 l 1
EndSplineSet
EndChar

StartChar: Egrave
Encoding: 200 200 136
Width: 600
Flags: HW
LayerCount: 2
Back
Fore
SplineSet
200 880 m 1
 200 920 l 1
 360 920 l 1
 360 880 l 1
 200 880 l 1
240 840 m 1
 240 880 l 1
 400 880 l 1
 400 840 l 1
 240 840 l 1
280 800 m 1
 280 840 l 1
 400 840 l 1
 400 800 l 1
 280 800 l 1
320 760 m 1
 320 800 l 1
 440 800 l 1
 440 760 l 1
 320 760 l 1
80 680 m 1
 80 720 l 1
 520 720 l 1
 520 680 l 1
 80 680 l 1
80 640 m 1
 80 680 l 1
 520 680 l 1
 520 640 l 1
 80 640 l 1
80 600 m 1
 80 640 l 1
 520 640 l 1
 520 600 l 1
 80 600 l 1
80 560 m 1
 80 600 l 1
 240 600 l 1
 240 560 l 1
 80 560 l 1
80 520 m 1
 80 560 l 1
 240 560 l 1
 240 520 l 1
 80 520 l 1
80 480 m 1
 80 520 l 1
 240 520 l 1
 240 480 l 1
 80 480 l 1
80 440 m 1
 80 480 l 1
 240 480 l 1
 240 440 l 1
 80 440 l 1
80 400 m 1
 80 440 l 1
 480 440 l 1
 480 400 l 1
 80 400 l 1
80 360 m 1
 80 400 l 1
 480 400 l 1
 480 360 l 1
 80 360 l 1
80 320 m 1
 80 360 l 1
 480 360 l 1
 480 320 l 1
 80 320 l 1
80 280 m 1
 80 320 l 1
 240 320 l 1
 240 280 l 1
 80 280 l 1
80 240 m 1
 80 280 l 1
 240 280 l 1
 240 240 l 1
 80 240 l 1
80 200 m 1
 80 240 l 1
 240 240 l 1
 240 200 l 1
 80 200 l 1
80 160 m 1
 80 200 l 1
 240 200 l 1
 240 160 l 1
 80 160 l 1
80 120 m 1
 80 160 l 1
 240 160 l 1
 240 120 l 1
 80 120 l 1
80 80 m 1
 80 120 l 1
 560 120 l 1
 560 80 l 1
 80 80 l 1
80 40 m 1
 80 80 l 1
 560 80 l 1
 560 40 l 1
 80 40 l 1
80 0 m 1
 80 40 l 1
 560 40 l 1
 560 0 l 1
 80 0 l 1
EndSplineSet
EndChar

StartChar: Eacute
Encoding: 201 201 137
Width: 600
Flags: HW
LayerCount: 2
Back
Fore
SplineSet
280 880 m 1
 280 920 l 1
 440 920 l 1
 440 880 l 1
 280 880 l 1
240 840 m 1
 240 880 l 1
 400 880 l 1
 400 840 l 1
 240 840 l 1
240 800 m 1
 240 840 l 1
 360 840 l 1
 360 800 l 1
 240 800 l 1
200 760 m 1
 200 800 l 1
 320 800 l 1
 320 760 l 1
 200 760 l 1
80 680 m 1
 80 720 l 1
 520 720 l 1
 520 680 l 1
 80 680 l 1
80 640 m 1
 80 680 l 1
 520 680 l 1
 520 640 l 1
 80 640 l 1
80 600 m 1
 80 640 l 1
 520 640 l 1
 520 600 l 1
 80 600 l 1
80 560 m 1
 80 600 l 1
 240 600 l 1
 240 560 l 1
 80 560 l 1
80 520 m 1
 80 560 l 1
 240 560 l 1
 240 520 l 1
 80 520 l 1
80 480 m 1
 80 520 l 1
 240 520 l 1
 240 480 l 1
 80 480 l 1
80 440 m 1
 80 480 l 1
 240 480 l 1
 240 440 l 1
 80 440 l 1
80 400 m 1
 80 440 l 1
 480 440 l 1
 480 400 l 1
 80 400 l 1
80 360 m 1
 80 400 l 1
 480 400 l 1
 480 360 l 1
 80 360 l 1
80 320 m 1
 80 360 l 1
 480 360 l 1
 480 320 l 1
 80 320 l 1
80 280 m 1
 80 320 l 1
 240 320 l 1
 240 280 l 1
 80 280 l 1
80 240 m 1
 80 280 l 1
 240 280 l 1
 240 240 l 1
 80 240 l 1
80 200 m 1
 80 240 l 1
 240 240 l 1
 240 200 l 1
 80 200 l 1
80 160 m 1
 80 200 l 1
 240 200 l 1
 240 160 l 1
 80 160 l 1
80 120 m 1
 80 160 l 1
 240 160 l 1
 240 120 l 1
 80 120 l 1
80 80 m 1
 80 120 l 1
 560 120 l 1
 560 80 l 1
 80 80 l 1
80 40 m 1
 80 80 l 1
 560 80 l 1
 560 40 l 1
 80 40 l 1
80 0 m 1
 80 40 l 1
 560 40 l 1
 560 0 l 1
 80 0 l 1
EndSplineSet
EndChar

StartChar: Ecircumflex
Encoding: 202 202 138
Width: 600
Flags: HW
LayerCount: 2
Back
Fore
SplineSet
240 880 m 1
 240 920 l 1
 400 920 l 1
 400 880 l 1
 240 880 l 1
200 840 m 1
 200 880 l 1
 440 880 l 1
 440 840 l 1
 200 840 l 1
200 800 m 1
 200 840 l 1
 440 840 l 1
 440 800 l 1
 200 800 l 1
160 760 m 1
 160 800 l 1
 280 800 l 1
 280 760 l 1
 160 760 l 1
360 760 m 1
 360 800 l 1
 480 800 l 1
 480 760 l 1
 360 760 l 1
80 680 m 1
 80 720 l 1
 520 720 l 1
 520 680 l 1
 80 680 l 1
80 640 m 1
 80 680 l 1
 520 680 l 1
 520 640 l 1
 80 640 l 1
80 600 m 1
 80 640 l 1
 520 640 l 1
 520 600 l 1
 80 600 l 1
80 560 m 1
 80 600 l 1
 240 600 l 1
 240 560 l 1
 80 560 l 1
80 520 m 1
 80 560 l 1
 240 560 l 1
 240 520 l 1
 80 520 l 1
80 480 m 1
 80 520 l 1
 240 520 l 1
 240 480 l 1
 80 480 l 1
80 440 m 1
 80 480 l 1
 240 480 l 1
 240 440 l 1
 80 440 l 1
80 400 m 1
 80 440 l 1
 480 440 l 1
 480 400 l 1
 80 400 l 1
80 360 m 1
 80 400 l 1
 480 400 l 1
 480 360 l 1
 80 360 l 1
80 320 m 1
 80 360 l 1
 480 360 l 1
 480 320 l 1
 80 320 l 1
80 280 m 1
 80 320 l 1
 240 320 l 1
 240 280 l 1
 80 280 l 1
80 240 m 1
 80 280 l 1
 240 280 l 1
 240 240 l 1
 80 240 l 1
80 200 m 1
 80 240 l 1
 240 240 l 1
 240 200 l 1
 80 200 l 1
80 160 m 1
 80 200 l 1
 240 200 l 1
 240 160 l 1
 80 160 l 1
80 120 m 1
 80 160 l 1
 240 160 l 1
 240 120 l 1
 80 120 l 1
80 80 m 1
 80 120 l 1
 560 120 l 1
 560 80 l 1
 80 80 l 1
80 40 m 1
 80 80 l 1
 560 80 l 1
 560 40 l 1
 80 40 l 1
80 0 m 1
 80 40 l 1
 560 40 l 1
 560 0 l 1
 80 0 l 1
EndSplineSet
EndChar

